QalamBadi-MeemNeck.ufo
<glyph name="numbersign" format="2">
  <advance width="1228"/>
  <unicode hex="0023"/>
  <outline>
    <contour>
      <point x="896.0" y="1176.0" type="curve" smooth="yes"/>
      <point x="827.2326111831591" y="911.4560803036052" type="line" smooth="yes"/>
      <point x="820.832269150616" y="886.8343577426945"/>
      <point x="792.596494140625" y="865.0"/>
      <point x="767.156494140625" y="865.0" type="curve" smooth="yes"/>
      <point x="601.9946899414062" y="865.0" type="line" smooth="yes"/>
      <point x="576.5546899414062" y="865.0"/>
      <point x="559.6704650238497" y="886.8343577238606"/>
      <point x="566.0708071380944" y="911.4560802635333" type="curve" smooth="yes"/>
      <point x="626.0" y="1142.0" type="line" smooth="yes"/>
      <point x="637.0" y="1184.0"/>
      <point x="595.0" y="1209.0"/>
      <point x="556.0" y="1209.0" type="curve" smooth="yes"/>
      <point x="532.0" y="1209.0"/>
      <point x="508.0" y="1199.0"/>
      <point x="502.0" y="1176.0" type="curve" smooth="yes"/>
      <point x="433.2326111831591" y="911.4560803036052" type="line" smooth="yes"/>
      <point x="426.832269150616" y="886.8343577426945"/>
      <point x="398.596494140625" y="865.0"/>
      <point x="373.156494140625" y="865.0" type="curve" smooth="yes"/>
      <point x="193.0" y="865.0" type="line" smooth="yes"/>
      <point x="148.0" y="865.0"/>
      <point x="130.0" y="845.0"/>
      <point x="130.0" y="793.0" type="curve" smooth="yes"/>
      <point x="130.0" y="741.0"/>
      <point x="148.0" y="721.0"/>
      <point x="193.0" y="721.0" type="curve" smooth="yes"/>
      <point x="335.7241516113281" y="721.0" type="line" smooth="yes"/>
      <point x="361.1641516113281" y="721.0"/>
      <point x="378.0483761426097" y="699.1656423765503"/>
      <point x="371.64803359277823" y="674.5439199501071" type="curve" smooth="yes"/>
      <point x="332.113257911128" y="522.4560800498929" type="line" smooth="yes"/>
      <point x="325.71291536129655" y="497.83435762344965"/>
      <point x="297.4771398925781" y="476.0"/>
      <point x="272.0371398925781" y="476.0" type="curve" smooth="yes"/>
      <point x="123.0" y="476.0" type="line" smooth="yes"/>
      <point x="78.0" y="476.0"/>
      <point x="60.0" y="456.0"/>
      <point x="60.0" y="404.0" type="curve" smooth="yes"/>
      <point x="60.0" y="352.0"/>
      <point x="78.0" y="332.0"/>
      <point x="123.0" y="332.0" type="curve" smooth="yes"/>
      <point x="234.60476684570312" y="332.0" type="line" smooth="yes"/>
      <point x="260.0447668457031" y="332.0"/>
      <point x="276.9289926818404" y="310.1656420373571"/>
      <point x="270.52865160344203" y="285.5439192284193" type="curve" smooth="yes"/>
      <point x="208.0" y="45.0" type="line" smooth="yes"/>
      <point x="197.0" y="3.0"/>
      <point x="239.0" y="-22.0"/>
      <point x="278.0" y="-22.0" type="curve" smooth="yes"/>
      <point x="302.0" y="-22.0"/>
      <point x="326.0" y="-12.0"/>
      <point x="332.0" y="11.0" type="curve" smooth="yes"/>
      <point x="403.3668473465641" y="285.54391924340763" type="line" smooth="yes"/>
      <point x="409.7671884555218" y="310.1656420444016"/>
      <point x="438.0029626464844" y="332.0"/>
      <point x="463.4429626464844" y="332.0" type="curve" smooth="yes"/>
      <point x="628.6047973632812" y="332.0" type="line" smooth="yes"/>
      <point x="654.0447973632813" y="332.0"/>
      <point x="670.929021024659" y="310.16564260267927"/>
      <point x="664.5286774938722" y="285.54392043123244" type="curve" smooth="yes"/>
      <point x="602.0" y="45.0" type="line" smooth="yes"/>
      <point x="591.0" y="3.0"/>
      <point x="633.0" y="-22.0"/>
      <point x="672.0" y="-22.0" type="curve" smooth="yes"/>
      <point x="696.0" y="-22.0"/>
      <point x="720.0" y="-12.0"/>
      <point x="726.0" y="11.0" type="curve" smooth="yes"/>
      <point x="797.3668737270972" y="285.5439203188199" type="line" smooth="yes"/>
      <point x="803.7672170286888" y="310.16564254984536"/>
      <point x="832.0029931640624" y="332.0"/>
      <point x="857.4429931640625" y="332.0" type="curve" smooth="yes"/>
      <point x="1035.0" y="332.0" type="line" smooth="yes"/>
      <point x="1080.0" y="332.0"/>
      <point x="1098.0" y="352.0"/>
      <point x="1098.0" y="404.0" type="curve" smooth="yes"/>
      <point x="1098.0" y="456.0"/>
      <point x="1080.0" y="476.0"/>
      <point x="1035.0" y="476.0" type="curve" smooth="yes"/>
      <point x="894.8753051757812" y="476.0" type="line" smooth="yes"/>
      <point x="869.4353051757812" y="476.0"/>
      <point x="852.5510806444997" y="497.83435762344965"/>
      <point x="858.9514231943311" y="522.4560800498929" type="curve" smooth="yes"/>
      <point x="898.4861988759814" y="674.5439199501071" type="line" smooth="yes"/>
      <point x="904.8865414258128" y="699.1656423765503"/>
      <point x="933.1223168945312" y="721.0"/>
      <point x="958.5623168945312" y="721.0" type="curve" smooth="yes"/>
      <point x="1105.0" y="721.0" type="line" smooth="yes"/>
      <point x="1150.0" y="721.0"/>
      <point x="1168.0" y="741.0"/>
      <point x="1168.0" y="793.0" type="curve" smooth="yes"/>
      <point x="1168.0" y="845.0"/>
      <point x="1150.0" y="865.0"/>
      <point x="1105.0" y="865.0" type="curve" smooth="yes"/>
      <point x="995.9946899414062" y="865.0" type="line" smooth="yes"/>
      <point x="970.5546899414062" y="865.0"/>
      <point x="953.6704650238497" y="886.8343577238606"/>
      <point x="960.0708071380944" y="911.4560802635333" type="curve" smooth="yes"/>
      <point x="1020.0" y="1142.0" type="line" smooth="yes"/>
      <point x="1031.0" y="1184.0"/>
      <point x="989.0" y="1209.0"/>
      <point x="950.0" y="1209.0" type="curve" smooth="yes"/>
      <point x="926.0" y="1209.0"/>
      <point x="902.0" y="1199.0"/>
    </contour>
    <contour>
      <point x="504.48620429635486" y="674.5439185410977" type="line" smooth="yes"/>
      <point x="510.88654397338837" y="699.1656417143159"/>
      <point x="539.1223168945312" y="721.0"/>
      <point x="564.5623168945312" y="721.0" type="curve" smooth="yes"/>
      <point x="729.72412109375" y="721.0" type="line" smooth="yes"/>
      <point x="755.16412109375" y="721.0"/>
      <point x="772.0483456250315" y="699.1656423765503"/>
      <point x="765.6480030752001" y="674.5439199501071" type="curve" smooth="yes"/>
      <point x="726.1132273935499" y="522.4560800498929" type="line" smooth="yes"/>
      <point x="719.7128848437185" y="497.83435762344965"/>
      <point x="691.477109375" y="476.0"/>
      <point x="666.037109375" y="476.0" type="curve" smooth="yes"/>
      <point x="500.8753356933594" y="476.0" type="line" smooth="yes"/>
      <point x="475.4353356933594" y="476.0"/>
      <point x="458.55110861450225" y="497.83435828568406"/>
      <point x="464.95144829153577" y="522.4560814589023" type="curve" smooth="yes"/>
    </contour>
  </outline>
</glyph>
<glyph name="E" format="2">
  <advance width="1228"/>
  <unicode hex="0045"/>
  <outline>
    <contour>
      <point x="288.0" y="1187.0" type="line" smooth="yes"/>
      <point x="243.0" y="1187.0"/>
      <point x="225.0" y="1169.0"/>
      <point x="225.0" y="1119.0" type="curve" smooth="yes"/>
      <point x="225.0" y="68.0" type="line" smooth="yes"/>
      <point x="225.0" y="18.0"/>
      <point x="243.0" y="0.0"/>
      <point x="288.0" y="0.0" type="curve" smooth="yes"/>
      <point x="864.7926315789473" y="0.0" type="line" smooth="yes"/>
      <point x="901.405037593985" y="0.0"/>
      <point x="916.05" y="20.0"/>
      <point x="916.05" y="72.0" type="curve" smooth="yes"/>
      <point x="916.05" y="124.0"/>
      <point x="901.405037593985" y="144.0"/>
      <point x="864.7926315789473" y="144.0" type="curve" smooth="yes"/>
      <point x="423.0" y="144.0" type="line" smooth="yes"/>
      <point x="397.56" y="144.0"/>
      <point x="375.0" y="166.56"/>
      <point x="375.0" y="192.0" type="curve" smooth="yes"/>
      <point x="375.0" y="492.0" type="line" smooth="yes"/>
      <point x="375.0" y="517.44"/>
      <point x="397.56" y="540.0"/>
      <point x="423.0" y="540.0" type="curve" smooth="yes"/>
      <point x="746.8193233082707" y="540.0" type="line" smooth="yes"/>
      <point x="783.4317293233082" y="540.0"/>
      <point x="798.0766917293233" y="560.0"/>
      <point x="798.0766917293233" y="612.0" type="curve" smooth="yes"/>
      <point x="798.0766917293233" y="664.0"/>
      <point x="783.4317293233082" y="684.0"/>
      <point x="746.8193233082707" y="684.0" type="curve" smooth="yes"/>
      <point x="423.0" y="684.0" type="line" smooth="yes"/>
      <point x="397.56" y="684.0"/>
      <point x="375.0" y="706.56"/>
      <point x="375.0" y="732.0" type="curve" smooth="yes"/>
      <point x="375.0" y="995.0" type="line" smooth="yes"/>
      <point x="375.0" y="1020.44"/>
      <point x="397.56" y="1043.0"/>
      <point x="423.0" y="1043.0" type="curve" smooth="yes"/>
      <point x="848.5204511278196" y="1043.0" type="line" smooth="yes"/>
      <point x="885.1328571428571" y="1043.0"/>
      <point x="899.7778195488721" y="1063.0"/>
      <point x="899.7778195488721" y="1115.0" type="curve" smooth="yes"/>
      <point x="899.7778195488721" y="1167.0"/>
      <point x="885.1328571428571" y="1187.0"/>
      <point x="848.5204511278196" y="1187.0" type="curve" smooth="yes"/>
    </contour>
  </outline>
</glyph>
<glyph name="X" format="2">
  <advance width="1228"/>
  <unicode hex="0058"/>
  <outline>
    <contour>
      <point x="916.0" y="1172.0" type="curve" smooth="yes"/>
      <point x="647.1723454094166" y="764.8051727040549" type="line" smooth="yes"/>
      <point x="633.156048118793" y="743.5746048769605"/>
      <point x="608.2544524582261" y="743.5464760834107"/>
      <point x="594.1902269826784" y="764.7453242071402" type="curve" smooth="yes"/>
      <point x="324.0" y="1172.0" type="line" smooth="yes"/>
      <point x="297.0" y="1211.0"/>
      <point x="268.0" y="1210.0"/>
      <point x="217.0" y="1187.0" type="curve" smooth="yes"/>
      <point x="171.0" y="1166.0"/>
      <point x="159.0" y="1138.0"/>
      <point x="187.0" y="1098.0" type="curve" smooth="yes"/>
      <point x="498.9267210358486" y="644.2107264990258" type="line" smooth="yes"/>
      <point x="513.3375388673176" y="623.2459481928233"/>
      <point x="513.151803186561" y="586.1921809200336"/>
      <point x="498.5315387363665" y="565.3729237909625" type="curve" smooth="yes"/>
      <point x="164.0" y="89.0" type="line" smooth="yes"/>
      <point x="137.0" y="49.0"/>
      <point x="148.0" y="21.0"/>
      <point x="194.0" y="0.0" type="curve" smooth="yes"/>
      <point x="245.0" y="-23.0"/>
      <point x="274.0" y="-25.0"/>
      <point x="301.0" y="15.0" type="curve" smooth="yes"/>
      <point x="591.4592650201907" y="446.81036649087804" type="line" smooth="yes"/>
      <point x="605.6582251649584" y="467.91920660129864"/>
      <point x="630.9364477946317" y="467.9835697895793"/>
      <point x="645.242717423751" y="446.94730944466676" type="curve" smooth="yes"/>
      <point x="939.0" y="15.0" type="line" smooth="yes"/>
      <point x="965.0" y="-25.0"/>
      <point x="995.0" y="-23.0"/>
      <point x="1046.0" y="0.0" type="curve" smooth="yes"/>
      <point x="1092.0" y="21.0"/>
      <point x="1104.0" y="50.0"/>
      <point x="1076.0" y="89.0" type="curve" smooth="yes"/>
      <point x="740.5221271947031" y="564.8488206474706" type="line" smooth="yes"/>
      <point x="725.8634240735026" y="585.6410312756002"/>
      <point x="725.659525916988" y="622.6598575457341"/>
      <point x="740.0883013297781" y="643.6122807966915" type="curve" smooth="yes"/>
      <point x="1053.0" y="1098.0" type="line" smooth="yes"/>
      <point x="1081.0" y="1138.0"/>
      <point x="1069.0" y="1166.0"/>
      <point x="1023.0" y="1187.0" type="curve" smooth="yes"/>
      <point x="972.0" y="1210.0"/>
      <point x="943.0" y="1211.0"/>
    </contour>
  </outline>
</glyph>
<glyph name="sterling" format="2">
  <advance width="1228"/>
  <unicode hex="00A3"/>
  <outline>
    <contour>
      <point x="290.0" y="884.0" type="curve" smooth="yes"/>
      <point x="290.0" y="793.4514770507812"/>
      <point x="328.5230712890625" y="720.0858764648438"/>
      <point x="349.6846990966797" y="678.2760681152344" type="curve" smooth="yes"/>
      <point x="357.8063859069824" y="662.2297520141601"/>
      <point x="349.0600235059723" y="648.0"/>
      <point x="331.07541739240287" y="648.0" type="curve" smooth="yes"/>
      <point x="283.0" y="648.0" type="line" smooth="yes"/>
      <point x="238.0" y="648.0"/>
      <point x="220.0" y="628.0"/>
      <point x="220.0" y="576.0" type="curve" smooth="yes"/>
      <point x="220.0" y="524.0"/>
      <point x="238.0" y="504.0"/>
      <point x="283.0" y="504.0" type="curve" smooth="yes"/>
      <point x="414.40663557732495" y="504.0" type="line" smooth="yes"/>
      <point x="418.73959528384273" y="504.0"/>
      <point x="423.38663143310544" y="500.2427493164062"/>
      <point x="424.2939465332031" y="496.005849609375" type="curve" smooth="yes"/>
      <point x="426.65802001953125" y="484.96630859375"/>
      <point x="429.0" y="465.37908935546875"/>
      <point x="429.0" y="445.0" type="curve" smooth="yes"/>
      <point x="429.0" y="341.0"/>
      <point x="390.0" y="254.0"/>
      <point x="273.0" y="138.0" type="curve" smooth="yes"/>
      <point x="259.0" y="124.0"/>
      <point x="254.0" y="112.0"/>
      <point x="254.0" y="95.0" type="curve" smooth="yes"/>
      <point x="254.0" y="53.0"/>
      <point x="277.0" y="0.0"/>
      <point x="308.0" y="0.0" type="curve" smooth="yes"/>
      <point x="915.0" y="0.0" type="line" smooth="yes"/>
      <point x="960.0" y="0.0"/>
      <point x="978.0" y="20.0"/>
      <point x="978.0" y="72.0" type="curve" smooth="yes"/>
      <point x="978.0" y="124.0"/>
      <point x="960.0" y="144.0"/>
      <point x="915.0" y="144.0" type="curve" smooth="yes"/>
      <point x="504.0" y="144.0" type="line" smooth="yes"/>
      <point x="478.56" y="144.0"/>
      <point x="470.90791383176423" y="160.93244533978162"/>
      <point x="487.7189655994984" y="180.02647944634387" type="curve" smooth="yes"/>
      <point x="537.0" y="236.0"/>
      <point x="581.0" y="336.0"/>
      <point x="581.0" y="446.0" type="curve" smooth="yes"/>
      <point x="581.0" y="466.3487548828125"/>
      <point x="579.6097412109375" y="485.63201904296875"/>
      <point x="578.1594934082032" y="496.2854479980469" type="curve" smooth="yes"/>
      <point x="577.6028983032227" y="500.37416055908204"/>
      <point x="580.7685949256896" y="504.0"/>
      <point x="584.8950181368563" y="504.0" type="curve" smooth="yes"/>
      <point x="815.0" y="504.0" type="line" smooth="yes"/>
      <point x="860.0" y="504.0"/>
      <point x="878.0" y="524.0"/>
      <point x="878.0" y="576.0" type="curve" smooth="yes"/>
      <point x="878.0" y="628.0"/>
      <point x="860.0" y="648.0"/>
      <point x="815.0" y="648.0" type="curve" smooth="yes"/>
      <point x="571.7130554390471" y="648.0" type="line" smooth="yes"/>
      <point x="550.9304595426803" y="648.0"/>
      <point x="524.7211358703613" y="664.7074569580078"/>
      <point x="515.9485369873047" y="683.5477807617187" type="curve" smooth="yes"/>
      <point x="493.0909118652344" y="732.6375732421875"/>
      <point x="444.0" y="800.7938842773438"/>
      <point x="444.0" y="884.0" type="curve" smooth="yes"/>
      <point x="444.0" y="982.0"/>
      <point x="513.0" y="1061.0"/>
      <point x="627.0" y="1061.0" type="curve" smooth="yes"/>
      <point x="711.0" y="1061.0"/>
      <point x="788.0" y="1035.0"/>
      <point x="856.0" y="990.0" type="curve" smooth="yes"/>
      <point x="885.0" y="971.0"/>
      <point x="916.0" y="971.0"/>
      <point x="943.0" y="1021.0" type="curve" smooth="yes"/>
      <point x="971.0" y="1072.0"/>
      <point x="960.0" y="1100.0"/>
      <point x="925.0" y="1122.0" type="curve" smooth="yes"/>
      <point x="839.0" y="1176.0"/>
      <point x="739.0" y="1209.0"/>
      <point x="628.0" y="1209.0" type="curve" smooth="yes"/>
      <point x="423.0" y="1209.0"/>
      <point x="290.0" y="1069.0"/>
    </contour>
  </outline>
</glyph>
<glyph name="AE" format="2">
  <advance width="1228"/>
  <unicode hex="00C6"/>
  <outline>
    <contour>
      <point x="519.0" y="1187.0" type="line" smooth="yes"/>
      <point x="474.0" y="1187.0"/>
      <point x="449.0" y="1169.0"/>
      <point x="430.0" y="1119.0" type="curve" smooth="yes"/>
      <point x="27.0" y="84.0" type="line" smooth="yes"/>
      <point x="10.0" y="40.0"/>
      <point x="23.0" y="15.0"/>
      <point x="76.0" y="-2.0" type="curve" smooth="yes"/>
      <point x="129.0" y="-19.0"/>
      <point x="154.0" y="-8.0"/>
      <point x="171.0" y="36.0" type="curve" smooth="yes"/>
      <point x="283.44953207002237" y="325.26162873668034" type="line" smooth="yes"/>
      <point x="292.66723832486366" y="348.97296550623975"/>
      <point x="323.4014306640625" y="370.0"/>
      <point x="348.8414306640625" y="370.0" type="curve" smooth="yes"/>
      <point x="527.0" y="370.0" type="line" smooth="yes"/>
      <point x="552.44" y="370.0"/>
      <point x="575.0" y="347.44"/>
      <point x="575.0" y="322.0" type="curve" smooth="yes"/>
      <point x="575.0" y="68.0" type="line" smooth="yes"/>
      <point x="575.0" y="18.0"/>
      <point x="593.0" y="0.0"/>
      <point x="638.0" y="0.0" type="curve" smooth="yes"/>
      <point x="1107.0" y="0.0" type="line" smooth="yes"/>
      <point x="1152.0" y="0.0"/>
      <point x="1170.0" y="20.0"/>
      <point x="1170.0" y="72.0" type="curve" smooth="yes"/>
      <point x="1170.0" y="124.0"/>
      <point x="1152.0" y="144.0"/>
      <point x="1107.0" y="144.0" type="curve" smooth="yes"/>
      <point x="773.0" y="144.0" type="line" smooth="yes"/>
      <point x="747.56" y="144.0"/>
      <point x="725.0" y="166.56"/>
      <point x="725.0" y="192.0" type="curve" smooth="yes"/>
      <point x="725.0" y="492.0" type="line" smooth="yes"/>
      <point x="725.0" y="517.44"/>
      <point x="747.56" y="540.0"/>
      <point x="773.0" y="540.0" type="curve" smooth="yes"/>
      <point x="1042.0" y="540.0" type="line" smooth="yes"/>
      <point x="1087.0" y="540.0"/>
      <point x="1105.0" y="560.0"/>
      <point x="1105.0" y="612.0" type="curve" smooth="yes"/>
      <point x="1105.0" y="664.0"/>
      <point x="1087.0" y="684.0"/>
      <point x="1042.0" y="684.0" type="curve" smooth="yes"/>
      <point x="773.0" y="684.0" type="line" smooth="yes"/>
      <point x="747.56" y="684.0"/>
      <point x="725.0" y="706.56"/>
      <point x="725.0" y="732.0" type="curve" smooth="yes"/>
      <point x="725.0" y="995.0" type="line" smooth="yes"/>
      <point x="725.0" y="1020.44"/>
      <point x="747.56" y="1043.0"/>
      <point x="773.0" y="1043.0" type="curve" smooth="yes"/>
      <point x="1087.0" y="1043.0" type="line" smooth="yes"/>
      <point x="1132.0" y="1043.0"/>
      <point x="1150.0" y="1063.0"/>
      <point x="1150.0" y="1115.0" type="curve" smooth="yes"/>
      <point x="1150.0" y="1167.0"/>
      <point x="1132.0" y="1187.0"/>
      <point x="1087.0" y="1187.0" type="curve" smooth="yes"/>
    </contour>
    <contour>
      <point x="402.86187744140625" y="514.0" type="line" smooth="yes"/>
      <point x="377.42187744140625" y="514.0"/>
      <point x="362.66956399690974" y="535.1658600262548"/>
      <point x="371.473976495669" y="559.0337447367123" type="curve" smooth="yes"/>
      <point x="546.36610333188" y="1033.1488683388443" type="line" smooth="yes"/>
      <point x="548.2920685659836" y="1038.3699681192568"/>
      <point x="554.935" y="1043.0"/>
      <point x="560.5" y="1043.0" type="curve" smooth="yes"/>
      <point x="564.5" y="1043.0" type="line" smooth="yes"/>
      <point x="570.065" y="1043.0"/>
      <point x="575.0" y="1038.065"/>
      <point x="575.0" y="1032.5" type="curve" smooth="yes"/>
      <point x="575.0" y="562.0" type="line" smooth="yes"/>
      <point x="575.0" y="536.56"/>
      <point x="552.44" y="514.0"/>
      <point x="527.0" y="514.0" type="curve" smooth="yes"/>
    </contour>
  </outline>
</glyph>
<glyph name="aogonek" format="2">
  <advance width="1228"/>
  <unicode hex="0105"/>
  <outline>
    <contour>
      <point x="264.0" y="855.0" type="curve" smooth="yes"/>
      <point x="230.0" y="837.0"/>
      <point x="216.0" y="807.0"/>
      <point x="238.0" y="761.0" type="curve" smooth="yes"/>
      <point x="260.0" y="715.0"/>
      <point x="287.0" y="703.0"/>
      <point x="324.0" y="722.0" type="curve" smooth="yes"/>
      <point x="420.0" y="771.0"/>
      <point x="533.0" y="801.0"/>
      <point x="634.0" y="801.0" type="curve" smooth="yes"/>
      <point x="797.0" y="801.0"/>
      <point x="864.0" y="741.0"/>
      <point x="864.0" y="613.0" type="curve" smooth="yes"/>
      <point x="864.0" y="563.7" type="line" smooth="yes"/>
      <point x="864.0" y="544.779"/>
      <point x="848.1682592358014" y="533.5579515448782"/>
      <point x="830.3154451825563" y="539.8254288188898" type="curve" smooth="yes"/>
      <point x="770.0" y="561.0"/>
      <point x="668.0" y="579.0"/>
      <point x="560.0" y="579.0" type="curve" smooth="yes"/>
      <point x="341.0" y="579.0"/>
      <point x="159.0" y="494.0"/>
      <point x="159.0" y="270.0" type="curve" smooth="yes"/>
      <point x="159.0" y="84.0"/>
      <point x="299.0" y="-22.0"/>
      <point x="499.0" y="-22.0" type="curve" smooth="yes"/>
      <point x="643.0" y="-22.0"/>
      <point x="770.0" y="34.0"/>
      <point x="844.9615123871168" y="98.1497557928211" type="curve" smooth="yes"/>
      <point x="860.3519108219449" y="111.32038522262592"/>
      <point x="874.0" y="105.03659999999999"/>
      <point x="874.0" y="84.78" type="curve" smooth="yes"/>
      <point x="874.0" y="70.22" type="line" smooth="yes"/>
      <point x="874.0" y="49.9634"/>
      <point x="859.9838004399356" y="20.76479241613886"/>
      <point x="844.1782988083736" y="8.095303013061407" type="curve" smooth="yes"/>
      <point x="748.0" y="-69.0"/>
      <point x="671.0" y="-169.0"/>
      <point x="671.0" y="-281.0" type="curve" smooth="yes"/>
      <point x="671.0" y="-397.0"/>
      <point x="747.0" y="-472.0"/>
      <point x="871.0" y="-472.0" type="curve" smooth="yes"/>
      <point x="933.0" y="-472.0"/>
      <point x="989.0" y="-462.0"/>
      <point x="1035.0" y="-446.0" type="curve" smooth="yes"/>
      <point x="1064.0" y="-436.0"/>
      <point x="1073.0" y="-415.0"/>
      <point x="1067.0" y="-374.0" type="curve" smooth="yes"/>
      <point x="1062.0" y="-337.0"/>
      <point x="1043.0" y="-322.0"/>
      <point x="1017.0" y="-326.0" type="curve" smooth="yes"/>
      <point x="982.0" y="-332.0"/>
      <point x="943.0" y="-336.0"/>
      <point x="904.0" y="-336.0" type="curve" smooth="yes"/>
      <point x="859.0" y="-336.0"/>
      <point x="827.0" y="-310.0"/>
      <point x="827.0" y="-261.0" type="curve" smooth="yes"/>
      <point x="827.0" y="-187.0"/>
      <point x="875.0" y="-109.0"/>
      <point x="998.0" y="4.0" type="curve" smooth="yes"/>
      <point x="1010.0" y="15.0"/>
      <point x="1014.0" y="30.0"/>
      <point x="1014.0" y="55.0" type="curve" smooth="yes"/>
      <point x="1014.0" y="613.0" type="line" smooth="yes"/>
      <point x="1014.0" y="832.0"/>
      <point x="889.0" y="946.0"/>
      <point x="638.0" y="946.0" type="curve" smooth="yes"/>
      <point x="509.0" y="946.0"/>
      <point x="376.0" y="914.0"/>
    </contour>
    <contour>
      <point x="825.36" y="405.6" type="curve" smooth="yes"/>
      <point x="845.8392" y="398.922"/>
      <point x="864.0" y="373.89804353894607"/>
      <point x="864.0" y="352.3575394445661" type="curve" smooth="yes"/>
      <point x="864.0" y="329.78" type="line" smooth="yes"/>
      <point x="864.0" y="305.5166"/>
      <point x="849.0165335895116" y="268.5578560463333"/>
      <point x="832.1202842330033" y="251.14437456666664" type="curve" smooth="yes"/>
      <point x="766.0" y="183.0"/>
      <point x="647.0" y="119.0"/>
      <point x="505.0" y="119.0" type="curve" smooth="yes"/>
      <point x="384.0" y="119.0"/>
      <point x="313.0" y="176.0"/>
      <point x="313.0" y="273.0" type="curve" smooth="yes"/>
      <point x="313.0" y="394.0"/>
      <point x="417.0" y="438.0"/>
      <point x="561.0" y="438.0" type="curve" smooth="yes"/>
      <point x="664.0" y="438.0"/>
      <point x="772.0" y="423.0"/>
    </contour>
  </outline>
</glyph>
<glyph name="dotlessi" format="2">
  <advance width="1228"/>
  <unicode hex="0131"/>
  <outline>
    <contour>
      <point x="500.1661184210526" y="924.0" type="line" smooth="yes"/>
      <point x="488.99013157894734" y="924.0"/>
      <point x="484.51973684210526" y="904.0"/>
      <point x="484.51973684210526" y="852.0" type="curve" smooth="yes"/>
      <point x="484.51973684210526" y="800.0"/>
      <point x="488.99013157894734" y="780.0"/>
      <point x="500.1661184210526" y="780.0" type="curve" smooth="yes"/>
      <point x="536.609769736842" y="780.0" type="line" smooth="yes"/>
      <point x="550.5965917763158" y="780.0"/>
      <point x="563.0" y="767.5965917763158"/>
      <point x="563.0" y="753.609769736842" type="curve" smooth="yes"/>
      <point x="563.0" y="176.64878289473683" type="line" smooth="yes"/>
      <point x="563.0" y="159.34492796052632"/>
      <point x="547.6550720394737" y="144.0"/>
      <point x="530.3512171052631" y="144.0" type="curve" smooth="yes"/>
      <point x="485.26480263157896" y="144.0" type="line" smooth="yes"/>
      <point x="474.08881578947364" y="144.0"/>
      <point x="469.61842105263156" y="124.0"/>
      <point x="469.61842105263156" y="72.0" type="curve" smooth="yes"/>
      <point x="469.61842105263156" y="20.0"/>
      <point x="474.08881578947364" y="0.0"/>
      <point x="485.26480263157896" y="0.0" type="curve" smooth="yes"/>
      <point x="792.7220394736842" y="0.0" type="line" smooth="yes"/>
      <point x="803.8980263157895" y="0.0"/>
      <point x="808.3684210526316" y="20.0"/>
      <point x="808.3684210526316" y="72.0" type="curve" smooth="yes"/>
      <point x="808.3684210526316" y="124.0"/>
      <point x="803.8980263157895" y="144.0"/>
      <point x="792.7220394736842" y="144.0" type="curve" smooth="yes"/>
      <point x="746.4832565789474" y="144.0" type="line" smooth="yes"/>
      <point x="728.7371305921052" y="144.0"/>
      <point x="713.0" y="159.73713059210525"/>
      <point x="713.0" y="177.48325657894736" type="curve" smooth="yes"/>
      <point x="713.0" y="856.0" type="line" smooth="yes"/>
      <point x="713.0" y="906.0"/>
      <point x="695.0" y="924.0"/>
      <point x="650.0" y="924.0" type="curve" smooth="yes"/>
    </contour>
  </outline>
</glyph>
<glyph name="oe" format="2">
  <advance width="1228"/>
  <unicode hex="0153"/>
  <outline>
    <contour>
      <point x="634.7969896754232" y="843.5392599965622" type="curve" smooth="yes"/>
      <point x="623.2445851474489" y="823.6434521983842"/>
      <point x="603.3274" y="823.9634"/>
      <point x="592.42" y="844.22" type="curve" smooth="yes"/>
      <point x="564.0" y="897.0"/>
      <point x="488.0" y="946.0"/>
      <point x="382.0" y="946.0" type="curve" smooth="yes"/>
      <point x="175.0" y="946.0"/>
      <point x="70.0" y="769.0"/>
      <point x="70.0" y="462.0" type="curve" smooth="yes"/>
      <point x="70.0" y="155.0"/>
      <point x="175.0" y="-22.0"/>
      <point x="382.0" y="-22.0" type="curve" smooth="yes"/>
      <point x="487.0" y="-22.0"/>
      <point x="564.0" y="26.0"/>
      <point x="592.42" y="78.2" type="curve" smooth="yes"/>
      <point x="603.3274" y="98.23400000000001"/>
      <point x="623.1574201950909" y="98.50666521956553"/>
      <point x="634.6115323299808" y="78.78013876503306" type="curve" smooth="yes"/>
      <point x="667.0" y="23.0"/>
      <point x="750.0" y="-22.0"/>
      <point x="853.0" y="-22.0" type="curve" smooth="yes"/>
      <point x="948.0" y="-22.0"/>
      <point x="1038.0" y="14.0"/>
      <point x="1112.0" y="84.0" type="curve" smooth="yes"/>
      <point x="1144.0" y="114.0"/>
      <point x="1149.0" y="149.0"/>
      <point x="1118.0" y="187.0" type="curve" smooth="yes"/>
      <point x="1087.0" y="225.0"/>
      <point x="1048.0" y="226.0"/>
      <point x="1023.0" y="201.0" type="curve" smooth="yes"/>
      <point x="967.0" y="147.0"/>
      <point x="917.0" y="123.0"/>
      <point x="853.0" y="123.0" type="curve" smooth="yes"/>
      <point x="764.0" y="123.0"/>
      <point x="693.0" y="199.0"/>
      <point x="689.7965707868756" y="392.0066100907479" type="curve" smooth="yes"/>
      <point x="689.3743882698316" y="417.44310674265154"/>
      <point x="711.56" y="440.0"/>
      <point x="737.0" y="440.0" type="curve" smooth="yes"/>
      <point x="1088.0" y="440.0" type="line" smooth="yes"/>
      <point x="1133.0" y="440.0"/>
      <point x="1152.0" y="457.0"/>
      <point x="1151.0" y="502.0" type="curve" smooth="yes"/>
      <point x="1144.0" y="769.0"/>
      <point x="1065.0" y="946.0"/>
      <point x="853.0" y="946.0" type="curve" smooth="yes"/>
      <point x="749.0" y="946.0"/>
      <point x="667.0" y="899.0"/>
    </contour>
    <contour>
      <point x="536.0" y="462.0" type="curve" smooth="yes"/>
      <point x="536.0" y="227.0"/>
      <point x="487.0" y="126.0"/>
      <point x="382.0" y="126.0" type="curve" smooth="yes"/>
      <point x="277.0" y="126.0"/>
      <point x="228.0" y="227.0"/>
      <point x="228.0" y="462.0" type="curve" smooth="yes"/>
      <point x="228.0" y="697.0"/>
      <point x="277.0" y="798.0"/>
      <point x="382.0" y="798.0" type="curve" smooth="yes"/>
      <point x="487.0" y="798.0"/>
      <point x="536.0" y="697.0"/>
    </contour>
    <contour>
      <point x="990.8534975840497" y="627.8967589983541" type="curve" smooth="yes"/>
      <point x="992.5211438645034" y="602.5114767292264"/>
      <point x="971.44" y="580.0"/>
      <point x="946.0" y="580.0" type="curve" smooth="yes"/>
      <point x="742.0" y="580.0" type="line" smooth="yes"/>
      <point x="716.56" y="580.0"/>
      <point x="696.2587810715864" y="602.4466368988908"/>
      <point x="698.8059171735882" y="627.7588019125335" type="curve" smooth="yes"/>
      <point x="710.0" y="739.0"/>
      <point x="763.0" y="801.0"/>
      <point x="855.0" y="801.0" type="curve" smooth="yes"/>
      <point x="946.0" y="801.0"/>
      <point x="985.0" y="717.0"/>
    </contour>
  </outline>
</glyph>
<glyph name="Oslashacute" format="2">
  <advance width="1228"/>
  <unicode hex="01FE"/>
  <outline>
    <contour>
      <point x="976.0" y="1239.0" type="curve" smooth="yes"/>
      <point x="920.6576573646284" y="1159.251597249223" type="line" smooth="yes"/>
      <point x="908.5315763783675" y="1141.7778954825255"/>
      <point x="882.1481046264648" y="1136.8390558105468"/>
      <point x="864.5226110839844" y="1148.743427734375" type="curve" smooth="yes"/>
      <point x="818.59814453125" y="1179.7611083984375"/>
      <point x="722.5985107421875" y="1209.0"/>
      <point x="614.0" y="1209.0" type="curve" smooth="yes"/>
      <point x="299.0" y="1209.0"/>
      <point x="90.0" y="963.0"/>
      <point x="90.0" y="593.0" type="curve" smooth="yes"/>
      <point x="90.0" y="413.890380859375"/>
      <point x="138.97569274902344" y="264.07244873046875"/>
      <point x="195.10119875269766" y="194.51440860347694" type="curve" smooth="yes"/>
      <point x="211.0764484540511" y="174.71579761736461"/>
      <point x="212.3810845278791" y="138.6242431067512"/>
      <point x="197.87702018637427" y="117.7238670915335" type="curve" smooth="yes"/>
      <point x="137.0" y="30.0" type="line" smooth="yes"/>
      <point x="111.0" y="-8.0"/>
      <point x="117.0" y="-35.0"/>
      <point x="158.0" y="-63.0" type="curve" smooth="yes"/>
      <point x="198.0" y="-91.0"/>
      <point x="226.0" y="-88.0"/>
      <point x="252.0" y="-50.0" type="curve" smooth="yes"/>
      <point x="306.1858611926152" y="28.08190445088743" type="line" smooth="yes"/>
      <point x="318.3552826169745" y="45.61805834722715"/>
      <point x="344.81774305419924" y="50.55191847858429"/>
      <point x="362.48896850585936" y="38.579479198455815" type="curve" smooth="yes"/>
      <point x="408.5325927734375" y="7.384444236755371"/>
      <point x="504.90966796875" y="-22.0"/>
      <point x="614.0" y="-22.0" type="curve" smooth="yes"/>
      <point x="929.0" y="-22.0"/>
      <point x="1138.0" y="223.0"/>
      <point x="1138.0" y="593.0" type="curve" smooth="yes"/>
      <point x="1138.0" y="772.760498046875"/>
      <point x="1088.667724609375" y="923.2521362304688"/>
      <point x="1032.0260587670464" y="993.1842019059852" type="curve" smooth="yes"/>
      <point x="1016.0141342171914" y="1012.9531642512818"/>
      <point x="1014.6769756315723" y="1049.0184262468554"/>
      <point x="1029.1810404997716" y="1069.9188018965672" type="curve" smooth="yes"/>
      <point x="1091.0" y="1159.0" type="line" smooth="yes"/>
      <point x="1116.0" y="1196.0"/>
      <point x="1111.0" y="1224.0"/>
      <point x="1071.0" y="1252.0" type="curve" smooth="yes"/>
      <point x="1031.0" y="1280.0"/>
      <point x="1002.0" y="1277.0"/>
    </contour>
    <contour>
      <point x="984.0" y="593.0" type="curve" smooth="yes"/>
      <point x="984.0" y="303.0"/>
      <point x="838.0" y="126.0"/>
      <point x="614.0" y="126.0" type="curve" smooth="yes"/>
      <point x="537.7615966796875" y="126.0"/>
      <point x="470.5586242675781" y="146.5033416748047"/>
      <point x="438.3763238525391" y="168.82373931884766" type="curve" smooth="yes"/>
      <point x="426.0249789001465" y="177.3901540008545"/>
      <point x="422.67149352454544" y="195.93781029844243"/>
      <point x="431.24124858530286" y="208.2868378243539" type="curve" smooth="yes"/>
      <point x="887.8051880367107" y="866.1960330873666" type="line" smooth="yes"/>
      <point x="899.3939175032306" y="882.8954064250858"/>
      <point x="919.1058184570312" y="882.3454345336914"/>
      <point x="929.7454028320312" y="865.0258801269531" type="curve" smooth="yes"/>
      <point x="957.4675903320312" y="819.8985595703125"/>
      <point x="984.0" y="716.6260986328125"/>
    </contour>
    <contour>
      <point x="339.20310151715455" y="321.3749141102301" type="line" smooth="yes"/>
      <point x="327.68973414128527" y="304.7841384037808"/>
      <point x="308.1503216369629" y="305.357659954834"/>
      <point x="297.62988342285155" y="322.59517272949216" type="curve" smooth="yes"/>
      <point x="270.2181396484375" y="367.50872802734375"/>
      <point x="244.0" y="470.1083068847656"/>
      <point x="244.0" y="593.0" type="curve" smooth="yes"/>
      <point x="244.0" y="883.0"/>
      <point x="390.0" y="1061.0"/>
      <point x="614.0" y="1061.0" type="curve" smooth="yes"/>
      <point x="689.752197265625" y="1061.0"/>
      <point x="756.5839233398438" y="1040.6429443359375"/>
      <point x="788.6470483398438" y="1018.5093103027343" type="curve" smooth="yes"/>
      <point x="800.9526545898437" y="1010.014574206543"/>
      <point x="804.3052158663919" y="991.5875988836059"/>
      <point x="795.7801574388823" y="979.3029798284001" type="curve" smooth="yes"/>
    </contour>
    <contour>
      <point x="406.0" y="1525.0" type="line" smooth="yes"/>
      <point x="381.0" y="1506.0"/>
      <point x="386.0" y="1474.0"/>
      <point x="414.0" y="1442.0" type="curve" smooth="yes"/>
      <point x="440.0" y="1413.0"/>
      <point x="466.0" y="1412.0"/>
      <point x="492.0" y="1427.0" type="curve" smooth="yes"/>
      <point x="866.0" y="1646.0" type="line" smooth="yes"/>
      <point x="894.0" y="1662.0"/>
      <point x="900.0" y="1700.0"/>
      <point x="858.0" y="1753.0" type="curve" smooth="yes"/>
      <point x="821.0" y="1799.0"/>
      <point x="784.0" y="1803.0"/>
      <point x="754.0" y="1781.0" type="curve" smooth="yes"/>
    </contour>
  </outline>
</glyph>
<glyph name="Pi" format="2">
  <advance width="1228"/>
  <unicode hex="03A0"/>
  <outline>
    <contour>
      <point x="1028.0" y="61.0" type="curve" smooth="yes"/>
      <point x="1028.0" y="125.0"/>
      <point x="979.0" y="125.0"/>
      <point x="946.0" y="125.0" type="curve" smooth="yes"/>
      <point x="917.58" y="125.0" type="line" smooth="yes"/>
      <point x="906.6726" y="125.0"/>
      <point x="897.0" y="134.6726"/>
      <point x="897.0" y="145.57999999999998" type="curve" smooth="yes"/>
      <point x="897.0" y="1105.42" type="line" smooth="yes"/>
      <point x="897.0" y="1116.3274000000001"/>
      <point x="906.6726" y="1126.0"/>
      <point x="917.58" y="1126.0" type="curve" smooth="yes"/>
      <point x="946.0" y="1126.0" type="line" smooth="yes"/>
      <point x="979.0" y="1126.0"/>
      <point x="1028.0" y="1126.0"/>
      <point x="1028.0" y="1188.0" type="curve" smooth="yes"/>
      <point x="1028.0" y="1251.0"/>
      <point x="979.0" y="1251.0"/>
      <point x="946.0" y="1251.0" type="curve" smooth="yes"/>
      <point x="127.0" y="1251.0" type="line" smooth="yes"/>
      <point x="94.0" y="1251.0"/>
      <point x="45.0" y="1251.0"/>
      <point x="45.0" y="1188.0" type="curve" smooth="yes"/>
      <point x="45.0" y="1126.0"/>
      <point x="98.0" y="1126.0"/>
      <point x="127.0" y="1126.0" type="curve" smooth="yes"/>
      <point x="157.74" y="1126.0" type="line" smooth="yes"/>
      <point x="169.5378" y="1126.0"/>
      <point x="180.0" y="1115.5378"/>
      <point x="180.0" y="1103.74" type="curve" smooth="yes"/>
      <point x="180.0" y="147.26" type="line" smooth="yes"/>
      <point x="180.0" y="135.4622"/>
      <point x="169.5378" y="125.0"/>
      <point x="157.74" y="125.0" type="curve" smooth="yes"/>
      <point x="127.0" y="125.0" type="line" smooth="yes"/>
      <point x="94.0" y="125.0"/>
      <point x="45.0" y="125.0"/>
      <point x="45.0" y="61.0" type="curve" smooth="yes"/>
      <point x="45.0" y="0.0"/>
      <point x="98.0" y="0.0"/>
      <point x="127.0" y="0.0" type="curve" smooth="yes"/>
      <point x="373.0" y="0.0" type="line" smooth="yes"/>
      <point x="401.0" y="0.0"/>
      <point x="455.0" y="0.0"/>
      <point x="455.0" y="61.0" type="curve" smooth="yes"/>
      <point x="455.0" y="125.0"/>
      <point x="406.0" y="125.0"/>
      <point x="373.0" y="125.0" type="curve" smooth="yes"/>
      <point x="341.68" y="125.0" type="line" smooth="yes"/>
      <point x="329.6596" y="125.0"/>
      <point x="319.0" y="135.6596"/>
      <point x="319.0" y="147.68" type="curve" smooth="yes"/>
      <point x="319.0" y="1078.0" type="line" smooth="yes"/>
      <point x="319.0" y="1103.44"/>
      <point x="341.56" y="1126.0"/>
      <point x="367.0" y="1126.0" type="curve" smooth="yes"/>
      <point x="706.0" y="1126.0" type="line" smooth="yes"/>
      <point x="731.44" y="1126.0"/>
      <point x="754.0" y="1103.44"/>
      <point x="754.0" y="1078.0" type="curve" smooth="yes"/>
      <point x="754.0" y="145.57999999999998" type="line" smooth="yes"/>
      <point x="754.0" y="134.6726"/>
      <point x="744.3274" y="125.0"/>
      <point x="733.42" y="125.0" type="curve" smooth="yes"/>
      <point x="705.0" y="125.0" type="line" smooth="yes"/>
      <point x="672.0" y="125.0"/>
      <point x="623.0" y="125.0"/>
      <point x="623.0" y="63.0" type="curve" smooth="yes"/>
      <point x="623.0" y="0.0"/>
      <point x="672.0" y="0.0"/>
      <point x="705.0" y="0.0" type="curve" smooth="yes"/>
      <point x="946.0" y="0.0" type="line" smooth="yes"/>
      <point x="979.0" y="0.0"/>
      <point x="1028.0" y="0.0"/>
    </contour>
  </outline>
</glyph>
<glyph name="Rho" format="2">
  <advance width="1228"/>
  <unicode hex="03A1"/>
  <outline>
    <contour>
      <point x="1004.0" y="877.0" type="curve" smooth="yes"/>
      <point x="1004.0" y="1067.0"/>
      <point x="852.0" y="1251.0"/>
      <point x="614.0" y="1251.0" type="curve" smooth="yes"/>
      <point x="156.0" y="1251.0" type="line" smooth="yes"/>
      <point x="127.0" y="1251.0"/>
      <point x="74.0" y="1251.0"/>
      <point x="74.0" y="1190.0" type="curve" smooth="yes"/>
      <point x="74.0" y="1126.0"/>
      <point x="127.0" y="1126.0"/>
      <point x="156.0" y="1126.0" type="curve" smooth="yes"/>
      <point x="191.38" y="1126.0" type="line" smooth="yes"/>
      <point x="204.9586" y="1126.0"/>
      <point x="217.0" y="1113.9586000000002"/>
      <point x="217.0" y="1100.38" type="curve" smooth="yes"/>
      <point x="217.0" y="150.62" type="line" smooth="yes"/>
      <point x="217.0" y="137.0414"/>
      <point x="204.9586" y="125.0"/>
      <point x="191.38" y="125.0" type="curve" smooth="yes"/>
      <point x="156.0" y="125.0" type="line" smooth="yes"/>
      <point x="123.0" y="125.0"/>
      <point x="74.0" y="125.0"/>
      <point x="74.0" y="61.0" type="curve" smooth="yes"/>
      <point x="74.0" y="0.0"/>
      <point x="127.0" y="0.0"/>
      <point x="156.0" y="0.0" type="curve" smooth="yes"/>
      <point x="422.0" y="0.0" type="line" smooth="yes"/>
      <point x="451.0" y="0.0"/>
      <point x="504.0" y="0.0"/>
      <point x="504.0" y="61.0" type="curve" smooth="yes"/>
      <point x="504.0" y="125.0"/>
      <point x="451.0" y="125.0"/>
      <point x="422.0" y="125.0" type="curve" smooth="yes"/>
      <point x="386.04" y="125.0" type="line" smooth="yes"/>
      <point x="372.2388" y="125.0"/>
      <point x="360.0" y="137.2388"/>
      <point x="360.0" y="151.04" type="curve" smooth="yes"/>
      <point x="360.0" y="454.0" type="line" smooth="yes"/>
      <point x="360.0" y="479.44"/>
      <point x="382.56" y="502.0"/>
      <point x="408.0" y="502.0" type="curve" smooth="yes"/>
      <point x="614.0" y="502.0" type="line" smooth="yes"/>
      <point x="852.0" y="502.0"/>
      <point x="1004.0" y="686.0"/>
    </contour>
    <contour>
      <point x="860.0" y="877.0" type="curve" smooth="yes"/>
      <point x="860.0" y="768.0"/>
      <point x="774.0" y="627.0"/>
      <point x="578.0" y="627.0" type="curve" smooth="yes"/>
      <point x="408.0" y="627.0" type="line" smooth="yes"/>
      <point x="382.56" y="627.0"/>
      <point x="360.0" y="649.56"/>
      <point x="360.0" y="675.0" type="curve" smooth="yes"/>
      <point x="360.0" y="1078.0" type="line" smooth="yes"/>
      <point x="360.0" y="1103.44"/>
      <point x="382.56" y="1126.0"/>
      <point x="408.0" y="1126.0" type="curve" smooth="yes"/>
      <point x="578.0" y="1126.0" type="line" smooth="yes"/>
      <point x="774.0" y="1126.0"/>
      <point x="860.0" y="985.0"/>
    </contour>
  </outline>
</glyph>
<glyph name="Sigma" format="2">
  <advance width="1228"/>
  <unicode hex="03A3"/>
  <outline>
    <contour>
      <point x="993.0" y="84.0" type="curve" smooth="yes"/>
      <point x="993.0" y="238.0" type="line" smooth="yes"/>
      <point x="993.0" y="276.0"/>
      <point x="993.0" y="322.0"/>
      <point x="924.0" y="322.0" type="curve" smooth="yes"/>
      <point x="852.0" y="322.0"/>
      <point x="852.0" y="279.0"/>
      <point x="852.0" y="238.0" type="curve" smooth="yes"/>
      <point x="852.0" y="174.78" type="line" smooth="yes"/>
      <point x="852.0" y="150.5166"/>
      <point x="830.4834" y="129.0"/>
      <point x="806.22" y="129.0" type="curve" smooth="yes"/>
      <point x="329.0" y="129.0" type="line" smooth="yes"/>
      <point x="303.56" y="129.0"/>
      <point x="291.79746114215754" y="148.8082920233825"/>
      <point x="303.97332157905856" y="171.14530217740958" type="curve" smooth="yes"/>
      <point x="536.0266784209415" y="596.8546978225904" type="line" smooth="yes"/>
      <point x="548.2025388578425" y="619.1917079766175"/>
      <point x="547.5459325628246" y="658.4359959648236"/>
      <point x="534.6296437506908" y="680.35318290388" type="curve" smooth="yes"/>
      <point x="296.37035624930917" y="1084.64681709612" type="line" smooth="yes"/>
      <point x="283.4540674371753" y="1106.5640040351764"/>
      <point x="294.56" y="1126.0"/>
      <point x="320.0" y="1126.0" type="curve" smooth="yes"/>
      <point x="806.64" y="1126.0" type="line" smooth="yes"/>
      <point x="830.6808" y="1126.0"/>
      <point x="852.0" y="1104.6808"/>
      <point x="852.0" y="1080.64" type="curve" smooth="yes"/>
      <point x="852.0" y="1018.0" type="line" smooth="yes"/>
      <point x="852.0" y="979.0"/>
      <point x="852.0" y="934.0"/>
      <point x="922.0" y="934.0" type="curve" smooth="yes"/>
      <point x="993.0" y="934.0"/>
      <point x="993.0" y="977.0"/>
      <point x="993.0" y="1018.0" type="curve" smooth="yes"/>
      <point x="993.0" y="1167.0" type="line" smooth="yes"/>
      <point x="993.0" y="1231.0"/>
      <point x="981.0" y="1251.0"/>
      <point x="911.0" y="1251.0" type="curve" smooth="yes"/>
      <point x="168.0" y="1251.0" type="line" smooth="yes"/>
      <point x="135.0" y="1251.0"/>
      <point x="84.0" y="1251.0"/>
      <point x="84.0" y="1214.46" type="curve" smooth="yes"/>
      <point x="84.0" y="1200.4362"/>
      <point x="90.1742125219156" y="1177.2047153731723"/>
      <point x="97.13662238705449" y="1165.031309304622" type="curve" smooth="yes"/>
      <point x="382.1693924951392" y="666.6665590845857" type="line" smooth="yes"/>
      <point x="394.79961447271546" y="644.5832827697553"/>
      <point x="394.87414935254145" y="605.3742758765327"/>
      <point x="382.32797734583283" y="583.2431401628355" type="curve" smooth="yes"/>
      <point x="99.21103028249223" y="83.83187950452046" type="line" smooth="yes"/>
      <point x="91.14918423277135" y="69.61098336712462"/>
      <point x="82.4208" y="42.5898"/>
      <point x="80.64" y="26.34" type="curve" smooth="yes"/>
      <point x="76.0" y="-16.0"/>
      <point x="137.0" y="-10.0"/>
      <point x="168.0" y="0.0" type="curve"/>
      <point x="911.0" y="0.0" type="line" smooth="yes"/>
      <point x="979.0" y="0.0"/>
      <point x="993.0" y="18.0"/>
    </contour>
  </outline>
</glyph>
<glyph name="uni0425" format="2">
  <advance width="1228"/>
  <unicode hex="0425"/>
  <outline>
    <contour>
      <point x="495.8964534154708" y="657.9126029631943" type="line" smooth="yes"/>
      <point x="510.7913331052713" y="637.2889233927013"/>
      <point x="510.7871866101943" y="600.7140720135353"/>
      <point x="495.88763108551973" y="580.0937702415646" type="curve" smooth="yes"/>
      <point x="190.25096013610553" y="157.1066296439512" type="line" smooth="yes"/>
      <point x="182.1679512639696" y="145.92011593265707"/>
      <point x="162.7612" y="136.0"/>
      <point x="148.96" y="136.0" type="curve" smooth="yes"/>
      <point x="113.0" y="136.0" type="line" smooth="yes"/>
      <point x="90.33329772949219" y="136.0"/>
      <point x="74.16670227050781" y="131.0"/>
      <point x="64.5" y="121.0" type="curve" smooth="yes"/>
      <point x="54.83330154418945" y="111.0"/>
      <point x="50.0" y="93.33329772949219"/>
      <point x="50.0" y="68.0" type="curve" smooth="yes"/>
      <point x="50.0" y="42.66669845581055"/>
      <point x="54.83330154418945" y="25.0"/>
      <point x="64.5" y="15.0" type="curve" smooth="yes"/>
      <point x="74.16670227050781" y="5.0"/>
      <point x="90.33329772949219" y="0.0"/>
      <point x="113.0" y="0.0" type="curve" smooth="yes"/>
      <point x="437.0" y="0.0" type="line" smooth="yes"/>
      <point x="459.6669921875" y="0.0"/>
      <point x="475.8330078125" y="5.0"/>
      <point x="485.5" y="15.0" type="curve" smooth="yes"/>
      <point x="495.1669921875" y="25.0"/>
      <point x="500.0" y="42.66669845581055"/>
      <point x="500.0" y="68.0" type="curve" smooth="yes"/>
      <point x="500.0" y="93.33329772949219"/>
      <point x="495.1669921875" y="111.0"/>
      <point x="485.5" y="121.0" type="curve" smooth="yes"/>
      <point x="475.8330078125" y="131.0"/>
      <point x="459.6669921875" y="136.0"/>
      <point x="437.0" y="136.0" type="curve" smooth="yes"/>
      <point x="388.86" y="136.0" type="line" smooth="yes"/>
      <point x="370.3842" y="136.0"/>
      <point x="363.5300294990348" y="149.32743588945476"/>
      <point x="374.27665850858466" y="164.356246573308" type="curve" smooth="yes"/>
      <point x="587.0803325183" y="461.95525428804405" type="line" smooth="yes"/>
      <point x="601.877756283601" y="482.6489695153807"/>
      <point x="627.9203023791522" y="482.5062338494488"/>
      <point x="642.490005062026" y="461.65156138180595" type="curve" smooth="yes"/>
      <point x="843.7814076720928" y="173.52857333210258" type="line" smooth="yes"/>
      <point x="857.6772616058836" y="153.6384294660882"/>
      <point x="848.4834" y="136.0"/>
      <point x="824.22" y="136.0" type="curve" smooth="yes"/>
      <point x="761.0" y="136.0" type="line" smooth="yes"/>
      <point x="738.3330078125" y="136.0"/>
      <point x="722.1669921875" y="131.0"/>
      <point x="712.5" y="121.0" type="curve" smooth="yes"/>
      <point x="702.8330078125" y="111.0"/>
      <point x="698.0" y="93.33329772949219"/>
      <point x="698.0" y="68.0" type="curve" smooth="yes"/>
      <point x="698.0" y="42.66669845581055"/>
      <point x="702.8330078125" y="25.0"/>
      <point x="712.5" y="15.0" type="curve" smooth="yes"/>
      <point x="722.1669921875" y="5.0"/>
      <point x="738.3330078125" y="0.0"/>
      <point x="761.0" y="0.0" type="curve" smooth="yes"/>
      <point x="1115.0" y="0.0" type="line" smooth="yes"/>
      <point x="1137.6700439453125" y="0.0"/>
      <point x="1153.8299560546875" y="5.0"/>
      <point x="1163.5" y="15.0" type="curve" smooth="yes"/>
      <point x="1173.1700439453125" y="25.0"/>
      <point x="1178.0" y="42.66669845581055"/>
      <point x="1178.0" y="68.0" type="curve" smooth="yes"/>
      <point x="1178.0" y="93.33329772949219"/>
      <point x="1173.1700439453125" y="111.0"/>
      <point x="1163.5" y="121.0" type="curve" smooth="yes"/>
      <point x="1153.8299560546875" y="131.0"/>
      <point x="1137.6700439453125" y="136.0"/>
      <point x="1115.0" y="136.0" type="curve" smooth="yes"/>
      <point x="1081.36" y="136.0" type="line" smooth="yes"/>
      <point x="1068.4492" y="136.0"/>
      <point x="1050.3142512563677" y="145.29435013204366"/>
      <point x="1042.7750026731228" y="155.7752130469014" type="curve" smooth="yes"/>
      <point x="739.0295513830091" y="578.0340629617706" type="line" smooth="yes"/>
      <point x="724.1738891500142" y="598.6860095920322"/>
      <point x="724.0846789397691" y="635.3778338506789"/>
      <point x="738.8397424250408" y="656.1017741503808" type="curve" smooth="yes"/>
      <point x="1004.1661464957581" y="1028.760865951971" type="line" smooth="yes"/>
      <point x="1012.5580888530063" y="1040.5476069974263"/>
      <point x="1032.831" y="1051.0"/>
      <point x="1047.3" y="1051.0" type="curve" smooth="yes"/>
      <point x="1085.0" y="1051.0" type="line" smooth="yes"/>
      <point x="1107.6700439453125" y="1051.0"/>
      <point x="1123.8299560546875" y="1056.0"/>
      <point x="1133.5" y="1066.0" type="curve" smooth="yes"/>
      <point x="1143.1700439453125" y="1076.0"/>
      <point x="1148.0" y="1093.6700439453125"/>
      <point x="1148.0" y="1119.0" type="curve" smooth="yes"/>
      <point x="1148.0" y="1144.3299560546875"/>
      <point x="1143.1700439453125" y="1162.0"/>
      <point x="1133.5" y="1172.0" type="curve" smooth="yes"/>
      <point x="1123.8299560546875" y="1182.0"/>
      <point x="1107.6700439453125" y="1187.0"/>
      <point x="1085.0" y="1187.0" type="curve" smooth="yes"/>
      <point x="781.0" y="1187.0" type="line" smooth="yes"/>
      <point x="758.3330078125" y="1187.0"/>
      <point x="742.1669921875" y="1182.0"/>
      <point x="732.5" y="1172.0" type="curve" smooth="yes"/>
      <point x="722.8330078125" y="1162.0"/>
      <point x="718.0" y="1144.3299560546875"/>
      <point x="718.0" y="1119.0" type="curve" smooth="yes"/>
      <point x="718.0" y="1093.6700439453125"/>
      <point x="722.8330078125" y="1076.0"/>
      <point x="732.5" y="1066.0" type="curve" smooth="yes"/>
      <point x="742.1669921875" y="1056.0"/>
      <point x="758.3330078125" y="1051.0"/>
      <point x="781.0" y="1051.0" type="curve" smooth="yes"/>
      <point x="815.8" y="1051.0" type="line" smooth="yes"/>
      <point x="829.156" y="1051.0"/>
      <point x="834.1914551319717" y="1041.308557755419"/>
      <point x="826.513734323344" y="1030.3799101179131" type="curve" smooth="yes"/>
      <point x="646.5928870031541" y="774.2763616801655" type="line" smooth="yes"/>
      <point x="631.9686568914824" y="753.4598899896778"/>
      <point x="606.0705436088832" y="753.4873675094701"/>
      <point x="591.4905183167729" y="774.3348244882343" type="curve" smooth="yes"/>
      <point x="419.4230088608131" y="1020.3680054297876" type="line" smooth="yes"/>
      <point x="408.0688141645822" y="1036.6029625520002"/>
      <point x="415.5686" y="1051.0"/>
      <point x="435.38" y="1051.0" type="curve" smooth="yes"/>
      <point x="487.0" y="1051.0" type="line" smooth="yes"/>
      <point x="509.6669921875" y="1051.0"/>
      <point x="525.8330078125" y="1056.0"/>
      <point x="535.5" y="1066.0" type="curve" smooth="yes"/>
      <point x="545.1669921875" y="1076.0"/>
      <point x="550.0" y="1093.6700439453125"/>
      <point x="550.0" y="1119.0" type="curve" smooth="yes"/>
      <point x="550.0" y="1144.3299560546875"/>
      <point x="545.1669921875" y="1162.0"/>
      <point x="535.5" y="1172.0" type="curve" smooth="yes"/>
      <point x="525.8330078125" y="1182.0"/>
      <point x="509.6669921875" y="1187.0"/>
      <point x="487.0" y="1187.0" type="curve" smooth="yes"/>
      <point x="143.0" y="1187.0" type="line" smooth="yes"/>
      <point x="120.33300018310547" y="1187.0"/>
      <point x="104.16699981689453" y="1182.0"/>
      <point x="94.5" y="1172.0" type="curve" smooth="yes"/>
      <point x="84.83329772949219" y="1162.0"/>
      <point x="80.0" y="1144.3299560546875"/>
      <point x="80.0" y="1119.0" type="curve" smooth="yes"/>
      <point x="80.0" y="1093.6700439453125"/>
      <point x="84.83329772949219" y="1076.0"/>
      <point x="94.5" y="1066.0" type="curve" smooth="yes"/>
      <point x="104.16699981689453" y="1056.0"/>
      <point x="120.33300018310547" y="1051.0"/>
      <point x="143.0" y="1051.0" type="curve" smooth="yes"/>
      <point x="183.02" y="1051.0" type="line" smooth="yes"/>
      <point x="198.3794" y="1051.0"/>
      <point x="219.97473263769248" y="1039.9580625016565"/>
      <point x="228.96751625040952" y="1027.5065159609715" type="curve" smooth="yes"/>
    </contour>
  </outline>
</glyph>
<glyph name="uni0465" format="2">
  <advance width="1228"/>
  <unicode hex="0465"/>
  <outline>
    <contour>
      <point x="4.0" y="63.0" type="curve" smooth="yes"/>
      <point x="4.0" y="12.0"/>
      <point x="39.0" y="0.0"/>
      <point x="80.0" y="0.0" type="curve" smooth="yes"/>
      <point x="350.0" y="0.0" type="line" smooth="yes"/>
      <point x="383.0" y="0.0"/>
      <point x="426.0" y="6.0"/>
      <point x="426.0" y="63.0" type="curve" smooth="yes"/>
      <point x="426.0" y="117.0"/>
      <point x="387.0" y="127.0"/>
      <point x="348.0" y="127.0" type="curve" smooth="yes"/>
      <point x="312.62" y="127.0" type="line" smooth="yes"/>
      <point x="299.0414" y="127.0"/>
      <point x="287.0" y="139.0414"/>
      <point x="287.0" y="152.62" type="curve" smooth="yes"/>
      <point x="287.0" y="378.64" type="line" smooth="yes"/>
      <point x="287.0" y="402.6808"/>
      <point x="308.3192" y="424.0"/>
      <point x="332.36" y="424.0" type="curve" smooth="yes"/>
      <point x="349.64" y="424.0" type="line" smooth="yes"/>
      <point x="373.6808" y="424.0"/>
      <point x="395.6873585952784" y="402.69188354636907"/>
      <point x="396.46246509633704" y="378.6635820135512" type="curve" smooth="yes"/>
      <point x="403.0" y="176.0"/>
      <point x="549.0" y="-10.0"/>
      <point x="731.0" y="-10.0" type="curve" smooth="yes"/>
      <point x="926.0" y="-10.0"/>
      <point x="987.0" y="174.0"/>
      <point x="987.0" y="221.0" type="curve" smooth="yes"/>
      <point x="987.0" y="270.0"/>
      <point x="952.0" y="281.0"/>
      <point x="915.0" y="281.0" type="curve" smooth="yes"/>
      <point x="911.0" y="281.0" type="line" smooth="yes"/>
      <point x="881.0" y="281.0"/>
      <point x="862.0" y="268.0"/>
      <point x="852.0" y="248.0" type="curve" smooth="yes"/>
      <point x="840.0" y="225.0"/>
      <point x="827.0" y="117.0"/>
      <point x="739.0" y="117.0" type="curve" smooth="yes"/>
      <point x="700.0" y="117.0"/>
      <point x="559.0" y="154.0"/>
      <point x="542.545840904735" y="376.131147786078" type="curve" smooth="yes"/>
      <point x="540.6665452252255" y="401.50163945945667"/>
      <point x="561.56" y="424.0"/>
      <point x="587.0" y="424.0" type="curve" smooth="yes"/>
      <point x="700.0" y="424.0" type="line" smooth="yes"/>
      <point x="764.0" y="424.0"/>
      <point x="774.0" y="461.0"/>
      <point x="774.0" y="483.0" type="curve" smooth="yes"/>
      <point x="774.0" y="506.0"/>
      <point x="766.0" y="547.0"/>
      <point x="705.0" y="547.0" type="curve" smooth="yes"/>
      <point x="597.0" y="547.0" type="line" smooth="yes"/>
      <point x="571.56" y="547.0"/>
      <point x="553.6719511848406" y="569.0709418042471"/>
      <point x="558.9403216698737" y="593.9594506473344" type="curve" smooth="yes"/>
      <point x="578.0" y="684.0"/>
      <point x="657.0" y="772.0"/>
      <point x="731.0" y="772.0" type="curve" smooth="yes"/>
      <point x="819.0" y="772.0"/>
      <point x="848.0" y="635.0"/>
      <point x="854.0" y="623.0" type="curve"/>
      <point x="866.0" y="604.0"/>
      <point x="893.0" y="594.0"/>
      <point x="918.0" y="594.0" type="curve" smooth="yes"/>
      <point x="977.0" y="594.0"/>
      <point x="989.0" y="631.0"/>
      <point x="989.0" y="674.0" type="curve" smooth="yes"/>
      <point x="989.0" y="825.0" type="line" smooth="yes"/>
      <point x="987.0" y="881.0"/>
      <point x="952.0" y="893.0"/>
      <point x="926.0" y="893.0" type="curve" smooth="yes"/>
      <point x="897.0" y="893.0"/>
      <point x="879.0" y="874.0"/>
      <point x="869.14" y="864.72" type="curve" smooth="yes"/>
      <point x="865.3558" y="861.1584"/>
      <point x="858.1487771533601" y="860.5308035849348"/>
      <point x="853.8059088369364" y="863.3846884785846" type="curve" smooth="yes"/>
      <point x="827.0" y="881.0"/>
      <point x="784.0" y="899.0"/>
      <point x="729.0" y="899.0" type="curve" smooth="yes"/>
      <point x="600.0" y="899.0"/>
      <point x="449.0" y="791.0"/>
      <point x="411.89253297276827" y="594.1690879425098" type="curve" smooth="yes"/>
      <point x="407.1794904972011" y="569.1694713329796"/>
      <point x="380.44" y="547.0"/>
      <point x="355.0" y="547.0" type="curve" smooth="yes"/>
      <point x="335.0" y="547.0" type="line" smooth="yes"/>
      <point x="309.56" y="547.0"/>
      <point x="287.0" y="569.56"/>
      <point x="287.0" y="595.0" type="curve" smooth="yes"/>
      <point x="287.0" y="727.86" type="line" smooth="yes"/>
      <point x="287.0" y="742.7742000000001"/>
      <point x="300.2258" y="756.0"/>
      <point x="315.14" y="756.0" type="curve" smooth="yes"/>
      <point x="354.0" y="756.0" type="line" smooth="yes"/>
      <point x="373.0" y="756.0"/>
      <point x="426.0" y="760.0"/>
      <point x="426.0" y="819.0" type="curve" smooth="yes"/>
      <point x="426.0" y="868.0"/>
      <point x="389.0" y="881.0"/>
      <point x="350.0" y="881.0" type="curve" smooth="yes"/>
      <point x="80.0" y="881.0" type="line" smooth="yes"/>
      <point x="47.0" y="881.0"/>
      <point x="4.0" y="874.0"/>
      <point x="4.0" y="817.0" type="curve" smooth="yes"/>
      <point x="4.0" y="766.0"/>
      <point x="41.0" y="756.0"/>
      <point x="82.0" y="756.0" type="curve" smooth="yes"/>
      <point x="117.38" y="756.0" type="line" smooth="yes"/>
      <point x="130.9586" y="756.0"/>
      <point x="143.0" y="743.9586"/>
      <point x="143.0" y="730.38" type="curve" smooth="yes"/>
      <point x="143.0" y="155.14" type="line" smooth="yes"/>
      <point x="143.0" y="140.2258"/>
      <point x="129.7742" y="127.0"/>
      <point x="114.86" y="127.0" type="curve" smooth="yes"/>
      <point x="76.0" y="127.0" type="line" smooth="yes"/>
      <point x="55.0" y="127.0"/>
      <point x="4.0" y="123.0"/>
    </contour>
  </outline>
</glyph>
<glyph name="uni04A4" format="2">
  <advance width="1228"/>
  <unicode hex="04A4"/>
  <outline>
    <contour>
      <point x="23.0" y="63.0" type="curve" smooth="yes"/>
      <point x="23.0" y="6.0"/>
      <point x="68.0" y="0.0"/>
      <point x="94.0" y="0.0" type="curve" smooth="yes"/>
      <point x="297.0" y="0.0" type="line" smooth="yes"/>
      <point x="362.0" y="0.0"/>
      <point x="371.0" y="41.0"/>
      <point x="371.0" y="61.0" type="curve" smooth="yes"/>
      <point x="371.0" y="92.0"/>
      <point x="356.0" y="127.0"/>
      <point x="299.0" y="127.0" type="curve" smooth="yes"/>
      <point x="281.02" y="127.0" type="line" smooth="yes"/>
      <point x="274.1194" y="127.0"/>
      <point x="268.0" y="133.1194"/>
      <point x="268.0" y="140.02" type="curve" smooth="yes"/>
      <point x="268.0" y="540.0" type="line" smooth="yes"/>
      <point x="268.0" y="565.44"/>
      <point x="290.56" y="588.0"/>
      <point x="316.0" y="588.0" type="curve" smooth="yes"/>
      <point x="534.0" y="588.0" type="line" smooth="yes"/>
      <point x="559.44" y="588.0"/>
      <point x="582.0" y="565.44"/>
      <point x="582.0" y="540.0" type="curve" smooth="yes"/>
      <point x="582.0" y="139.18" type="line" smooth="yes"/>
      <point x="582.0" y="132.7246"/>
      <point x="576.2754" y="127.0"/>
      <point x="569.82" y="127.0" type="curve" smooth="yes"/>
      <point x="553.0" y="127.0" type="line" smooth="yes"/>
      <point x="489.0" y="127.0"/>
      <point x="481.0" y="86.0"/>
      <point x="481.0" y="66.0" type="curve" smooth="yes"/>
      <point x="481.0" y="63.0" type="line" smooth="yes"/>
      <point x="481.0" y="33.0"/>
      <point x="494.0" y="0.0"/>
      <point x="551.0" y="0.0" type="curve" smooth="yes"/>
      <point x="756.0" y="0.0" type="line" smooth="yes"/>
      <point x="811.0" y="0.0"/>
      <point x="827.0" y="31.0"/>
      <point x="827.0" y="63.0" type="curve" smooth="yes"/>
      <point x="827.0" y="84.0"/>
      <point x="819.0" y="127.0"/>
      <point x="756.0" y="127.0" type="curve" smooth="yes"/>
      <point x="738.02" y="127.0" type="line" smooth="yes"/>
      <point x="731.1194" y="127.0"/>
      <point x="725.0" y="133.1194"/>
      <point x="725.0" y="140.02" type="curve" smooth="yes"/>
      <point x="725.0" y="1076.0" type="line" smooth="yes"/>
      <point x="725.0" y="1101.44"/>
      <point x="747.56" y="1124.0"/>
      <point x="773.0" y="1124.0" type="curve" smooth="yes"/>
      <point x="841.0" y="1124.0" type="line" smooth="yes"/>
      <point x="866.44" y="1124.0"/>
      <point x="889.0" y="1101.44"/>
      <point x="889.0" y="1076.0" type="curve" smooth="yes"/>
      <point x="889.0" y="1006.0" type="line" smooth="yes"/>
      <point x="889.0" y="965.0"/>
      <point x="901.0" y="932.0"/>
      <point x="956.0" y="932.0" type="curve" smooth="yes"/>
      <point x="967.0" y="932.0" type="line" smooth="yes"/>
      <point x="1024.0" y="932.0"/>
      <point x="1034.0" y="973.0"/>
      <point x="1032.0" y="1020.0" type="curve" smooth="yes"/>
      <point x="1032.0" y="1165.0" type="line" smooth="yes"/>
      <point x="1032.0" y="1166.4498291015625"/>
      <point x="1032.0087890625" y="1167.9521484375"/>
      <point x="1032.0177001953125" y="1169.498779296875" type="curve" smooth="yes"/>
      <point x="1032.2012939453125" y="1201.024169921875"/>
      <point x="1032.492431640625" y="1251.0"/>
      <point x="961.0" y="1251.0" type="curve" smooth="yes"/>
      <point x="555.0" y="1251.0" type="line" smooth="yes"/>
      <point x="496.0" y="1251.0"/>
      <point x="481.0" y="1219.0"/>
      <point x="481.0" y="1188.0" type="curve" smooth="yes"/>
      <point x="481.0" y="1165.0"/>
      <point x="489.0" y="1124.0"/>
      <point x="553.0" y="1124.0" type="curve" smooth="yes"/>
      <point x="569.82" y="1124.0" type="line" smooth="yes"/>
      <point x="576.2754" y="1124.0"/>
      <point x="582.0" y="1118.2754"/>
      <point x="582.0" y="1111.82" type="curve" smooth="yes"/>
      <point x="582.0" y="761.0" type="line" smooth="yes"/>
      <point x="582.0" y="735.56"/>
      <point x="559.44" y="713.0"/>
      <point x="534.0" y="713.0" type="curve" smooth="yes"/>
      <point x="316.0" y="713.0" type="line" smooth="yes"/>
      <point x="290.56" y="713.0"/>
      <point x="268.0" y="735.56"/>
      <point x="268.0" y="761.0" type="curve" smooth="yes"/>
      <point x="268.0" y="1111.82" type="line" smooth="yes"/>
      <point x="268.0" y="1118.2754"/>
      <point x="273.7246" y="1124.0"/>
      <point x="280.18" y="1124.0" type="curve" smooth="yes"/>
      <point x="297.0" y="1124.0" type="line" smooth="yes"/>
      <point x="360.0" y="1124.0"/>
      <point x="371.0" y="1165.0"/>
      <point x="371.0" y="1186.0" type="curve" smooth="yes"/>
      <point x="371.0" y="1188.0" type="line" smooth="yes"/>
      <point x="371.0" y="1217.0"/>
      <point x="356.0" y="1251.0"/>
      <point x="299.0" y="1251.0" type="curve" smooth="yes"/>
      <point x="96.0" y="1251.0" type="line" smooth="yes"/>
      <point x="35.0" y="1251.0"/>
      <point x="23.0" y="1212.0"/>
      <point x="23.0" y="1190.0" type="curve" smooth="yes"/>
      <point x="23.0" y="1130.0"/>
      <point x="68.0" y="1124.0"/>
      <point x="94.0" y="1124.0" type="curve" smooth="yes"/>
      <point x="111.98" y="1124.0" type="line" smooth="yes"/>
      <point x="118.8806" y="1124.0"/>
      <point x="125.0" y="1117.8806"/>
      <point x="125.0" y="1110.98" type="curve" smooth="yes"/>
      <point x="125.0" y="139.18" type="line" smooth="yes"/>
      <point x="125.0" y="132.7246"/>
      <point x="119.27539999999999" y="127.0"/>
      <point x="112.82" y="127.0" type="curve" smooth="yes"/>
      <point x="96.0" y="127.0" type="line" smooth="yes"/>
      <point x="35.0" y="127.0"/>
      <point x="23.0" y="88.0"/>
    </contour>
  </outline>
</glyph>
<glyph name="uni04A8" format="2">
  <advance width="1228"/>
  <unicode hex="04A8"/>
  <outline>
    <contour>
      <point x="115.0" y="567.0" type="line" smooth="yes"/>
      <point x="115.0" y="70.0"/>
      <point x="188.0" y="-23.0"/>
      <point x="504.0" y="-23.0" type="curve" smooth="yes"/>
      <point x="512.0" y="-23.0" type="line"/>
      <point x="567.0" y="-184.0"/>
      <point x="723.0" y="-215.0"/>
      <point x="950.0" y="-215.0" type="curve" smooth="yes"/>
      <point x="963.0" y="-215.0" type="line" smooth="yes"/>
      <point x="1024.0" y="-215.0"/>
      <point x="1034.0" y="-176.0"/>
      <point x="1034.0" y="-152.0" type="curve" smooth="yes"/>
      <point x="1034.0" y="-20.0"/>
      <point x="786.0" y="-152.0"/>
      <point x="694.6010986512008" y="-53.23021951016867" type="curve" smooth="yes"/>
      <point x="677.3225163660644" y="-34.558203169779276"/>
      <point x="684.49926002655" y="-16.34564264510662"/>
      <point x="709.8707660139362" y="-14.480090734269401" type="curve" smooth="yes"/>
      <point x="934.0" y="2.0"/>
      <point x="958.0" y="186.0"/>
      <point x="958.0" y="586.0" type="curve" smooth="yes"/>
      <point x="958.0" y="639.0" type="line" smooth="yes"/>
      <point x="958.0" y="854.0"/>
      <point x="924.0" y="918.0"/>
      <point x="725.0" y="918.0" type="curve" smooth="yes"/>
      <point x="471.0" y="918.0"/>
      <point x="475.0" y="782.0"/>
      <point x="467.0" y="514.0" type="curve" smooth="yes"/>
      <point x="467.0" y="406.0" type="line" smooth="yes"/>
      <point x="467.0" y="305.0"/>
      <point x="469.0" y="203.0"/>
      <point x="477.12" y="145.57999999999998" type="curve" smooth="yes"/>
      <point x="480.2364" y="123.5426"/>
      <point x="463.273610919234" y="104.64828508716133"/>
      <point x="441.02895940262556" y="105.37932997268366" type="curve" smooth="yes"/>
      <point x="270.0" y="111.0"/>
      <point x="268.0" y="180.0"/>
      <point x="258.0" y="559.0" type="curve" smooth="yes"/>
      <point x="258.0" y="688.0" type="line" smooth="yes"/>
      <point x="258.0" y="784.0"/>
      <point x="260.0" y="924.0"/>
      <point x="281.0" y="1020.0" type="curve" smooth="yes"/>
      <point x="303.0" y="1126.0"/>
      <point x="342.0" y="1147.0"/>
      <point x="545.0" y="1147.0" type="curve" smooth="yes"/>
      <point x="553.0" y="1147.0" type="line" smooth="yes"/>
      <point x="737.0" y="1147.0"/>
      <point x="727.0" y="1110.0"/>
      <point x="770.0" y="1110.0" type="curve" smooth="yes"/>
      <point x="799.0" y="1110.0"/>
      <point x="844.0" y="1137.0"/>
      <point x="844.0" y="1176.0" type="curve" smooth="yes"/>
      <point x="844.0" y="1247.0"/>
      <point x="715.0" y="1274.0"/>
      <point x="567.0" y="1274.0" type="curve" smooth="yes"/>
      <point x="502.0" y="1274.0" type="line" smooth="yes"/>
      <point x="147.0" y="1274.0"/>
      <point x="115.0" y="1130.0"/>
      <point x="115.0" y="631.0" type="curve" smooth="yes"/>
    </contour>
    <contour>
      <point x="606.0" y="385.0" type="curve" smooth="yes"/>
      <point x="606.0" y="446.0" type="line" smooth="yes"/>
      <point x="606.0" y="575.0"/>
      <point x="608.0" y="655.0"/>
      <point x="616.0" y="707.0" type="curve" smooth="yes"/>
      <point x="623.0" y="756.0"/>
      <point x="623.0" y="793.0"/>
      <point x="719.0" y="793.0" type="curve" smooth="yes"/>
      <point x="731.0" y="793.0"/>
      <point x="743.0" y="793.0"/>
      <point x="760.0" y="791.0" type="curve" smooth="yes"/>
      <point x="809.0" y="786.0"/>
      <point x="819.0" y="782.0"/>
      <point x="819.0" y="631.0" type="curve" smooth="yes"/>
      <point x="819.0" y="571.0" type="line" smooth="yes"/>
      <point x="819.0" y="481.0"/>
      <point x="815.0" y="354.0"/>
      <point x="803.0" y="270.0" type="curve" smooth="yes"/>
      <point x="784.0" y="158.0"/>
      <point x="760.0" y="113.0"/>
      <point x="644.6535079862952" y="105.53152209983206" type="curve" smooth="yes"/>
      <point x="632.1171487535587" y="104.71981538692107"/>
      <point x="619.6182" y="115.0544"/>
      <point x="618.06" y="127.52" type="curve" smooth="yes"/>
      <point x="614.0" y="160.0"/>
      <point x="606.0" y="217.0"/>
    </contour>
  </outline>
</glyph>
<glyph name="uni04BE" format="2">
  <advance width="1228"/>
  <unicode hex="04BE"/>
  <outline>
    <contour>
      <point x="35.0" y="922.0" type="curve" smooth="yes"/>
      <point x="35.0" y="801.0"/>
      <point x="88.0" y="639.0"/>
      <point x="213.18828185728069" y="610.6142849277096" type="curve" smooth="yes"/>
      <point x="237.99849247292192" y="604.9887139160235"/>
      <point x="260.85880562774145" y="577.4563522717871"/>
      <point x="261.8272460164712" y="552.0347920676321" type="curve" smooth="yes"/>
      <point x="272.0" y="285.0"/>
      <point x="395.0" y="66.0"/>
      <point x="547.0655801334505" y="8.87891913768868" type="curve" smooth="yes"/>
      <point x="570.8808226627217" y="-0.06690800528632046"/>
      <point x="574.6036962001521" y="-22.36392056868173"/>
      <point x="554.9865876598981" y="-38.56153312485475" type="curve" smooth="yes"/>
      <point x="483.0" y="-98.0"/>
      <point x="471.0" y="-186.0"/>
      <point x="471.0" y="-229.0" type="curve" smooth="yes"/>
      <point x="471.0" y="-354.0"/>
      <point x="569.0" y="-463.0"/>
      <point x="707.0" y="-463.0" type="curve" smooth="yes"/>
      <point x="825.0" y="-463.0"/>
      <point x="918.0" y="-371.0"/>
      <point x="918.0" y="-315.0" type="curve" smooth="yes"/>
      <point x="918.0" y="-281.0"/>
      <point x="885.0" y="-254.0"/>
      <point x="852.0" y="-254.0" type="curve" smooth="yes"/>
      <point x="793.0" y="-254.0"/>
      <point x="797.0" y="-340.0"/>
      <point x="702.0" y="-340.0" type="curve" smooth="yes"/>
      <point x="639.0" y="-340.0"/>
      <point x="590.0" y="-293.0"/>
      <point x="590.0" y="-231.0" type="curve" smooth="yes"/>
      <point x="590.0" y="-100.0"/>
      <point x="846.0" y="4.0"/>
      <point x="848.0" y="6.0" type="curve"/>
      <point x="993.0" y="59.0"/>
      <point x="1053.0" y="180.0"/>
      <point x="1053.0" y="223.0" type="curve" smooth="yes"/>
      <point x="1053.0" y="246.0"/>
      <point x="1042.0" y="281.0"/>
      <point x="981.0" y="281.0" type="curve" smooth="yes"/>
      <point x="932.0" y="281.0"/>
      <point x="924.0" y="260.0"/>
      <point x="907.0" y="225.0" type="curve" smooth="yes"/>
      <point x="872.0" y="150.0"/>
      <point x="788.0" y="102.0"/>
      <point x="709.0" y="102.0" type="curve" smooth="yes"/>
      <point x="520.0" y="102.0"/>
      <point x="410.0" y="369.0"/>
      <point x="404.5059846861921" y="544.023630711308" type="curve" smooth="yes"/>
      <point x="403.7078128025103" y="569.4511064343147"/>
      <point x="425.56" y="592.0"/>
      <point x="451.0" y="592.0" type="curve" smooth="yes"/>
      <point x="979.0" y="592.0" type="line" smooth="yes"/>
      <point x="1016.0" y="592.0"/>
      <point x="1055.0" y="596.0"/>
      <point x="1055.0" y="668.0" type="curve" smooth="yes"/>
      <point x="1055.0" y="1155.0"/>
      <point x="823.0" y="1274.0"/>
      <point x="668.0" y="1274.0" type="curve" smooth="yes"/>
      <point x="446.0" y="1274.0"/>
      <point x="291.0" y="1016.0"/>
      <point x="266.0933457890046" y="754.941365121789" type="curve" smooth="yes"/>
      <point x="264.98387252083216" y="743.3124416072408"/>
      <point x="255.117" y="738.3298"/>
      <point x="245.1" y="744.34" type="curve" smooth="yes"/>
      <point x="219.0" y="760.0"/>
      <point x="197.0" y="797.0"/>
      <point x="184.0" y="860.0" type="curve"/>
      <point x="190.0" y="864.0"/>
      <point x="217.0" y="889.0"/>
      <point x="217.0" y="930.0" type="curve" smooth="yes"/>
      <point x="217.0" y="979.0"/>
      <point x="180.0" y="1022.0"/>
      <point x="127.0" y="1022.0" type="curve" smooth="yes"/>
      <point x="94.0" y="1022.0"/>
      <point x="35.0" y="1001.0"/>
    </contour>
    <contour>
      <point x="456.0" y="717.0" type="line" smooth="yes"/>
      <point x="430.56" y="717.0"/>
      <point x="409.3899469870409" y="739.5171411900626"/>
      <point x="410.95733401498063" y="764.9088110426865" type="curve" smooth="yes"/>
      <point x="418.0" y="879.0"/>
      <point x="508.0" y="1147.0"/>
      <point x="668.0" y="1147.0" type="curve" smooth="yes"/>
      <point x="764.0" y="1147.0"/>
      <point x="893.0" y="1069.0"/>
      <point x="908.548657494644" y="764.9373645491847" type="curve" smooth="yes"/>
      <point x="909.8478690224827" y="739.5305613381169"/>
      <point x="888.44" y="717.0"/>
      <point x="863.0" y="717.0" type="curve" smooth="yes"/>
    </contour>
  </outline>
</glyph>
<glyph name="uni04BF" format="2">
  <advance width="1228"/>
  <unicode hex="04BF"/>
  <outline>
    <contour>
      <point x="47.0" y="637.0" type="curve" smooth="yes"/>
      <point x="47.0" y="578.0"/>
      <point x="70.0" y="434.0"/>
      <point x="241.7434807629277" y="403.4155445216704" type="curve" smooth="yes"/>
      <point x="266.789435958576" y="398.9553059251851"/>
      <point x="290.66654522522543" y="372.50163945945667"/>
      <point x="292.545840904735" y="347.131147786078" type="curve" smooth="yes"/>
      <point x="301.0" y="233.0"/>
      <point x="399.0" y="72.0"/>
      <point x="524.172873497777" y="23.231347987879072" type="curve" smooth="yes"/>
      <point x="539.4512505439552" y="17.278733554303162"/>
      <point x="542.143" y="2.327399999999999"/>
      <point x="529.9" y="-8.580000000000002" type="curve" smooth="yes"/>
      <point x="498.0" y="-37.0"/>
      <point x="420.0" y="-109.0"/>
      <point x="420.0" y="-223.0" type="curve" smooth="yes"/>
      <point x="420.0" y="-360.0"/>
      <point x="535.0" y="-469.0"/>
      <point x="668.0" y="-469.0" type="curve" smooth="yes"/>
      <point x="807.0" y="-469.0"/>
      <point x="889.0" y="-358.0"/>
      <point x="889.0" y="-315.0" type="curve" smooth="yes"/>
      <point x="889.0" y="-281.0"/>
      <point x="854.0" y="-254.0"/>
      <point x="823.0" y="-254.0" type="curve" smooth="yes"/>
      <point x="764.0" y="-254.0"/>
      <point x="764.0" y="-346.0"/>
      <point x="664.0" y="-346.0" type="curve" smooth="yes"/>
      <point x="588.0" y="-346.0"/>
      <point x="537.0" y="-285.0"/>
      <point x="537.0" y="-223.0" type="curve" smooth="yes"/>
      <point x="537.0" y="-111.0"/>
      <point x="743.0" y="-8.0"/>
      <point x="750.0" y="-6.0" type="curve"/>
      <point x="778.0" y="8.0"/>
      <point x="913.0" y="35.0"/>
      <point x="967.0" y="190.0" type="curve" smooth="yes"/>
      <point x="971.0" y="203.0"/>
      <point x="973.0" y="215.0"/>
      <point x="973.0" y="223.0" type="curve" smooth="yes"/>
      <point x="973.0" y="258.0"/>
      <point x="952.0" y="281.0"/>
      <point x="901.0" y="281.0" type="curve" smooth="yes"/>
      <point x="899.0" y="281.0" type="line" smooth="yes"/>
      <point x="840.0" y="281.0"/>
      <point x="836.0" y="244.0"/>
      <point x="827.0" y="223.0" type="curve"/>
      <point x="799.0" y="147.0"/>
      <point x="739.0" y="115.0"/>
      <point x="686.0" y="115.0" type="curve" smooth="yes"/>
      <point x="586.0" y="115.0"/>
      <point x="459.0" y="209.0"/>
      <point x="439.04379034497833" y="343.51963545236845" type="curve" smooth="yes"/>
      <point x="435.3105814621398" y="368.6842286626132"/>
      <point x="454.56" y="391.0"/>
      <point x="480.0" y="391.0" type="curve" smooth="yes"/>
      <point x="897.0" y="391.0" type="line" smooth="yes"/>
      <point x="928.0" y="391.0"/>
      <point x="973.0" y="393.0"/>
      <point x="973.0" y="465.0" type="curve" smooth="yes"/>
      <point x="973.0" y="791.0"/>
      <point x="799.0" y="899.0"/>
      <point x="653.0" y="899.0" type="curve" smooth="yes"/>
      <point x="496.0" y="899.0"/>
      <point x="334.0" y="774.0"/>
      <point x="294.48534094803233" y="542.4257190442826" type="curve" smooth="yes"/>
      <point x="292.6381102455752" y="531.6000879508128"/>
      <point x="281.7222" y="524.961"/>
      <point x="271.26" y="528.3" type="curve" smooth="yes"/>
      <point x="244.0" y="537.0"/>
      <point x="223.0" y="555.0"/>
      <point x="207.4990248742027" y="577.4764139324061" type="curve" smooth="yes"/>
      <point x="205.11454169087526" y="580.9339145482309"/>
      <point x="204.974" y="587.1584"/>
      <point x="207.2" y="590.72" type="curve" smooth="yes"/>
      <point x="213.0" y="600.0"/>
      <point x="223.0" y="614.0"/>
      <point x="223.0" y="643.0" type="curve" smooth="yes"/>
      <point x="223.0" y="696.0"/>
      <point x="180.0" y="731.0"/>
      <point x="135.0" y="731.0" type="curve" smooth="yes"/>
      <point x="109.0" y="731.0"/>
      <point x="47.0" y="713.0"/>
    </contour>
    <contour>
      <point x="482.0" y="516.0" type="line" smooth="yes"/>
      <point x="456.56" y="516.0"/>
      <point x="437.9570007296924" y="538.210262160209"/>
      <point x="442.41915048870726" y="563.255876936615" type="curve" smooth="yes"/>
      <point x="465.0" y="690.0"/>
      <point x="565.0" y="772.0"/>
      <point x="653.0" y="772.0" type="curve" smooth="yes"/>
      <point x="723.0" y="772.0"/>
      <point x="811.0" y="727.0"/>
      <point x="824.9200322681357" y="563.8262884124092" type="curve" smooth="yes"/>
      <point x="827.0824151660238" y="538.4783555538323"/>
      <point x="806.44" y="516.0"/>
      <point x="781.0" y="516.0" type="curve" smooth="yes"/>
    </contour>
  </outline>
</glyph>
<glyph name="uni04C0" format="2">
  <advance width="1228"/>
  <unicode hex="04C0"/>
  <unicode hex="04CF"/>
  <outline>
    <contour>
      <point x="263.0" y="144.0" type="line" smooth="yes"/>
      <point x="218.0" y="144.0"/>
      <point x="200.0" y="124.0"/>
      <point x="200.0" y="72.0" type="curve" smooth="yes"/>
      <point x="200.0" y="20.0"/>
      <point x="218.0" y="0.0"/>
      <point x="263.0" y="0.0" type="curve" smooth="yes"/>
      <point x="965.0" y="0.0" type="line" smooth="yes"/>
      <point x="1010.0" y="0.0"/>
      <point x="1028.0" y="20.0"/>
      <point x="1028.0" y="72.0" type="curve" smooth="yes"/>
      <point x="1028.0" y="124.0"/>
      <point x="1010.0" y="144.0"/>
      <point x="965.0" y="144.0" type="curve" smooth="yes"/>
      <point x="737.0" y="144.0" type="line" smooth="yes"/>
      <point x="711.56" y="144.0"/>
      <point x="689.0" y="166.56"/>
      <point x="689.0" y="192.0" type="curve" smooth="yes"/>
      <point x="689.0" y="995.0" type="line" smooth="yes"/>
      <point x="689.0" y="1020.44"/>
      <point x="711.56" y="1043.0"/>
      <point x="737.0" y="1043.0" type="curve" smooth="yes"/>
      <point x="945.0" y="1043.0" type="line" smooth="yes"/>
      <point x="990.0" y="1043.0"/>
      <point x="1008.0" y="1063.0"/>
      <point x="1008.0" y="1115.0" type="curve" smooth="yes"/>
      <point x="1008.0" y="1167.0"/>
      <point x="990.0" y="1187.0"/>
      <point x="945.0" y="1187.0" type="curve" smooth="yes"/>
      <point x="283.0" y="1187.0" type="line" smooth="yes"/>
      <point x="238.0" y="1187.0"/>
      <point x="220.0" y="1167.0"/>
      <point x="220.0" y="1115.0" type="curve" smooth="yes"/>
      <point x="220.0" y="1063.0"/>
      <point x="238.0" y="1043.0"/>
      <point x="283.0" y="1043.0" type="curve" smooth="yes"/>
      <point x="491.0" y="1043.0" type="line" smooth="yes"/>
      <point x="516.44" y="1043.0"/>
      <point x="539.0" y="1020.44"/>
      <point x="539.0" y="995.0" type="curve" smooth="yes"/>
      <point x="539.0" y="192.0" type="line" smooth="yes"/>
      <point x="539.0" y="166.56"/>
      <point x="516.44" y="144.0"/>
      <point x="491.0" y="144.0" type="curve" smooth="yes"/>
    </contour>
  </outline>
</glyph>
<glyph name="uni04CE" format="2">
  <advance width="1228"/>
  <unicode hex="04CE"/>
  <outline>
    <contour>
      <point x="20.0" y="61.0" type="curve" smooth="yes"/>
      <point x="20.0" y="41.0"/>
      <point x="29.0" y="0.0"/>
      <point x="94.0" y="0.0" type="curve" smooth="yes"/>
      <point x="350.0" y="0.0" type="line" smooth="yes"/>
      <point x="387.0" y="0.0"/>
      <point x="426.0" y="10.0"/>
      <point x="426.0" y="63.0" type="curve" smooth="yes"/>
      <point x="426.0" y="117.0"/>
      <point x="387.0" y="127.0"/>
      <point x="348.0" y="127.0" type="curve" smooth="yes"/>
      <point x="310.3" y="127.0" type="line" smooth="yes"/>
      <point x="295.831" y="127.0"/>
      <point x="283.0" y="139.83100000000002"/>
      <point x="283.0" y="154.3" type="curve" smooth="yes"/>
      <point x="283.0" y="748.0" type="line"/>
      <point x="444.0" y="395.0"/>
      <point x="449.0" y="295.0"/>
      <point x="537.0" y="295.0" type="curve" smooth="yes"/>
      <point x="592.0" y="295.0"/>
      <point x="616.0" y="342.0"/>
      <point x="627.0" y="362.0" type="curve"/>
      <point x="631.0" y="377.0"/>
      <point x="770.0" y="694.0"/>
      <point x="793.0" y="748.0" type="curve"/>
      <point x="793.0" y="157.24" type="line" smooth="yes"/>
      <point x="793.0" y="141.21280000000002"/>
      <point x="778.7872" y="127.0"/>
      <point x="762.76" y="127.0" type="curve" smooth="yes"/>
      <point x="721.0" y="127.0" type="line" smooth="yes"/>
      <point x="700.0" y="127.0"/>
      <point x="647.0" y="123.0"/>
      <point x="647.0" y="63.0" type="curve" smooth="yes"/>
      <point x="647.0" y="39.0"/>
      <point x="657.0" y="0.0"/>
      <point x="719.0" y="0.0" type="curve" smooth="yes"/>
      <point x="839.0" y="0.0" type="line" smooth="yes"/>
      <point x="864.44" y="0.0"/>
      <point x="873.7094975896904" y="-18.229540468194894"/>
      <point x="858.7223352972137" y="-38.786256315308286" type="curve" smooth="yes"/>
      <point x="739.0" y="-203.0"/>
      <point x="735.0" y="-201.0"/>
      <point x="735.0" y="-223.0" type="curve" smooth="yes"/>
      <point x="735.0" y="-270.0"/>
      <point x="774.0" y="-283.0"/>
      <point x="793.0" y="-283.0" type="curve" smooth="yes"/>
      <point x="825.0" y="-283.0"/>
      <point x="842.0" y="-256.0"/>
      <point x="854.0" y="-242.0" type="curve"/>
      <point x="1049.0" y="20.0" type="line"/>
      <point x="1059.0" y="35.0"/>
      <point x="1067.0" y="49.0"/>
      <point x="1067.0" y="68.0" type="curve" smooth="yes"/>
      <point x="1067.0" y="115.0"/>
      <point x="1030.0" y="127.0"/>
      <point x="991.0" y="127.0" type="curve" smooth="yes"/>
      <point x="943.44" y="127.0" type="line" smooth="yes"/>
      <point x="925.1868000000001" y="127.0"/>
      <point x="909.0" y="143.1868"/>
      <point x="909.0" y="161.44" type="curve" smooth="yes"/>
      <point x="909.0" y="726.6" type="line" smooth="yes"/>
      <point x="909.0" y="742.182"/>
      <point x="922.818" y="756.0"/>
      <point x="938.4" y="756.0" type="curve" smooth="yes"/>
      <point x="979.0" y="756.0" type="line" smooth="yes"/>
      <point x="1004.0" y="756.0"/>
      <point x="1053.0" y="758.0"/>
      <point x="1053.0" y="819.0" type="curve" smooth="yes"/>
      <point x="1053.0" y="844.0"/>
      <point x="1042.0" y="881.0"/>
      <point x="977.0" y="881.0" type="curve" smooth="yes"/>
      <point x="813.0" y="881.0" type="line" smooth="yes"/>
      <point x="793.0" y="881.0"/>
      <point x="745.0" y="881.0"/>
      <point x="717.0" y="836.0" type="curve"/>
      <point x="705.0" y="819.0"/>
      <point x="547.0" y="449.0"/>
      <point x="542.36" y="435.66" type="curve" smooth="yes"/>
      <point x="540.5792" y="430.5402"/>
      <point x="537.076377240475" y="430.4053336036034"/>
      <point x="534.907185618032" y="435.37305022043284" type="curve" smooth="yes"/>
      <point x="377.0" y="797.0" type="line" smooth="yes"/>
      <point x="350.0" y="856.0"/>
      <point x="330.0" y="881.0"/>
      <point x="258.0" y="881.0" type="curve" smooth="yes"/>
      <point x="96.0" y="881.0" type="line" smooth="yes"/>
      <point x="29.0" y="881.0"/>
      <point x="20.0" y="842.0"/>
      <point x="20.0" y="819.0" type="curve" smooth="yes"/>
      <point x="20.0" y="762.0"/>
      <point x="59.0" y="756.0"/>
      <point x="102.0" y="756.0" type="curve" smooth="yes"/>
      <point x="139.12" y="756.0" type="line" smooth="yes"/>
      <point x="153.3664" y="756.0"/>
      <point x="166.0" y="743.3664"/>
      <point x="166.0" y="729.12" type="curve" smooth="yes"/>
      <point x="166.0" y="158.07999999999998" type="line" smooth="yes"/>
      <point x="166.0" y="141.6076"/>
      <point x="151.3924" y="127.0"/>
      <point x="134.92000000000002" y="127.0" type="curve" smooth="yes"/>
      <point x="92.0" y="127.0" type="line" smooth="yes"/>
      <point x="72.0" y="127.0"/>
      <point x="20.0" y="123.0"/>
    </contour>
  </outline>
</glyph>
<glyph name="uni04FE" format="2">
  <advance width="1228"/>
  <unicode hex="04FE"/>
  <outline>
    <contour>
      <point x="25.0" y="668.0" type="curve" smooth="yes"/>
      <point x="25.0" y="641.0"/>
      <point x="35.0" y="606.0"/>
      <point x="98.0" y="604.0" type="curve" smooth="yes"/>
      <point x="376.0" y="604.0" type="line" smooth="yes"/>
      <point x="401.44" y="604.0"/>
      <point x="413.86019410210525" y="583.8471357779342"/>
      <point x="402.4259448980963" y="561.1215654849664" type="curve" smooth="yes"/>
      <point x="194.00496805350784" y="146.88487400634682" type="line" smooth="yes"/>
      <point x="188.7023349851487" y="136.34589078298302"/>
      <point x="173.5378" y="127.0"/>
      <point x="161.74" y="127.0" type="curve" smooth="yes"/>
      <point x="131.0" y="127.0" type="line" smooth="yes"/>
      <point x="98.0" y="127.0"/>
      <point x="55.0" y="119.0"/>
      <point x="55.0" y="63.0" type="curve" smooth="yes"/>
      <point x="55.0" y="33.0"/>
      <point x="70.0" y="0.0"/>
      <point x="127.0" y="0.0" type="curve" smooth="yes"/>
      <point x="360.0" y="0.0" type="line" smooth="yes"/>
      <point x="397.0" y="0.0"/>
      <point x="436.0" y="10.0"/>
      <point x="436.0" y="63.0" type="curve" smooth="yes"/>
      <point x="436.0" y="113.0"/>
      <point x="399.0" y="127.0"/>
      <point x="365.0" y="127.0" type="curve" smooth="yes"/>
      <point x="350.5" y="127.0" type="line" smooth="yes"/>
      <point x="344.935" y="127.0"/>
      <point x="342.1199523701004" y="131.4564590145659"/>
      <point x="344.5105369576604" y="136.48182769056575" type="curve" smooth="yes"/>
      <point x="505.3804024792666" y="474.6545019859852" type="line" smooth="yes"/>
      <point x="516.3087891652553" y="497.62761593341304"/>
      <point x="536.3142925956379" y="497.9358785826149"/>
      <point x="547.9453033949742" y="475.3103799630105" type="curve" smooth="yes"/>
      <point x="723.5436147152916" y="133.72361515582585" type="line" smooth="yes"/>
      <point x="725.3754989161871" y="130.16009912323815"/>
      <point x="723.4468" y="127.0"/>
      <point x="719.44" y="127.0" type="curve" smooth="yes"/>
      <point x="709.0" y="127.0" type="line" smooth="yes"/>
      <point x="647.0" y="127.0"/>
      <point x="635.0" y="88.0"/>
      <point x="635.0" y="63.0" type="curve" smooth="yes"/>
      <point x="635.0" y="10.0"/>
      <point x="676.0" y="0.0"/>
      <point x="711.0" y="0.0" type="curve" smooth="yes"/>
      <point x="944.0" y="0.0" type="line" smooth="yes"/>
      <point x="1001.0" y="0.0"/>
      <point x="1016.0" y="35.0"/>
      <point x="1016.0" y="63.0" type="curve" smooth="yes"/>
      <point x="1016.0" y="125.0"/>
      <point x="958.0" y="127.0"/>
      <point x="940.0" y="127.0" type="curve" smooth="yes"/>
      <point x="908.1" y="127.0" type="line" smooth="yes"/>
      <point x="895.857" y="127.0"/>
      <point x="879.8970810926417" y="136.58304062523604"/>
      <point x="874.1427257290247" y="147.38944813880008" type="curve" smooth="yes"/>
      <point x="653.5605699137149" y="561.6323155557401" type="line" smooth="yes"/>
      <point x="641.603467859446" y="584.0871883111978"/>
      <point x="653.56" y="604.0"/>
      <point x="679.0" y="604.0" type="curve" smooth="yes"/>
      <point x="971.0" y="604.0" type="line" smooth="yes"/>
      <point x="1008.0" y="604.0"/>
      <point x="1049.0" y="612.0"/>
      <point x="1049.0" y="666.0" type="curve" smooth="yes"/>
      <point x="1049.0" y="688.0"/>
      <point x="1040.0" y="729.0"/>
      <point x="975.0" y="729.0" type="curve" smooth="yes"/>
      <point x="677.0" y="729.0" type="line" smooth="yes"/>
      <point x="651.56" y="729.0"/>
      <point x="639.1095568938897" y="749.1680554196286"/>
      <point x="650.5096955189143" y="771.9107562119756" type="curve" smooth="yes"/>
      <point x="815.70740985257" y="1101.471852988713" type="line" smooth="yes"/>
      <point x="821.6924826307079" y="1113.411770904695"/>
      <point x="838.844" y="1124.0"/>
      <point x="852.2" y="1124.0" type="curve" smooth="yes"/>
      <point x="887.0" y="1124.0" type="line" smooth="yes"/>
      <point x="905.0" y="1124.0"/>
      <point x="956.0" y="1128.0"/>
      <point x="956.0" y="1188.0" type="curve" smooth="yes"/>
      <point x="956.0" y="1245.0"/>
      <point x="909.0" y="1251.0"/>
      <point x="885.0" y="1251.0" type="curve" smooth="yes"/>
      <point x="653.0" y="1251.0" type="line" smooth="yes"/>
      <point x="586.0" y="1251.0"/>
      <point x="575.0" y="1210.0"/>
      <point x="575.0" y="1188.0" type="curve" smooth="yes"/>
      <point x="575.0" y="1165.0"/>
      <point x="586.0" y="1126.0"/>
      <point x="647.0" y="1124.0" type="curve" smooth="yes"/>
      <point x="660.34" y="1124.0" type="line" smooth="yes"/>
      <point x="665.4598" y="1124.0"/>
      <point x="668.008379123391" y="1119.919943343058"/>
      <point x="665.7625087731725" y="1115.3190283894853" type="curve" smooth="yes"/>
      <point x="547.0558570277141" y="872.1352626609421" type="line" smooth="yes"/>
      <point x="535.8962528030256" y="849.2735734506427"/>
      <point x="515.5067139494496" y="848.9710928058863"/>
      <point x="503.673859466914" y="871.4916868210347" type="curve" smooth="yes"/>
      <point x="373.73495221530305" y="1118.7947683644234" type="line" smooth="yes"/>
      <point x="372.28542754119246" y="1121.553541131279"/>
      <point x="373.7636" y="1124.0"/>
      <point x="376.88" y="1124.0" type="curve" smooth="yes"/>
      <point x="385.0" y="1124.0" type="line" smooth="yes"/>
      <point x="414.0" y="1124.0"/>
      <point x="459.0" y="1128.0"/>
      <point x="459.0" y="1188.0" type="curve" smooth="yes"/>
      <point x="459.0" y="1217.0"/>
      <point x="446.0" y="1251.0"/>
      <point x="385.0" y="1251.0" type="curve" smooth="yes"/>
      <point x="154.0" y="1251.0" type="line" smooth="yes"/>
      <point x="94.0" y="1251.0"/>
      <point x="78.0" y="1217.0"/>
      <point x="78.0" y="1186.0" type="curve" smooth="yes"/>
      <point x="78.0" y="1163.0"/>
      <point x="92.0" y="1124.0"/>
      <point x="150.0" y="1124.0" type="curve" smooth="yes"/>
      <point x="166.0" y="1124.0" type="line" smooth="yes"/>
      <point x="193.0" y="1124.0"/>
      <point x="199.0" y="1124.0"/>
      <point x="205.0" y="1120.0" type="curve"/>
      <point x="217.0" y="1116.0"/>
      <point x="225.0" y="1094.0"/>
      <point x="397.3816688257182" y="771.3368763005788" type="curve" smooth="yes"/>
      <point x="409.3693843480875" y="748.898331861272"/>
      <point x="397.44" y="729.0"/>
      <point x="372.0" y="729.0" type="curve" smooth="yes"/>
      <point x="106.0" y="729.0" type="line" smooth="yes"/>
      <point x="70.0" y="729.0"/>
      <point x="25.0" y="725.0"/>
    </contour>
  </outline>
</glyph>
<glyph name="uni0604" format="2">
  <advance width="1228"/>
  <unicode hex="0604"/>
  <outline>
    <contour>
      <point x="43.0" y="373.0" type="line" smooth="yes"/>
      <point x="23.0" y="373.0"/>
      <point x="23.0" y="326.0"/>
      <point x="23.0" y="303.0" type="curve" smooth="yes"/>
      <point x="23.0" y="279.0"/>
      <point x="23.0" y="225.0"/>
      <point x="43.0" y="225.0" type="curve" smooth="yes"/>
      <point x="558.92" y="225.0" type="line" smooth="yes"/>
      <point x="575.3924" y="225.0"/>
      <point x="590.0" y="239.6076"/>
      <point x="590.0" y="256.08" type="curve" smooth="yes"/>
      <point x="590.0" y="299.0" type="line" smooth="yes"/>
      <point x="590.0" y="356.0"/>
      <point x="569.0" y="373.0"/>
      <point x="506.0" y="373.0" type="curve" smooth="yes"/>
      <point x="379.0" y="373.0"/>
      <point x="326.0" y="419.0633088879664"/>
      <point x="326.0" y="481.6458465937918" type="curve" smooth="yes"/>
      <point x="326.0" y="548.698565564319"/>
      <point x="375.0" y="574.7746229417462"/>
      <point x="432.0" y="574.7746229417462" type="curve" smooth="yes"/>
      <point x="549.0" y="574.7746229417462"/>
      <point x="508.0" y="469.72536322125364"/>
      <point x="682.0" y="469.72536322125364" type="curve" smooth="yes"/>
      <point x="733.0" y="469.72536322125364"/>
      <point x="770.0" y="490.58620912319543"/>
      <point x="785.66" y="508.30302753563024" type="curve" smooth="yes"/>
      <point x="791.6702" y="515.1026202573682"/>
      <point x="802.465189674685" y="515.1702696214877"/>
      <point x="808.6280631376277" y="508.44696235290587" type="curve" smooth="yes"/>
      <point x="825.0" y="490.58620912319543"/>
      <point x="864.0" y="469.72536322125364"/>
      <point x="915.0" y="469.72536322125364" type="curve" smooth="yes"/>
      <point x="1053.0" y="469.72536322125364"/>
      <point x="1053.0" y="596.3804990544717"/>
      <point x="1053.0" y="660.4530971818642" type="curve" smooth="yes"/>
      <point x="1053.0" y="810.9491997601585" type="line" smooth="yes"/>
      <point x="1053.0" y="858.6311332503112"/>
      <point x="1051.0" y="873.531737465984"/>
      <point x="993.0" y="873.531737465984" type="curve" smooth="yes"/>
      <point x="938.0" y="873.531737465984"/>
      <point x="938.0" y="858.6311332503112"/>
      <point x="938.0" y="810.9491997601585" type="curve" smooth="yes"/>
      <point x="938.0" y="660.4530971818642" type="line" smooth="yes"/>
      <point x="938.0" y="626.9267376966006"/>
      <point x="936.0" y="574.7746229417462"/>
      <point x="915.0" y="574.7746229417462" type="curve" smooth="yes"/>
      <point x="866.0" y="574.7746229417462"/>
      <point x="852.0" y="626.9267376966006"/>
      <point x="852.0" y="660.4530971818642" type="curve" smooth="yes"/>
      <point x="852.0" y="748.3666620543333" type="line" smooth="yes"/>
      <point x="852.0" y="796.0485955444858"/>
      <point x="852.0" y="810.9491997601585"/>
      <point x="795.0" y="810.9491997601585" type="curve" smooth="yes"/>
      <point x="737.0" y="810.9491997601585"/>
      <point x="737.0" y="796.0485955444858"/>
      <point x="737.0" y="748.3666620543333" type="curve" smooth="yes"/>
      <point x="737.0" y="660.4530971818642" type="line" smooth="yes"/>
      <point x="737.0" y="626.9267376966006"/>
      <point x="729.0" y="574.7746229417462"/>
      <point x="682.0" y="574.7746229417462" type="curve" smooth="yes"/>
      <point x="565.0" y="574.7746229417462"/>
      <point x="606.0" y="679.8238826622388"/>
      <point x="432.0" y="679.8238826622388" type="curve" smooth="yes"/>
      <point x="279.0" y="679.8238826622388"/>
      <point x="201.0" y="577.7547437848807"/>
      <point x="201.0" y="481.6458465937918" type="curve" smooth="yes"/>
      <point x="201.0" y="437.6890641575573"/>
      <point x="209.0" y="407.1428255154282"/>
      <point x="220.6" y="389.38" type="curve" smooth="yes"/>
      <point x="225.052" y="380.6986"/>
      <point x="220.34811315607976" y="373.0"/>
      <point x="210.59173011931864" y="373.0" type="curve" smooth="yes"/>
    </contour>
  </outline>
</glyph>
<glyph name="uni0605" format="2">
  <advance width="1228"/>
  <unicode hex="0605"/>
  <outline>
    <contour>
      <point x="256.88408644400783" y="1317.5697430930306" type="curve" smooth="yes"/>
      <point x="166.8391453831041" y="1317.5697430930306"/>
      <point x="165.375" y="1200.5999999999997"/>
      <point x="165.375" y="1145.4677644020107" type="curve" smooth="yes"/>
      <point x="165.375" y="1110.45134449518"/>
      <point x="172.6957269155206" y="1099.2758913334253"/>
      <point x="205.63899803536344" y="1099.2758913334253" type="curve" smooth="yes"/>
      <point x="237.11812377210214" y="1099.2758913334253"/>
      <point x="244.4388506876228" y="1110.45134449518"/>
      <point x="244.4388506876228" y="1145.4677644020107" type="curve" smooth="yes"/>
      <point x="244.4388506876228" y="1186.4444259951108"/>
      <point x="244.4388506876228" y="1219.9707854803744"/>
      <point x="256.88408644400783" y="1219.9707854803744" type="curve" smooth="yes"/>
      <point x="272.98968565815323" y="1219.9707854803744"/>
      <point x="365.9629174852652" y="1131.3121903971216"/>
      <point x="559.2301080550099" y="1131.3121903971216" type="curve" smooth="yes"/>
      <point x="763.4783889980354" y="1131.3121903971216"/>
      <point x="910.625" y="1187.934486416678"/>
      <point x="910.625" y="1267.652718970527" type="curve" smooth="yes"/>
      <point x="910.625" y="1299.6890180342232"/>
      <point x="887.930746561886" y="1317.5697430930306"/>
      <point x="860.8440569744598" y="1317.5697430930306" type="curve" smooth="yes"/>
      <point x="799.3499508840864" y="1317.5697430930306"/>
      <point x="800.8140962671905" y="1225.9310271666434"/>
      <point x="559.2301080550099" y="1225.9310271666434" type="curve" smooth="yes"/>
      <point x="391.5854616895874" y="1225.9310271666434"/>
      <point x="318.3781925343811" y="1317.5697430930306"/>
    </contour>
  </outline>
</glyph>
<glyph name="uni0609" format="2">
  <advance width="1228"/>
  <unicode hex="0609"/>
  <outline>
    <contour>
      <point x="895.0" y="1105.9811632304782" type="curve" smooth="yes"/>
      <point x="895.0" y="1132.802250818689"/>
      <point x="864.0" y="1158.8783081961162"/>
      <point x="823.0" y="1158.8783081961162" type="curve" smooth="yes"/>
      <point x="774.0" y="1158.8783081961162"/>
      <point x="760.0" y="1129.8221299755544"/>
      <point x="750.0" y="1111.9414049167472" type="curve" smooth="yes"/>
      <point x="190.0" y="-53.0" type="line" smooth="yes"/>
      <point x="182.0" y="-74.0"/>
      <point x="178.0" y="-84.0"/>
      <point x="178.0" y="-98.0" type="curve" smooth="yes"/>
      <point x="178.0" y="-137.0"/>
      <point x="211.0" y="-170.0"/>
      <point x="250.0" y="-170.0" type="curve" smooth="yes"/>
      <point x="299.0" y="-170.0"/>
      <point x="313.0" y="-133.0"/>
      <point x="322.0" y="-111.0" type="curve" smooth="yes"/>
      <point x="883.0" y="1072.4548037452146" type="line" smooth="yes"/>
      <point x="891.0" y="1087.3554079608873"/>
      <point x="895.0" y="1094.8057100687236"/>
    </contour>
    <contour>
      <point x="430.0" y="103.0" type="curve" smooth="yes"/>
      <point x="430.0" y="47.0"/>
      <point x="542.0" y="-88.0"/>
      <point x="594.0" y="-88.0" type="curve" smooth="yes"/>
      <point x="639.0" y="-88.0"/>
      <point x="755.0" y="43.0"/>
      <point x="755.0" y="103.0" type="curve" smooth="yes"/>
      <point x="755.0" y="156.0"/>
      <point x="641.0" y="293.0"/>
      <point x="594.0" y="293.0" type="curve" smooth="yes"/>
      <point x="544.0" y="293.0"/>
      <point x="430.0" y="158.0"/>
    </contour>
    <contour>
      <point x="750.0" y="228.0" type="curve" smooth="yes"/>
      <point x="750.0" y="172.0"/>
      <point x="862.0" y="37.0"/>
      <point x="914.0" y="37.0" type="curve" smooth="yes"/>
      <point x="959.0" y="37.0"/>
      <point x="1075.0" y="168.0"/>
      <point x="1075.0" y="228.0" type="curve" smooth="yes"/>
      <point x="1075.0" y="281.0"/>
      <point x="961.0" y="411.61300678013004"/>
      <point x="914.0" y="411.61300678013004" type="curve" smooth="yes"/>
      <point x="864.0" y="411.61300678013004"/>
      <point x="750.0" y="283.0"/>
    </contour>
    <contour>
      <point x="88.0" y="956.2300908629675" type="curve" smooth="yes"/>
      <point x="88.0" y="914.5083990590838"/>
      <point x="200.0" y="813.929320603293"/>
      <point x="252.0" y="813.929320603293" type="curve" smooth="yes"/>
      <point x="297.0" y="813.929320603293"/>
      <point x="413.0" y="911.5282782159493"/>
      <point x="413.0" y="956.2300908629675" type="curve" smooth="yes"/>
      <point x="413.0" y="995.7166920345"/>
      <point x="299.0" y="1097.785830911858"/>
      <point x="252.0" y="1097.785830911858" type="curve" smooth="yes"/>
      <point x="202.0" y="1097.785830911858"/>
      <point x="88.0" y="997.2067524560673"/>
    </contour>
  </outline>
</glyph>
<glyph name="uni060E" format="2">
  <advance width="1228"/>
  <unicode hex="060E"/>
  <outline>
    <contour>
      <point x="270.0" y="509.2119643927863" type="curve" smooth="yes"/>
      <point x="135.0" y="509.2119643927863"/>
      <point x="29.0" y="434.70894331442275"/>
      <point x="29.0" y="313.0" type="curve" smooth="yes"/>
      <point x="29.0" y="258.0"/>
      <point x="51.0" y="213.0"/>
      <point x="121.0" y="160.0" type="curve" smooth="yes"/>
      <point x="223.0" y="82.0"/>
      <point x="377.0" y="29.0"/>
      <point x="541.0" y="29.0" type="curve" smooth="yes"/>
      <point x="883.0" y="29.0"/>
      <point x="1055.0" y="174.0"/>
      <point x="1055.0" y="285.0" type="curve" smooth="yes"/>
      <point x="1055.0" y="340.0"/>
      <point x="1014.0" y="373.0"/>
      <point x="969.0" y="373.0" type="curve" smooth="yes"/>
      <point x="934.0" y="373.0"/>
      <point x="915.0" y="354.0"/>
      <point x="889.0" y="322.0" type="curve" smooth="yes"/>
      <point x="834.0" y="254.0"/>
      <point x="762.0" y="160.0"/>
      <point x="555.0" y="160.0" type="curve" smooth="yes"/>
      <point x="520.0" y="160.0"/>
      <point x="469.0" y="166.0"/>
      <point x="446.38" y="171.8" type="curve" smooth="yes"/>
      <point x="437.6986" y="174.026"/>
      <point x="434.19384064659323" y="182.75106055305255"/>
      <point x="438.92306520551756" y="190.36395862351608" type="curve" smooth="yes"/>
      <point x="471.0" y="242.0"/>
      <point x="487.0" y="311.0"/>
      <point x="487.0" y="369.0" type="curve" smooth="yes"/>
      <point x="487.0" y="442.1592454222591"/>
      <point x="397.0" y="509.2119643927863"/>
    </contour>
    <contour>
      <point x="266.0" y="419.0633088879664" type="curve" smooth="yes"/>
      <point x="313.0" y="419.0633088879664"/>
      <point x="369.0" y="402.6726442507264"/>
      <point x="369.0" y="360.0" type="curve" smooth="yes"/>
      <point x="369.0" y="338.0"/>
      <point x="362.0" y="297.0"/>
      <point x="330.0" y="248.0" type="curve" smooth="yes"/>
      <point x="322.0" y="236.0"/>
      <point x="315.0" y="225.0"/>
      <point x="310.36" y="221.52" type="curve" smooth="yes"/>
      <point x="308.5792" y="220.1844"/>
      <point x="305.04583969951284" y="219.27916575721244"/>
      <point x="302.8422121266231" y="219.5939696961967" type="curve" smooth="yes"/>
      <point x="279.0" y="223.0"/>
      <point x="221.0" y="254.0"/>
      <point x="193.0" y="276.0" type="curve" smooth="yes"/>
      <point x="170.0" y="295.0"/>
      <point x="162.0" y="311.0"/>
      <point x="162.0" y="330.0" type="curve" smooth="yes"/>
      <point x="162.0" y="385.0"/>
      <point x="215.0" y="419.0633088879664"/>
    </contour>
  </outline>
</glyph>
<glyph name="uni0614" format="2">
  <unicode hex="0614"/>
  <outline>
    <contour>
      <point x="661.8469895287958" y="1240.0866011715325" type="curve" smooth="yes"/>
      <point x="617.3660994764398" y="1240.0866011715325"/>
      <point x="617.3660994764398" y="1225.9310271666434"/>
      <point x="617.3660994764398" y="1184.9543655735436" type="curve" smooth="yes"/>
      <point x="617.3660994764398" y="1146.957824823578" type="line" smooth="yes"/>
      <point x="617.3660994764398" y="1132.802250818689"/>
      <point x="615.8053664921466" y="1111.9414049167472"/>
      <point x="594.7354712041885" y="1096.2957704902908" type="curve" smooth="yes"/>
      <point x="569.7637434554974" y="1078.4150454314836"/>
      <point x="495.62892670157066" y="1065.7495318481617"/>
      <point x="182.70196335078538" y="1065.7495318481617" type="curve" smooth="yes"/>
      <point x="167.875" y="1065.7495318481617"/>
      <point x="167.875" y="1036.6933536276001"/>
      <point x="167.875" y="1021.7927494119274" type="curve" smooth="yes"/>
      <point x="167.875" y="1003.1669941423365"/>
      <point x="167.875" y="972.6207555002075"/>
      <point x="182.70196335078538" y="972.6207555002075" type="curve" smooth="yes"/>
      <point x="240.17536726946605" y="973.0145519861319"/>
      <point x="289.0485218307735" y="973.2233641643495"/>
      <point x="330.858095067209" y="973.4019822471107" type="curve" smooth="yes"/>
      <point x="526.3408063159563" y="974.23704906784"/>
      <point x="567.4079740034972" y="974.4124840381282"/>
      <point x="611.123167539267" y="989.756450348231" type="curve" smooth="yes"/>
      <point x="646.2396596858639" y="1001.6769337207693"/>
      <point x="652.4825916230367" y="1009.8722660393892"/>
      <point x="657.913942408377" y="1017.6503814399703" type="curve" smooth="yes"/>
      <point x="659.9984573821989" y="1020.6355684885382"/>
      <point x="664.203414900546" y="1021.0330872876409"/>
      <point x="666.8606605325197" y="1018.4961661189122" type="curve" smooth="yes"/>
      <point x="684.4776178010471" y="1001.6769337207693"/>
      <point x="716.4726439790576" y="988.2663899266638"/>
      <point x="780.4626963350786" y="988.2663899266638" type="curve" smooth="yes"/>
      <point x="896.7373036649215" y="988.2663899266638"/>
      <point x="913.125" y="1088.8454683824546"/>
      <point x="913.125" y="1139.5075227157417" type="curve" smooth="yes"/>
      <point x="913.125" y="1221.4608459019416" type="line" smooth="yes"/>
      <point x="913.125" y="1261.6924772842578"/>
      <point x="913.125" y="1275.1030210783633"/>
      <point x="868.644109947644" y="1275.1030210783633" type="curve" smooth="yes"/>
      <point x="828.0650523560209" y="1275.1030210783633"/>
      <point x="826.5043193717277" y="1261.6924772842578"/>
      <point x="826.5043193717277" y="1221.4608459019416" type="curve" smooth="yes"/>
      <point x="826.5043193717277" y="1139.5075227157417" type="line" smooth="yes"/>
      <point x="826.5043193717277" y="1117.9016466030164"/>
      <point x="824.9435863874346" y="1082.8852266961853"/>
      <point x="780.4626963350786" y="1082.8852266961853" type="curve" smooth="yes"/>
      <point x="713.3511780104711" y="1082.8852266961853"/>
      <point x="705.5475130890052" y="1123.8618882892854"/>
      <point x="705.5475130890052" y="1146.957824823578" type="curve" smooth="yes"/>
      <point x="705.5475130890052" y="1184.9543655735436" type="line" smooth="yes"/>
      <point x="705.5475130890052" y="1225.9310271666434"/>
      <point x="705.5475130890052" y="1240.0866011715325"/>
    </contour>
  </outline>
</glyph>
<glyph name="uni0616" format="2">
  <unicode hex="0616"/>
  <outline>
    <contour>
      <point x="344.0" y="977.8359669756928" type="curve" smooth="yes"/>
      <point x="229.0" y="977.8359669756928"/>
      <point x="184.0" y="912.2733084267329"/>
      <point x="184.0" y="852.6708915640421" type="curve" smooth="yes"/>
      <point x="184.0" y="803.4988976523222"/>
      <point x="217.0" y="758.0520547945205"/>
      <point x="264.0" y="758.0520547945205" type="curve" smooth="yes"/>
      <point x="834.0" y="758.0520547945205" type="line" smooth="yes"/>
      <point x="874.0" y="758.0520547945205"/>
      <point x="889.0" y="764.0122964807895"/>
      <point x="889.0" y="796.0485955444858" type="curve" smooth="yes"/>
      <point x="889.0" y="829.5749550297494"/>
      <point x="874.0" y="835.5351967160185"/>
      <point x="834.0" y="835.5351967160185" type="curve" smooth="yes"/>
      <point x="309.0" y="835.5351967160185" type="line" smooth="yes"/>
      <point x="295.0" y="835.5351967160185"/>
      <point x="287.0" y="845.9656196669894"/>
      <point x="287.0" y="858.6311332503112" type="curve" smooth="yes"/>
      <point x="287.0" y="876.5118583091185"/>
      <point x="305.0" y="898.1177344218438"/>
      <point x="344.0" y="898.1177344218438" type="curve" smooth="yes"/>
      <point x="387.0" y="898.1177344218438"/>
      <point x="430.0" y="910.038217794382"/>
      <point x="455.0" y="928.6639730639729" type="curve" smooth="yes"/>
      <point x="502.0" y="963.6803929708037"/>
      <point x="508.0" y="1001.6769337207693"/>
      <point x="508.0" y="1017.3225681472254" type="curve" smooth="yes"/>
      <point x="508.0" y="1243.066722014667" type="line" smooth="yes"/>
      <point x="508.0" y="1276.5930814999306"/>
      <point x="496.0" y="1287.0235044509016"/>
      <point x="455.0" y="1287.0235044509016" type="curve" smooth="yes"/>
      <point x="418.0" y="1287.0235044509016"/>
      <point x="408.0" y="1276.5930814999306"/>
      <point x="408.0" y="1243.066722014667" type="curve" smooth="yes"/>
      <point x="408.0" y="1023.2828098334946" type="line" smooth="yes"/>
      <point x="408.0" y="1008.3822056178219"/>
      <point x="403.0" y="977.8359669756928"/>
    </contour>
    <contour>
      <point x="713.0" y="1287.0235044509016" type="curve" smooth="yes"/>
      <point x="672.0" y="1287.0235044509016"/>
      <point x="659.0" y="1272.1229002352288"/>
      <point x="659.0" y="1224.4409667450761" type="curve" smooth="yes"/>
      <point x="659.0" y="960.7002721276692" type="line" smooth="yes"/>
      <point x="659.0" y="913.7633688483002"/>
      <point x="672.0" y="898.1177344218438"/>
      <point x="711.0" y="898.1177344218438" type="curve" smooth="yes"/>
      <point x="754.0" y="898.1177344218438"/>
      <point x="764.0" y="913.7633688483002"/>
      <point x="764.0" y="960.7002721276692" type="curve" smooth="yes"/>
      <point x="764.0" y="1224.4409667450761" type="line" smooth="yes"/>
      <point x="764.0" y="1272.1229002352288"/>
      <point x="758.0" y="1287.0235044509016"/>
    </contour>
  </outline>
</glyph>
<glyph name="uni061E" format="2">
  <advance width="1228"/>
  <unicode hex="061E"/>
  <outline>
    <contour>
      <point x="563.0" y="513.682145657488" type="curve" smooth="yes"/>
      <point x="563.0" y="483.13590701535907"/>
      <point x="662.0" y="407.1428255154282"/>
      <point x="699.0" y="407.1428255154282" type="curve" smooth="yes"/>
      <point x="731.0" y="407.1428255154282"/>
      <point x="834.0" y="480.1557861722245"/>
      <point x="834.0" y="513.682145657488" type="curve" smooth="yes"/>
      <point x="834.0" y="542.7383238780499"/>
      <point x="733.0" y="622.4565564318989"/>
      <point x="699.0" y="622.4565564318989" type="curve" smooth="yes"/>
      <point x="664.0" y="622.4565564318989"/>
      <point x="563.0" y="545.7184447211844"/>
    </contour>
    <contour>
      <point x="376.0" y="717.8204234122041" type="curve" smooth="yes"/>
      <point x="376.0" y="687.2741847700752"/>
      <point x="475.0" y="611.2811032701443"/>
      <point x="512.0" y="611.2811032701443" type="curve" smooth="yes"/>
      <point x="544.0" y="611.2811032701443"/>
      <point x="647.0" y="684.2940639269406"/>
      <point x="647.0" y="717.8204234122041" type="curve" smooth="yes"/>
      <point x="647.0" y="746.8766016327659"/>
      <point x="546.0" y="826.5948341866149"/>
      <point x="512.0" y="826.5948341866149" type="curve" smooth="yes"/>
      <point x="477.0" y="826.5948341866149"/>
      <point x="376.0" y="749.8567224759005"/>
    </contour>
    <contour>
      <point x="241.0" y="481.64584659379176" type="curve" smooth="yes"/>
      <point x="241.0" y="451.09960795166273"/>
      <point x="340.0" y="369.0"/>
      <point x="377.0" y="369.0" type="curve" smooth="yes"/>
      <point x="409.0" y="369.0"/>
      <point x="512.0" y="448.1194871085282"/>
      <point x="512.0" y="481.64584659379176" type="curve" smooth="yes"/>
      <point x="512.0" y="510.70202481435354"/>
      <point x="411.0" y="590.4202573682026"/>
      <point x="377.0" y="590.4202573682026" type="curve" smooth="yes"/>
      <point x="342.0" y="590.4202573682026"/>
      <point x="241.0" y="513.682145657488"/>
    </contour>
  </outline>
</glyph>
<glyph name="uni061F" format="2">
  <advance width="1228"/>
  <unicode hex="061F"/>
  <outline>
    <contour>
      <point x="557.0" y="1209.5403625294034" type="curve" smooth="yes"/>
      <point x="178.0" y="1209.5403625294034"/>
      <point x="127.0" y="1076.9249850099163"/>
      <point x="127.0" y="1020.3026889903599" type="curve" smooth="yes"/>
      <point x="127.0" y="940.5844564365109"/>
      <point x="203.0" y="896.6276740002766"/>
      <point x="262.0" y="872.0416770444165" type="curve" smooth="yes"/>
      <point x="453.0" y="794.5585351229186"/>
      <point x="485.0" y="707.3900004612333"/>
      <point x="485.0" y="635.8671002260043" type="curve" smooth="yes"/>
      <point x="485.0" y="609.791042848577" type="line" smooth="yes"/>
      <point x="485.0" y="557.6389280937226"/>
      <point x="506.0" y="548.6985655643189"/>
      <point x="567.0" y="548.6985655643189" type="curve" smooth="yes"/>
      <point x="649.0" y="548.6985655643189"/>
      <point x="649.0" y="568.8143812554771"/>
      <point x="649.0" y="628.4167981181679" type="curve" smooth="yes"/>
      <point x="649.0" y="689.509275402426"/>
      <point x="649.0" y="825.1047737650475"/>
      <point x="352.0" y="947.2897283335637" type="curve" smooth="yes"/>
      <point x="313.0" y="962.1903325492365"/>
      <point x="268.0" y="980.8160878188273"/>
      <point x="268.0" y="1020.3026889903599" type="curve" smooth="yes"/>
      <point x="268.0" y="1067.239592269729"/>
      <point x="348.0" y="1116.411586181449"/>
      <point x="557.0" y="1116.411586181449" type="curve" smooth="yes"/>
      <point x="860.0" y="1116.411586181449"/>
      <point x="721.0" y="957.7201512845345"/>
      <point x="860.0" y="957.7201512845345" type="curve" smooth="yes"/>
      <point x="905.0" y="957.7201512845345"/>
      <point x="946.0" y="982.3061482403946"/>
      <point x="946.0" y="1023.2828098334944" type="curve" smooth="yes"/>
      <point x="946.0" y="1132.802250818689"/>
      <point x="793.0" y="1209.5403625294034"/>
    </contour>
    <contour>
      <point x="432.0" y="313.0" type="curve" smooth="yes"/>
      <point x="432.0" y="272.0"/>
      <point x="531.0" y="170.0"/>
      <point x="568.0" y="170.0" type="curve" smooth="yes"/>
      <point x="600.0" y="170.0"/>
      <point x="703.0" y="268.0"/>
      <point x="703.0" y="313.0" type="curve" smooth="yes"/>
      <point x="703.0" y="352.0"/>
      <point x="602.0" y="442.1592454222591"/>
      <point x="568.0" y="442.1592454222591" type="curve" smooth="yes"/>
      <point x="533.0" y="442.1592454222591"/>
      <point x="432.0" y="356.0"/>
    </contour>
  </outline>
</glyph>
<glyph name="uni0626" format="2">
  <advance width="1228"/>
  <unicode hex="0626"/>
  <unicode hex="FE89"/>
  <outline>
    <contour>
      <point x="1036.0" y="279.0" type="curve" smooth="yes"/>
      <point x="1036.0" y="432.4738526820718"/>
      <point x="961.0" y="473.2387499375807"/>
      <point x="760.0" y="427.9538836235318" type="curve" smooth="yes"/>
      <point x="604.0" y="371.05970397890974"/>
      <point x="596.0" y="427.3747705272201"/>
      <point x="596.0" y="479.52688528207455" type="curve" smooth="yes"/>
      <point x="596.0" y="575.6357824731634"/>
      <point x="711.0" y="702.3588184690259"/>
      <point x="805.0" y="733.8211379652804" type="curve" smooth="yes"/>
      <point x="920.0" y="760.4006667656392"/>
      <point x="850.0" y="645.884896306478"/>
      <point x="950.0" y="663.1708703372515" type="curve" smooth="yes"/>
      <point x="995.0" y="664.923278446566"/>
      <point x="1036.0" y="689.509275402426"/>
      <point x="1036.0" y="730.4859369955259" type="curve" smooth="yes"/>
      <point x="1036.0" y="812.4392601817258"/>
      <point x="928.0" y="854.5880726798302"/>
      <point x="807.0" y="827.5592914109536" type="curve" smooth="yes"/>
      <point x="612.0" y="763.3181039463323"/>
      <point x="455.0" y="586.3519170823959"/>
      <point x="455.0" y="458.2067208276106" type="curve" smooth="yes"/>
      <point x="455.0" y="324.53936199241167"/>
      <point x="463.0" y="214.84342044729235"/>
      <point x="760.0" y="314.93317345643493" type="curve" smooth="yes"/>
      <point x="852.0" y="352.1219801647005"/>
      <point x="895.0" y="337.7154778464825"/>
      <point x="895.0" y="266.7154778464825" type="curve" smooth="yes"/>
      <point x="895.0" y="139.71547784648251"/>
      <point x="817.0" y="-25.696303025787927"/>
      <point x="492.0" y="-147.6331686720143" type="curve" smooth="yes"/>
      <point x="231.0" y="-150.6"/>
      <point x="180.0" y="3.4000000000000057"/>
      <point x="180.0" y="116.4" type="curve" smooth="yes"/>
      <point x="180.0" y="189.4"/>
      <point x="193.0" y="255.4"/>
      <point x="229.0" y="324.4" type="curve" smooth="yes"/>
      <point x="260.0" y="384.4"/>
      <point x="334.0" y="376.4"/>
      <point x="334.0" y="437.98707624187074" type="curve" smooth="yes"/>
      <point x="334.0" y="472.25846593791795"/>
      <point x="301.0" y="502.05967436926335"/>
      <point x="246.0" y="502.05967436926335" type="curve" smooth="yes"/>
      <point x="90.0" y="502.05967436926335"/>
      <point x="39.0" y="255.4"/>
      <point x="39.0" y="116.4" type="curve" smooth="yes"/>
      <point x="39.0" y="-139.6"/>
      <point x="201.0" y="-293.6"/>
      <point x="492.0" y="-290.63316867201434" type="curve" smooth="yes"/>
      <point x="858.0" y="-153.8955471476491"/>
      <point x="1036.0" y="41.0"/>
    </contour>
    <contour>
      <point x="535.0" y="1290.048264488351" type="curve" smooth="yes"/>
      <point x="412.0" y="1282.1063050597295"/>
      <point x="330.0" y="1187.4874682902077"/>
      <point x="330.0" y="1112.2394170010607" type="curve" smooth="yes"/>
      <point x="330.0" y="1051.1469397168025"/>
      <point x="381.0" y="1001.229915594299"/>
      <point x="428.56" y="990.4269775379362" type="curve" smooth="yes"/>
      <point x="446.8132" y="986.2849302764105"/>
      <point x="447.93327403438235" y="976.873818630896"/>
      <point x="430.94313624336667" y="970.3910928443104" type="curve" smooth="yes"/>
      <point x="375.0" y="949.0778008394445"/>
      <point x="303.0" y="931.1970757806373"/>
      <point x="303.0" y="890.965444398321" type="curve" smooth="yes"/>
      <point x="303.0" y="862.6542963885429"/>
      <point x="328.0" y="844.0285411189519"/>
      <point x="354.0" y="844.0285411189519" type="curve" smooth="yes"/>
      <point x="389.0" y="844.0285411189519"/>
      <point x="535.0" y="910.0828569886969"/>
      <point x="582.0" y="939.350976999853" type="curve" smooth="yes"/>
      <point x="680.0" y="1010.5586081976537"/>
      <point x="770.0" y="1075.0133178375656"/>
      <point x="770.0" y="1091.4039824748056" type="curve" smooth="yes"/>
      <point x="770.0" y="1110.0297377443965"/>
      <point x="741.0" y="1142.6509682939475"/>
      <point x="723.0" y="1136.4133004014168" type="curve" smooth="yes"/>
      <point x="678.0" y="1120.890329643713"/>
      <point x="651.0" y="1079.9196920804984"/>
      <point x="575.0" y="1058.3556118705599" type="curve" smooth="yes"/>
      <point x="506.0" y="1045.9071779748933"/>
      <point x="444.0" y="1075.7329366726624"/>
      <point x="444.0" y="1112.2394170010607" type="curve" smooth="yes"/>
      <point x="444.0" y="1159.9213504912132"/>
      <point x="475.0" y="1188.3956392817506"/>
      <point x="535.0" y="1195.4294277188292" type="curve" smooth="yes"/>
      <point x="600.0" y="1209.9831432094088"/>
      <point x="557.0" y="1156.414019408444"/>
      <point x="633.0" y="1176.3243947241026" type="curve" smooth="yes"/>
      <point x="672.0" y="1188.9012002433017"/>
      <point x="705.0" y="1220.3072216263843"/>
      <point x="705.0" y="1253.8335811116478" type="curve" smooth="yes"/>
      <point x="705.0" y="1332.0617532439296"/>
      <point x="598.0" y="1304.0635936894964"/>
    </contour>
  </outline>
</glyph>
<glyph name="uni062A" format="2">
  <advance width="1478"/>
  <unicode hex="062A"/>
  <unicode hex="FE95"/>
  <outline>
    <contour>
      <point x="229.0" y="707.5762580139292" type="curve" smooth="yes"/>
      <point x="119.0" y="707.5762580139292"/>
      <point x="57.0" y="583.9012430238457"/>
      <point x="57.0" y="451.28586550435864" type="curve" smooth="yes"/>
      <point x="57.0" y="327.25"/>
      <point x="78.0" y="157.25"/>
      <point x="219.0" y="157.25" type="curve" smooth="yes"/>
      <point x="1204.5" y="225.0" type="line" smooth="yes"/>
      <point x="1262.5" y="225.0"/>
      <point x="1276.5" y="246.0"/>
      <point x="1276.5" y="309.0" type="curve" smooth="yes"/>
      <point x="1276.5" y="695.469517088695" type="line" smooth="yes"/>
      <point x="1276.5" y="742.4064203680641"/>
      <point x="1264.5" y="758.0520547945205"/>
      <point x="1206.5" y="758.0520547945205" type="curve" smooth="yes"/>
      <point x="1149.5" y="757.0496213939437"/>
      <point x="1135.5" y="740.834738917204"/>
      <point x="1135.5" y="693.897835637835" type="curve" smooth="yes"/>
      <point x="1135.5" y="409.2962951184864" type="line" smooth="yes"/>
      <point x="1135.5" y="389.45044601398524"/>
      <point x="1112.94" y="365.3150778360157"/>
      <point x="1087.5" y="363.05314661147514" type="curve" smooth="yes"/>
      <point x="234.90447410008736" y="301.25" type="line" smooth="yes"/>
      <point x="227.53510282704104" y="301.25"/>
      <point x="218.2364" y="307.172"/>
      <point x="215.12" y="313.85" type="curve" smooth="yes"/>
      <point x="207.0" y="331.25"/>
      <point x="199.0" y="366.25"/>
      <point x="199.0" y="451.28586550435864" type="curve" smooth="yes"/>
      <point x="199.0" y="600.2919076610857"/>
      <point x="317.0" y="568.2556085973894"/>
      <point x="317.0" y="643.5036598865365" type="curve" smooth="yes"/>
      <point x="317.0" y="677.0300193718001"/>
      <point x="285.0" y="707.5762580139292"/>
    </contour>
    <contour>
      <point x="268.0" y="981.7473755823069" type="curve" smooth="yes"/>
      <point x="268.0" y="951.2011369401778"/>
      <point x="367.0" y="875.2080554402471"/>
      <point x="404.0" y="875.2080554402471" type="curve" smooth="yes"/>
      <point x="436.0" y="875.2080554402471"/>
      <point x="539.0" y="948.2210160970433"/>
      <point x="539.0" y="981.7473755823069" type="curve" smooth="yes"/>
      <point x="539.0" y="1010.8035538028687"/>
      <point x="438.0" y="1090.5217863567177"/>
      <point x="404.0" y="1090.5217863567177" type="curve" smooth="yes"/>
      <point x="369.0" y="1090.5217863567177"/>
      <point x="268.0" y="1013.7836746460032"/>
    </contour>
    <contour>
      <point x="840.5" y="1048.7550266213427" type="curve" smooth="yes"/>
      <point x="840.5" y="1018.2087879792139"/>
      <point x="939.5" y="942.215706479283"/>
      <point x="976.5" y="942.215706479283" type="curve" smooth="yes"/>
      <point x="1008.5" y="942.215706479283"/>
      <point x="1111.5" y="1015.2286671360791"/>
      <point x="1111.5" y="1048.7550266213427" type="curve" smooth="yes"/>
      <point x="1111.5" y="1077.8112048419046"/>
      <point x="1010.5" y="1157.5294373957536"/>
      <point x="976.5" y="1157.5294373957536" type="curve" smooth="yes"/>
      <point x="941.5" y="1157.5294373957536"/>
      <point x="840.5" y="1080.791325685039"/>
    </contour>
  </outline>
</glyph>
<glyph name="uni0633" format="2">
  <advance width="1775"/>
  <unicode hex="0633"/>
  <unicode hex="FEB1"/>
  <outline>
    <contour>
      <point x="577.0228875819816" y="369.0" type="curve" smooth="yes"/>
      <point x="254.0" y="369.0"/>
      <point x="238.6015833944855" y="424.66075540940795"/>
      <point x="238.6015833944855" y="458.18711489467154" type="curve" smooth="yes"/>
      <point x="238.6015833944855" y="771.0998034237984" type="line" smooth="yes"/>
      <point x="238.6015833944855" y="776.9085744293961"/>
      <point x="238.776574587227" y="782.2415174260084"/>
      <point x="238.9364794700791" y="787.119269452201" type="curve" smooth="yes"/>
      <point x="240.0847934814921" y="822.276913420746"/>
      <point x="240.4591744688926" y="833.7881214835547"/>
      <point x="155.4465220207584" y="817.1504787715533" type="curve" smooth="yes"/>
      <point x="45.14017978311164" y="777.9321440114252"/>
      <point x="46.25182233684456" y="767.0134829795459"/>
      <point x="49.631979304916754" y="733.7278149704214" type="curve" smooth="yes"/>
      <point x="50.121756090990004" y="728.8938634767705"/>
      <point x="50.659026766744056" y="723.5881079641401"/>
      <point x="50.88328756811222" y="717.631364814891" type="curve" smooth="yes"/>
      <point x="50.88328756811222" y="152.74624036102605" type="line" smooth="yes"/>
      <point x="49.112987117237154" y="-104.19523796782126"/>
      <point x="23.99563811247613" y="-272.7831089736403"/>
      <point x="-290.8609559161821" y="-446.1633905642226" type="curve" smooth="yes"/>
      <point x="-445.9" y="-484.1"/>
      <point x="-558.9" y="-382.1"/>
      <point x="-559.9" y="-124.10000000000002" type="curve" smooth="yes"/>
      <point x="-556.8185485839844" y="51.54251708984373"/>
      <point x="-492.5872406005859" y="92.35150756835935"/>
      <point x="-449.36627807617185" y="119.81168212890623" type="curve" smooth="yes"/>
      <point x="-422.4563049316406" y="136.90875854492185"/>
      <point x="-402.6923391824692" y="150.0517433212529"/>
      <point x="-412.67806703491306" y="185.17125140177296" type="curve"/>
      <point x="-408.40911699174546" y="230.49996812119997"/>
      <point x="-441.9" y="270.9"/>
      <point x="-515.9" y="270.9" type="curve" smooth="yes"/>
      <point x="-712.9" y="270.9"/>
      <point x="-714.9" y="14.899999999999977"/>
      <point x="-714.9" y="-124.10000000000002" type="curve" smooth="yes"/>
      <point x="-715.9" y="-437.1"/>
      <point x="-568.9" y="-628.1"/>
      <point x="-290.8609559161821" y="-590.1633905642226" type="curve" smooth="yes"/>
      <point x="253.088623046875" y="-330.0"/>
      <point x="253.0471954345703" y="-72.1288070678711"/>
      <point x="253.00108337402344" y="214.8184814453125" type="curve" smooth="yes"/>
      <point x="253.00054931640625" y="218.20838928222656"/>
      <point x="253.0" y="221.60235595703125"/>
      <point x="253.0" y="225.0" type="curve"/>
      <point x="577.0228875819816" y="225.0" type="line" smooth="yes"/>
      <point x="1005.4993959478061" y="225.0"/>
      <point x="1071.499395947806" y="268.0"/>
      <point x="1098.179395947806" y="292.94" type="curve" smooth="yes"/>
      <point x="1108.418995947806" y="302.5118"/>
      <point x="1127.0784640888876" y="303.0788474987211"/>
      <point x="1137.8803919926604" y="294.14648403983205" type="curve" smooth="yes"/>
      <point x="1169.499395947806" y="268.0"/>
      <point x="1206.499395947806" y="225.0"/>
      <point x="1328.499395947806" y="225.0" type="curve" smooth="yes"/>
      <point x="1534.499395947806" y="225.0"/>
      <point x="1560.499395947806" y="394.47731193210643"/>
      <point x="1560.499395947806" y="458.5499100594991" type="curve" smooth="yes"/>
      <point x="1560.499395947806" y="771.462598588626" type="line" smooth="yes"/>
      <point x="1560.499395947806" y="778.4782239517796"/>
      <point x="1560.8024965337436" y="784.7842425986687"/>
      <point x="1561.0741640142123" y="790.437495823451" type="curve" smooth="yes"/>
      <point x="1562.6491151860873" y="823.2067292705342"/>
      <point x="1563.170050244681" y="834.0451362944513"/>
      <point x="1497.499395947806" y="834.0451362944513" type="curve" smooth="yes"/>
      <point x="1443.6836000493686" y="834.0451362944513"/>
      <point x="1444.3864809087436" y="824.1382898722256"/>
      <point x="1446.480108838431" y="794.6310191412284" type="curve" smooth="yes"/>
      <point x="1446.9541078618686" y="787.9504391023579"/>
      <point x="1447.499395947806" y="780.265132347956"/>
      <point x="1447.499395947806" y="771.462598588626" type="curve" smooth="yes"/>
      <point x="1447.499395947806" y="458.5499100594991" type="line" smooth="yes"/>
      <point x="1447.499395947806" y="425.0235505742355"/>
      <point x="1432.499395947806" y="369.0"/>
      <point x="1328.499395947806" y="369.0" type="curve" smooth="yes"/>
      <point x="1226.499395947806" y="369.0"/>
      <point x="1169.499395947806" y="414.5931276232646"/>
      <point x="1167.499395947806" y="458.5499100594991" type="curve" smooth="yes"/>
      <point x="1167.499395947806" y="695.469517088695" type="line" smooth="yes"/>
      <point x="1167.499395947806" y="704.9730176875778"/>
      <point x="1168.2783266118686" y="713.1937239599097"/>
      <point x="1168.9480043462436" y="720.2614614215472" type="curve" smooth="yes"/>
      <point x="1171.5857606938998" y="748.1006902707106"/>
      <point x="1172.528692822806" y="758.0520547945205"/>
      <point x="1117.499395947806" y="758.0520547945205" type="curve" smooth="yes"/>
      <point x="1061.5222230962436" y="758.0520547945205"/>
      <point x="1062.458624463431" y="748.0470320890257"/>
      <point x="1065.080206494681" y="720.0361880045415" type="curve" smooth="yes"/>
      <point x="1065.7368837407748" y="713.0191529772926"/>
      <point x="1066.499395947806" y="704.8722039682597"/>
      <point x="1066.499395947806" y="695.469517088695" type="curve" smooth="yes"/>
      <point x="1066.499395947806" y="458.5499100594991" type="line" smooth="yes"/>
      <point x="1064.499395947806" y="414.5931276232646"/>
      <point x="1007.4993959478061" y="369.0"/>
    </contour>
  </outline>
</glyph>
<glyph name="uni0634" format="2">
  <advance width="1228"/>
  <unicode hex="0634"/>
  <unicode hex="FEB5"/>
  <outline>
    <contour>
      <point x="358.0" y="369.0" type="curve" smooth="yes"/>
      <point x="254.0" y="369.0"/>
      <point x="238.6015833944855" y="424.66075540940795"/>
      <point x="238.6015833944855" y="458.18711489467154" type="curve" smooth="yes"/>
      <point x="238.6015833944855" y="771.0998034237984" type="line" smooth="yes"/>
      <point x="238.6015833944855" y="776.9085744293961"/>
      <point x="238.776574587227" y="782.2415174260084"/>
      <point x="238.9364794700791" y="787.119269452201" type="curve" smooth="yes"/>
      <point x="240.0847934814921" y="822.276913420746"/>
      <point x="240.4591744688926" y="833.7881214835547"/>
      <point x="155.4465220207584" y="817.1504787715533" type="curve" smooth="yes"/>
      <point x="45.14017978311164" y="777.9321440114252"/>
      <point x="46.25182233684456" y="767.0134829795459"/>
      <point x="49.631979304916754" y="733.7278149704214" type="curve" smooth="yes"/>
      <point x="50.121756090990004" y="728.8938634767705"/>
      <point x="50.659026766744056" y="723.5881079641401"/>
      <point x="50.88328756811222" y="717.631364814891" type="curve" smooth="yes"/>
      <point x="50.88328756811222" y="152.74624036102605" type="line" smooth="yes"/>
      <point x="49.112987117237154" y="-104.19523796782126"/>
      <point x="23.99563811247613" y="-272.7831089736403"/>
      <point x="-290.8609559161821" y="-446.1633905642226" type="curve" smooth="yes"/>
      <point x="-445.9" y="-484.1"/>
      <point x="-558.9" y="-382.1"/>
      <point x="-559.9" y="-124.10000000000002" type="curve" smooth="yes"/>
      <point x="-556.8185485839844" y="51.54251708984373"/>
      <point x="-492.5872406005859" y="92.35150756835935"/>
      <point x="-449.36627807617185" y="119.81168212890623" type="curve" smooth="yes"/>
      <point x="-422.4563049316406" y="136.90875854492185"/>
      <point x="-402.6923391824692" y="150.0517433212529"/>
      <point x="-412.67806703491306" y="185.17125140177296" type="curve"/>
      <point x="-408.40911699174546" y="230.49996812119997"/>
      <point x="-441.9" y="270.9"/>
      <point x="-515.9" y="270.9" type="curve" smooth="yes"/>
      <point x="-712.9" y="270.9"/>
      <point x="-714.9" y="14.899999999999977"/>
      <point x="-714.9" y="-124.10000000000002" type="curve" smooth="yes"/>
      <point x="-715.9" y="-437.1"/>
      <point x="-568.9" y="-628.1"/>
      <point x="-290.8609559161821" y="-590.1633905642226" type="curve" smooth="yes"/>
      <point x="253.088623046875" y="-330.0"/>
      <point x="253.0471954345703" y="-72.1288070678711"/>
      <point x="253.00108337402344" y="214.8184814453125" type="curve" smooth="yes"/>
      <point x="253.00054931640625" y="218.20838928222656"/>
      <point x="253.0" y="221.60235595703125"/>
      <point x="253.0" y="225.0" type="curve"/>
      <point x="358.0" y="225.0" type="line" smooth="yes"/>
      <point x="458.0" y="225.0"/>
      <point x="524.0" y="268.0"/>
      <point x="550.68" y="292.94" type="curve" smooth="yes"/>
      <point x="560.9196" y="302.5118"/>
      <point x="579.5790681410815" y="303.0788474987211"/>
      <point x="590.3809960448542" y="294.14648403983205" type="curve" smooth="yes"/>
      <point x="622.0" y="268.0"/>
      <point x="659.0" y="225.0"/>
      <point x="781.0" y="225.0" type="curve" smooth="yes"/>
      <point x="987.0" y="225.0"/>
      <point x="1013.0" y="394.47731193210643"/>
      <point x="1013.0" y="458.5499100594991" type="curve" smooth="yes"/>
      <point x="1013.0" y="771.462598588626" type="line" smooth="yes"/>
      <point x="1013.0" y="778.4782239517796"/>
      <point x="1013.3031005859375" y="784.7842425986687"/>
      <point x="1013.5747680664062" y="790.437495823451" type="curve" smooth="yes"/>
      <point x="1015.1497192382812" y="823.2067292705342"/>
      <point x="1015.670654296875" y="834.0451362944513"/>
      <point x="950.0" y="834.0451362944513" type="curve" smooth="yes"/>
      <point x="896.1842041015625" y="834.0451362944513"/>
      <point x="896.8870849609375" y="824.1382898722256"/>
      <point x="898.980712890625" y="794.6310191412284" type="curve" smooth="yes"/>
      <point x="899.4547119140625" y="787.9504391023579"/>
      <point x="900.0" y="780.265132347956"/>
      <point x="900.0" y="771.462598588626" type="curve" smooth="yes"/>
      <point x="900.0" y="458.5499100594991" type="line" smooth="yes"/>
      <point x="900.0" y="425.0235505742355"/>
      <point x="885.0" y="369.0"/>
      <point x="781.0" y="369.0" type="curve" smooth="yes"/>
      <point x="679.0" y="369.0"/>
      <point x="622.0" y="414.5931276232646"/>
      <point x="620.0" y="458.5499100594991" type="curve" smooth="yes"/>
      <point x="620.0" y="695.469517088695" type="line" smooth="yes"/>
      <point x="620.0" y="704.9730176875778"/>
      <point x="620.7789306640625" y="713.1937239599097"/>
      <point x="621.4486083984375" y="720.2614614215472" type="curve" smooth="yes"/>
      <point x="624.0863647460938" y="748.1006902707106"/>
      <point x="625.029296875" y="758.0520547945205"/>
      <point x="570.0" y="758.0520547945205" type="curve" smooth="yes"/>
      <point x="514.0228271484375" y="758.0520547945205"/>
      <point x="514.959228515625" y="748.0470320890257"/>
      <point x="517.580810546875" y="720.0361880045415" type="curve" smooth="yes"/>
      <point x="518.2374877929688" y="713.0191529772926"/>
      <point x="519.0" y="704.8722039682597"/>
      <point x="519.0" y="695.469517088695" type="curve" smooth="yes"/>
      <point x="519.0" y="458.5499100594991" type="line" smooth="yes"/>
      <point x="517.0" y="414.5931276232646"/>
      <point x="460.0" y="369.0"/>
    </contour>
    <contour>
      <point x="193.0" y="1108.9612840736127" type="curve" smooth="yes"/>
      <point x="193.0" y="1078.4150454314836"/>
      <point x="292.0" y="1002.4219639315529"/>
      <point x="329.0" y="1002.4219639315529" type="curve" smooth="yes"/>
      <point x="361.0" y="1002.4219639315529"/>
      <point x="464.0" y="1075.434924588349"/>
      <point x="464.0" y="1108.9612840736127" type="curve" smooth="yes"/>
      <point x="464.0" y="1138.0174622941745"/>
      <point x="363.0" y="1217.7356948480235"/>
      <point x="329.0" y="1217.7356948480235" type="curve" smooth="yes"/>
      <point x="294.0" y="1217.7356948480235"/>
      <point x="193.0" y="1140.997583137309"/>
    </contour>
    <contour>
      <point x="676.0" y="1140.997583137309" type="curve" smooth="yes"/>
      <point x="676.0" y="1110.45134449518"/>
      <point x="775.0" y="1034.458262995249"/>
      <point x="812.0" y="1034.458262995249" type="curve" smooth="yes"/>
      <point x="844.0" y="1034.458262995249"/>
      <point x="947.0" y="1107.4712236520454"/>
      <point x="947.0" y="1140.997583137309" type="curve" smooth="yes"/>
      <point x="947.0" y="1170.0537613578708"/>
      <point x="846.0" y="1249.7719939117196"/>
      <point x="812.0" y="1249.7719939117196" type="curve" smooth="yes"/>
      <point x="777.0" y="1249.7719939117196"/>
      <point x="676.0" y="1173.0338822010053"/>
    </contour>
    <contour>
      <point x="396.0" y="1345.135860892025" type="curve" smooth="yes"/>
      <point x="396.0" y="1314.589622249896"/>
      <point x="495.0" y="1238.5965407499652"/>
      <point x="532.0" y="1238.5965407499652" type="curve" smooth="yes"/>
      <point x="564.0" y="1238.5965407499652"/>
      <point x="667.0" y="1311.6095014067614"/>
      <point x="667.0" y="1345.135860892025" type="curve" smooth="yes"/>
      <point x="667.0" y="1374.1920391125868"/>
      <point x="566.0" y="1453.9102716664358"/>
      <point x="532.0" y="1453.9102716664358" type="curve" smooth="yes"/>
      <point x="497.0" y="1453.9102716664358"/>
      <point x="396.0" y="1377.1721599557213"/>
    </contour>
  </outline>
</glyph>
<glyph name="uni0639" format="2">
  <advance width="1228"/>
  <unicode hex="0639"/>
  <unicode hex="FEC9"/>
  <outline>
    <contour>
      <point x="965.0" y="-133.0" type="curve" smooth="yes"/>
      <point x="930.0" y="-133.0"/>
      <point x="909.0" y="-152.0"/>
      <point x="885.0" y="-184.0" type="curve" smooth="yes"/>
      <point x="836.0" y="-252.0"/>
      <point x="772.0" y="-342.0"/>
      <point x="551.0" y="-342.0" type="curve" smooth="yes"/>
      <point x="291.0" y="-342.0"/>
      <point x="211.0" y="-174.0"/>
      <point x="211.0" y="-4.0" type="curve" smooth="yes"/>
      <point x="211.0" y="139.0"/>
      <point x="303.0" y="268.0"/>
      <point x="414.0" y="375.0" type="curve" smooth="yes"/>
      <point x="510.0" y="446.6294266869609"/>
      <point x="670.0" y="489.0961487016281"/>
      <point x="752.0" y="519.6423873437572" type="curve"/>
      <point x="758.0" y="522.6225081868917"/>
      <point x="762.0" y="527.0926894515935"/>
      <point x="762.0" y="535.2880217702135" type="curve" smooth="yes"/>
      <point x="762.0" y="560.6190489368571"/>
      <point x="731.0" y="605.3208615838752"/>
      <point x="707.0" y="605.3208615838752" type="curve" smooth="yes"/>
      <point x="688.0" y="605.3208615838752"/>
      <point x="592.0" y="567.3243208339097"/>
      <point x="524.0" y="547.2085051427516" type="curve" smooth="yes"/>
      <point x="479.0" y="533.7979613486461"/>
      <point x="428.0" y="522.6225081868917"/>
      <point x="381.0" y="522.6225081868917" type="curve" smooth="yes"/>
      <point x="276.0" y="522.6225081868917"/>
      <point x="195.0" y="557.6389280937226"/>
      <point x="195.0" y="666.4133388681332" type="curve" smooth="yes"/>
      <point x="195.0" y="771.4625985886257"/>
      <point x="276.0" y="812.4392601817257"/>
      <point x="324.0" y="812.4392601817257" type="curve" smooth="yes"/>
      <point x="457.0" y="812.4392601817257"/>
      <point x="444.0" y="765.5023569023567"/>
      <point x="510.0" y="765.5023569023567" type="curve" smooth="yes"/>
      <point x="555.0" y="765.5023569023567"/>
      <point x="596.0" y="790.0883538582166"/>
      <point x="596.0" y="831.0650154513166" type="curve" smooth="yes"/>
      <point x="596.0" y="889.1773718924401"/>
      <point x="522.0" y="916.7434896914347"/>
      <point x="430.0" y="916.7434896914347" type="curve" smooth="yes"/>
      <point x="266.0" y="916.7434896914347"/>
      <point x="70.0" y="838.5153175591529"/>
      <point x="70.0" y="667.9033992897005" type="curve" smooth="yes"/>
      <point x="70.0" y="519.6423873437572"/>
      <point x="174.0" y="452.58966837323"/>
      <point x="251.86100280576608" y="441.4519789014466" type="curve" smooth="yes"/>
      <point x="276.8446713187101" y="437.87817004032394"/>
      <point x="283.1483136363118" y="422.74946459764834"/>
      <point x="265.27300773683356" y="409.2632439170304" type="curve" smooth="yes"/>
      <point x="141.0" y="289.0"/>
      <point x="70.0" y="145.0"/>
      <point x="70.0" y="-4.0" type="curve" smooth="yes"/>
      <point x="70.0" y="-317.0"/>
      <point x="260.0" y="-485.0"/>
      <point x="551.0" y="-485.0" type="curve" smooth="yes"/>
      <point x="872.0" y="-485.0"/>
      <point x="1051.0" y="-332.0"/>
      <point x="1051.0" y="-221.0" type="curve" smooth="yes"/>
      <point x="1051.0" y="-166.0"/>
      <point x="1010.0" y="-133.0"/>
    </contour>
  </outline>
</glyph>
<glyph name="uni064A" format="2">
  <advance width="1228"/>
  <unicode hex="064A"/>
  <unicode hex="FEF1"/>
  <outline>
    <contour>
      <point x="1036.0" y="279.0" type="curve" smooth="yes"/>
      <point x="1036.0" y="432.4738526820718"/>
      <point x="961.0" y="473.31289268856176"/>
      <point x="760.0" y="431.5371857567824" type="curve" smooth="yes"/>
      <point x="604.0" y="381.206368984234"/>
      <point x="596.0" y="435.1019893368579"/>
      <point x="596.0" y="487.25410409171235" type="curve" smooth="yes"/>
      <point x="596.0" y="583.3630012828013"/>
      <point x="711.0" y="707.251860192642"/>
      <point x="805.0" y="736.2761401707364" type="curve" smooth="yes"/>
      <point x="920.0" y="760.7960006876727"/>
      <point x="850.0" y="647.3601952915033"/>
      <point x="950.0" y="663.3066657995969" type="curve" smooth="yes"/>
      <point x="995.0" y="664.923278446566"/>
      <point x="1036.0" y="689.509275402426"/>
      <point x="1036.0" y="730.4859369955259" type="curve" smooth="yes"/>
      <point x="1036.0" y="812.4392601817258"/>
      <point x="928.0" y="854.9013725764357"/>
      <point x="807.0" y="829.9670725128964" type="curve" smooth="yes"/>
      <point x="612.0" y="770.7039844459025"/>
      <point x="455.0" y="595.7312519567707"/>
      <point x="455.0" y="467.58605570198546" type="curve" smooth="yes"/>
      <point x="455.0" y="337.128562723627"/>
      <point x="463.0" y="227.40905945322172"/>
      <point x="760.0" y="319.74277994136065" type="curve" smooth="yes"/>
      <point x="852.0" y="354.04979719990826"/>
      <point x="895.0" y="338.66741498753"/>
      <point x="895.0" y="267.66741498753" type="curve" smooth="yes"/>
      <point x="895.0" y="140.66741498752998"/>
      <point x="817.0" y="-22.775187293162297"/>
      <point x="492.0" y="-135.2630707306405" type="curve" smooth="yes"/>
      <point x="231.0" y="-138.0"/>
      <point x="180.0" y="16.0"/>
      <point x="180.0" y="129.0" type="curve" smooth="yes"/>
      <point x="180.0" y="202.0"/>
      <point x="193.0" y="268.0"/>
      <point x="229.0" y="337.0" type="curve" smooth="yes"/>
      <point x="260.0" y="395.96737235367374"/>
      <point x="334.0" y="389.0"/>
      <point x="334.0" y="447.37445689774455" type="curve" smooth="yes"/>
      <point x="334.0" y="481.64584659379176"/>
      <point x="301.0" y="511.44705502513716"/>
      <point x="246.0" y="511.44705502513716" type="curve" smooth="yes"/>
      <point x="90.0" y="511.44705502513716"/>
      <point x="39.0" y="268.0"/>
      <point x="39.0" y="129.0" type="curve" smooth="yes"/>
      <point x="39.0" y="-127.0"/>
      <point x="201.0" y="-281.0"/>
      <point x="492.0" y="-278.2630707306405" type="curve" smooth="yes"/>
      <point x="858.0" y="-152.12135345724087"/>
      <point x="1036.0" y="41.0"/>
    </contour>
    <contour>
      <point x="206.0" y="-695.0" type="curve" smooth="yes"/>
      <point x="206.0" y="-736.0"/>
      <point x="305.0" y="-838.0"/>
      <point x="342.0" y="-838.0" type="curve" smooth="yes"/>
      <point x="374.0" y="-838.0"/>
      <point x="477.0" y="-740.0"/>
      <point x="477.0" y="-695.0" type="curve" smooth="yes"/>
      <point x="477.0" y="-656.0"/>
      <point x="376.0" y="-549.0"/>
      <point x="342.0" y="-549.0" type="curve" smooth="yes"/>
      <point x="307.0" y="-549.0"/>
      <point x="206.0" y="-652.0"/>
    </contour>
    <contour>
      <point x="528.0" y="-600.249975153994" type="curve" smooth="yes"/>
      <point x="528.0" y="-641.249975153994"/>
      <point x="627.0" y="-743.249975153994"/>
      <point x="664.0" y="-743.249975153994" type="curve" smooth="yes"/>
      <point x="696.0" y="-743.249975153994"/>
      <point x="799.0" y="-645.249975153994"/>
      <point x="799.0" y="-600.249975153994" type="curve" smooth="yes"/>
      <point x="799.0" y="-561.249975153994"/>
      <point x="698.0" y="-454.249975153994"/>
      <point x="664.0" y="-454.249975153994" type="curve" smooth="yes"/>
      <point x="629.0" y="-454.249975153994"/>
      <point x="528.0" y="-557.249975153994"/>
    </contour>
  </outline>
</glyph>
<glyph name="uni064B" format="2">
  <unicode hex="064B"/>
  <outline>
    <contour>
      <point x="688.0" y="1327.2551358332178" type="curve"/>
      <point x="291.0" y="1056.8091693187582" type="line" smooth="yes"/>
      <point x="266.0" y="1040.4185046815182"/>
      <point x="252.0" y="1029.2430515197636"/>
      <point x="252.0" y="1017.3225681472254" type="curve" smooth="yes"/>
      <point x="252.0" y="992.7365711913656"/>
      <point x="293.0" y="956.2300908629675"/>
      <point x="322.0" y="956.2300908629675" type="curve" smooth="yes"/>
      <point x="342.0" y="956.2300908629675"/>
      <point x="358.0" y="965.170453392371"/>
      <point x="383.0" y="980.8160878188273" type="curve" smooth="yes"/>
      <point x="786.0" y="1249.026963700936" type="line" smooth="yes"/>
      <point x="809.0" y="1264.6725981273923"/>
      <point x="823.0" y="1278.0831419214978"/>
      <point x="823.0" y="1290.003625294036" type="curve" smooth="yes"/>
      <point x="823.0" y="1314.589622249896"/>
      <point x="778.0" y="1351.0961025782942"/>
      <point x="750.0" y="1351.0961025782942" type="curve" smooth="yes"/>
      <point x="729.0" y="1351.0961025782942"/>
      <point x="715.0" y="1343.6458004704577"/>
    </contour>
    <contour>
      <point x="688.0" y="1029.9880817305473" type="curve"/>
      <point x="291.0" y="759.5421152160877" type="line" smooth="yes"/>
      <point x="266.0" y="743.1514505788477"/>
      <point x="252.0" y="731.9759974170933"/>
      <point x="252.0" y="720.0555140445551" type="curve" smooth="yes"/>
      <point x="252.0" y="695.469517088695"/>
      <point x="293.0" y="658.963036760297"/>
      <point x="322.0" y="658.963036760297" type="curve" smooth="yes"/>
      <point x="342.0" y="658.963036760297"/>
      <point x="358.0" y="667.9033992897006"/>
      <point x="383.0" y="683.5490337161569" type="curve" smooth="yes"/>
      <point x="786.0" y="951.7599095982655" type="line" smooth="yes"/>
      <point x="809.0" y="967.4055440247218"/>
      <point x="823.0" y="980.8160878188273"/>
      <point x="823.0" y="992.7365711913656" type="curve" smooth="yes"/>
      <point x="823.0" y="1017.3225681472254"/>
      <point x="778.0" y="1053.8290484756237"/>
      <point x="750.0" y="1053.8290484756237" type="curve" smooth="yes"/>
      <point x="729.0" y="1053.8290484756237"/>
      <point x="715.0" y="1046.3787463677872"/>
    </contour>
  </outline>
</glyph>
<glyph name="uni065E" format="2">
  <unicode hex="065E"/>
  <outline>
    <contour>
      <point x="723.0" y="1315.3346524606795" type="curve"/>
      <point x="326.0" y="1044.88868594622" type="line" smooth="yes"/>
      <point x="301.0" y="1028.49802130898"/>
      <point x="287.0" y="1017.3225681472254"/>
      <point x="287.0" y="1005.4020847746874" type="curve" smooth="yes"/>
      <point x="287.0" y="980.8160878188273"/>
      <point x="328.0" y="944.3096074904292"/>
      <point x="357.0" y="944.3096074904292" type="curve" smooth="yes"/>
      <point x="377.0" y="944.3096074904292"/>
      <point x="393.0" y="953.249970019833"/>
      <point x="418.0" y="968.8956044462893" type="curve" smooth="yes"/>
      <point x="821.0" y="1237.106480328398" type="line" smooth="yes"/>
      <point x="844.0" y="1252.7521147548543"/>
      <point x="858.0" y="1266.1626585489596"/>
      <point x="858.0" y="1278.0831419214978" type="curve" smooth="yes"/>
      <point x="858.0" y="1302.669138877358"/>
      <point x="813.0" y="1339.175619205756"/>
      <point x="785.0" y="1339.175619205756" type="curve" smooth="yes"/>
      <point x="764.0" y="1339.175619205756"/>
      <point x="750.0" y="1331.7253170979195"/>
    </contour>
    <contour>
      <point x="585.0" y="983.0511784511782" type="curve" smooth="yes"/>
      <point x="585.0" y="952.5049398090493"/>
      <point x="684.0" y="876.5118583091185"/>
      <point x="721.0" y="876.5118583091185" type="curve" smooth="yes"/>
      <point x="753.0" y="876.5118583091185"/>
      <point x="856.0" y="949.5248189659146"/>
      <point x="856.0" y="983.0511784511782" type="curve" smooth="yes"/>
      <point x="856.0" y="1012.10735667174"/>
      <point x="755.0" y="1091.825589225589"/>
      <point x="721.0" y="1091.825589225589" type="curve" smooth="yes"/>
      <point x="686.0" y="1091.825589225589"/>
      <point x="585.0" y="1015.0874775148745"/>
    </contour>
    <contour>
      <point x="217.0" y="1348.1159817351595" type="curve" smooth="yes"/>
      <point x="217.0" y="1317.5697430930306"/>
      <point x="316.0" y="1241.5766615930997"/>
      <point x="353.0" y="1241.5766615930997" type="curve" smooth="yes"/>
      <point x="385.0" y="1241.5766615930997"/>
      <point x="488.0" y="1314.589622249896"/>
      <point x="488.0" y="1348.1159817351595" type="curve" smooth="yes"/>
      <point x="488.0" y="1377.1721599557213"/>
      <point x="387.0" y="1456.8903925095703"/>
      <point x="353.0" y="1456.8903925095703" type="curve" smooth="yes"/>
      <point x="318.0" y="1456.8903925095703"/>
      <point x="217.0" y="1380.1522807988558"/>
    </contour>
  </outline>
</glyph>
<glyph name="uni0660" format="2">
  <advance width="1228"/>
  <unicode hex="0660"/>
  <unicode hex="06F0"/>
  <outline>
    <contour>
      <point x="375.0" y="565.8342604123426" type="curve" smooth="yes"/>
      <point x="375.0" y="524.112568608459"/>
      <point x="487.0" y="423.5334901526682"/>
      <point x="539.0" y="423.5334901526682" type="curve" smooth="yes"/>
      <point x="584.0" y="423.5334901526682"/>
      <point x="700.0" y="521.1324477653245"/>
      <point x="700.0" y="565.8342604123426" type="curve" smooth="yes"/>
      <point x="700.0" y="605.3208615838753"/>
      <point x="586.0" y="707.3900004612333"/>
      <point x="539.0" y="707.3900004612333" type="curve" smooth="yes"/>
      <point x="489.0" y="707.3900004612333"/>
      <point x="375.0" y="606.8109220054425"/>
    </contour>
  </outline>
</glyph>
<glyph name="uni0661" format="2">
  <advance width="1228"/>
  <unicode hex="0661"/>
  <unicode hex="06F1"/>
  <outline>
    <contour>
      <point x="375.0" y="1032.2231723628981" type="curve" smooth="yes"/>
      <point x="336.0" y="1032.2231723628981"/>
      <point x="303.0" y="1001.6769337207691"/>
      <point x="303.0" y="968.1505742355055" type="curve" smooth="yes"/>
      <point x="303.0" y="944.3096074904292"/>
      <point x="309.0" y="937.6043355933764"/>
      <point x="334.0" y="916.7434896914347" type="curve" smooth="yes"/>
      <point x="444.0" y="819.1445320787784"/>
      <point x="629.0" y="609.791042848577"/>
      <point x="629.0" y="82.0" type="curve" smooth="yes"/>
      <point x="629.0" y="25.0"/>
      <point x="666.0" y="0.0"/>
      <point x="700.0" y="0.0" type="curve" smooth="yes"/>
      <point x="735.0" y="0.0"/>
      <point x="770.0" y="25.0"/>
      <point x="770.0" y="82.0" type="curve" smooth="yes"/>
      <point x="770.0" y="539.7582030349154"/>
      <point x="635.0" y="876.5118583091185"/>
      <point x="436.0" y="1014.3424473040909" type="curve" smooth="yes"/>
      <point x="416.0" y="1027.7529910981964"/>
      <point x="395.0" y="1032.2231723628981"/>
    </contour>
  </outline>
</glyph>
<glyph name="uni0663" format="2">
  <advance width="1228"/>
  <unicode hex="0663"/>
  <unicode hex="06F3"/>
  <outline>
    <contour>
      <point x="160.0" y="1032.2231723628981" type="curve" smooth="yes"/>
      <point x="121.0" y="1032.2231723628981"/>
      <point x="88.0" y="1001.6769337207691"/>
      <point x="88.0" y="968.1505742355055" type="curve" smooth="yes"/>
      <point x="88.0" y="944.3096074904292"/>
      <point x="94.0" y="937.6043355933764"/>
      <point x="119.0" y="916.7434896914347" type="curve" smooth="yes"/>
      <point x="229.0" y="819.1445320787784"/>
      <point x="414.0" y="609.791042848577"/>
      <point x="414.0" y="82.0" type="curve" smooth="yes"/>
      <point x="414.0" y="25.0"/>
      <point x="451.0" y="0.0"/>
      <point x="485.0" y="0.0" type="curve" smooth="yes"/>
      <point x="520.0" y="0.0"/>
      <point x="555.0" y="25.0"/>
      <point x="555.0" y="82.0" type="curve" smooth="yes"/>
      <point x="555.0" y="413.10306720169734"/>
      <point x="498.0" y="629.9068585397351"/>
      <point x="404.46722199516364" y="798.1356881316262" type="curve" smooth="yes"/>
      <point x="401.5695943377269" y="803.3473852478869"/>
      <point x="405.1194" y="805.9101134265022"/>
      <point x="412.02" y="803.5883012776162" type="curve" smooth="yes"/>
      <point x="430.0" y="797.538655966053"/>
      <point x="459.0" y="793.0684747013513"/>
      <point x="483.0" y="793.0684747013513" type="curve" smooth="yes"/>
      <point x="592.0" y="793.0684747013513"/>
      <point x="578.0" y="922.7037313777037"/>
      <point x="606.0" y="922.7037313777037" type="curve" smooth="yes"/>
      <point x="647.0" y="922.7037313777037"/>
      <point x="621.0" y="799.0287163876203"/>
      <point x="786.0" y="799.0287163876203" type="curve" smooth="yes"/>
      <point x="897.0" y="799.0287163876203"/>
      <point x="999.0" y="899.607794843411"/>
      <point x="999.0" y="966.6605138139382" type="curve" smooth="yes"/>
      <point x="999.0" y="1008.3822056178219"/>
      <point x="958.0" y="1032.2231723628981"/>
      <point x="913.0" y="1032.2231723628981" type="curve" smooth="yes"/>
      <point x="827.0" y="1032.2231723628981"/>
      <point x="848.0" y="908.5481573728148"/>
      <point x="786.0" y="908.5481573728148" type="curve" smooth="yes"/>
      <point x="688.0" y="908.5481573728148"/>
      <point x="705.0" y="1032.2231723628981"/>
      <point x="606.0" y="1032.2231723628981" type="curve" smooth="yes"/>
      <point x="510.0" y="1032.2231723628981"/>
      <point x="516.0" y="902.5879156865456"/>
      <point x="426.0" y="902.5879156865456" type="curve" smooth="yes"/>
      <point x="375.0" y="902.5879156865456"/>
      <point x="332.0" y="916.7434896914347"/>
      <point x="295.0" y="950.2698491766982" type="curve" smooth="yes"/>
      <point x="260.0" y="982.3061482403946"/>
      <point x="217.0" y="1032.2231723628981"/>
    </contour>
  </outline>
</glyph>
<glyph name="uni0666" format="2">
  <advance width="1228"/>
  <unicode hex="0666"/>
  <outline>
    <contour>
      <point x="817.0" y="1032.2231723628981" type="curve" smooth="yes"/>
      <point x="788.0" y="1032.2231723628981"/>
      <point x="768.0" y="1021.7927494119272"/>
      <point x="748.0" y="1000.1868732992018" type="curve" smooth="yes"/>
      <point x="702.0" y="954.7400304414"/>
      <point x="686.0" y="918.2335501130019"/>
      <point x="528.0" y="918.2335501130019" type="curve" smooth="yes"/>
      <point x="328.0" y="918.2335501130019"/>
      <point x="358.0" y="1032.2231723628981"/>
      <point x="258.0" y="1032.2231723628981" type="curve" smooth="yes"/>
      <point x="213.0" y="1032.2231723628981"/>
      <point x="172.0" y="1008.3822056178219"/>
      <point x="172.0" y="966.6605138139382" type="curve" smooth="yes"/>
      <point x="172.0" y="884.7071906277383"/>
      <point x="350.0" y="807.9690789170239"/>
      <point x="528.0" y="807.9690789170239" type="curve" smooth="yes"/>
      <point x="590.0" y="807.9690789170239"/>
      <point x="602.0" y="809.4591393385913"/>
      <point x="637.96" y="818.5336073059359" type="curve" smooth="yes"/>
      <point x="651.7612" y="822.0163255292651"/>
      <point x="661.8756713836437" y="815.6086397841418"/>
      <point x="659.480151880093" y="804.9002333801416" type="curve" smooth="yes"/>
      <point x="653.0" y="775.9327798533277"/>
      <point x="647.0" y="721.5455744661223"/>
      <point x="647.0" y="658.963036760297" type="curve" smooth="yes"/>
      <point x="647.0" y="501.7616622849499"/>
      <point x="684.0" y="311.0"/>
      <point x="760.0" y="61.0" type="curve" smooth="yes"/>
      <point x="774.0" y="16.0"/>
      <point x="803.0" y="0.0"/>
      <point x="831.0" y="0.0" type="curve" smooth="yes"/>
      <point x="877.0" y="0.0"/>
      <point x="901.0" y="31.0"/>
      <point x="901.0" y="72.0" type="curve" smooth="yes"/>
      <point x="901.0" y="92.0"/>
      <point x="864.0" y="195.0"/>
      <point x="852.0" y="250.0" type="curve" smooth="yes"/>
      <point x="811.0" y="413.10306720169734"/>
      <point x="797.0" y="519.6423873437572"/>
      <point x="797.0" y="611.2811032701443" type="curve" smooth="yes"/>
      <point x="797.0" y="774.4427194317603"/>
      <point x="846.0" y="860.1211936718785"/>
      <point x="885.0" y="928.6639730639729" type="curve" smooth="yes"/>
      <point x="895.0" y="945.7996679119965"/>
      <point x="899.0" y="954.7400304414"/>
      <point x="899.0" y="965.170453392371" type="curve" smooth="yes"/>
      <point x="899.0" y="1000.1868732992018"/>
      <point x="858.0" y="1032.2231723628981"/>
    </contour>
  </outline>
</glyph>
<glyph name="uni066C" format="2">
  <advance width="1228"/>
  <unicode hex="066C"/>
  <outline>
    <contour>
      <point x="561.0" y="449.6095475300955" type="curve" smooth="yes"/>
      <point x="561.0" y="354.0"/>
      <point x="481.0" y="324.0"/>
      <point x="438.0" y="324.0" type="curve" smooth="yes"/>
      <point x="418.0" y="324.0"/>
      <point x="397.0" y="307.0"/>
      <point x="397.0" y="272.0" type="curve" smooth="yes"/>
      <point x="397.0" y="242.0"/>
      <point x="414.0" y="225.0"/>
      <point x="449.0" y="225.0" type="curve" smooth="yes"/>
      <point x="508.0" y="225.0"/>
      <point x="678.0" y="291.0"/>
      <point x="678.0" y="509.2119643927863" type="curve" smooth="yes"/>
      <point x="678.0" y="609.791042848577"/>
      <point x="602.0" y="658.963036760297"/>
      <point x="524.0" y="658.963036760297" type="curve" smooth="yes"/>
      <point x="451.0" y="658.963036760297"/>
      <point x="397.0" y="615.7512845348461"/>
      <point x="397.0" y="564.3441999907753" type="curve" smooth="yes"/>
      <point x="397.0" y="532.307900927079"/>
      <point x="432.0" y="503.25172270651717"/>
      <point x="453.0" y="503.25172270651717" type="curve" smooth="yes"/>
      <point x="475.0" y="503.25172270651717"/>
      <point x="481.0" y="510.70202481435354"/>
      <point x="508.0" y="510.70202481435354" type="curve" smooth="yes"/>
      <point x="520.0" y="510.70202481435354"/>
      <point x="561.0" y="489.0961487016281"/>
    </contour>
  </outline>
</glyph>
<glyph name="uni066D" format="2">
  <advance width="1228"/>
  <unicode hex="066D"/>
  <outline>
    <contour>
      <point x="1071.0" y="495.0563903878972" type="curve" smooth="yes"/>
      <point x="1071.0" y="519.6423873437572"/>
      <point x="1047.0" y="536.7780821917808"/>
      <point x="1014.0" y="536.7780821917808" type="curve" smooth="yes"/>
      <point x="987.0" y="536.7780821917808"/>
      <point x="958.0" y="527.0926894515935"/>
      <point x="934.0" y="522.6225081868918" type="curve" smooth="yes"/>
      <point x="654.045043368118" y="461.20167863615563" type="line" smooth="yes"/>
      <point x="629.6411703830154" y="455.8475811733744"/>
      <point x="607.6208938746357" y="467.90511618279027"/>
      <point x="607.1933912226291" y="486.8560084434235" type="curve" smooth="yes"/>
      <point x="606.0" y="539.7582030349154"/>
      <point x="598.0" y="629.9068585397351"/>
      <point x="598.0" y="717.8204234122041" type="curve" smooth="yes"/>
      <point x="598.0" y="726.0157557308241" type="line" smooth="yes"/>
      <point x="598.0" y="753.5818735298187"/>
      <point x="594.0" y="796.0485955444858"/>
      <point x="541.0" y="796.0485955444858" type="curve" smooth="yes"/>
      <point x="483.0" y="796.0485955444858"/>
      <point x="479.0" y="755.071933951386"/>
      <point x="479.0" y="727.5058161523914" type="curve" smooth="yes"/>
      <point x="479.0" y="719.3104838337715" type="line"/>
      <point x="470.33281922753696" y="486.84726919268303" type="line" smooth="yes"/>
      <point x="469.62642503694235" y="467.9010087349423"/>
      <point x="447.35882961698456" y="455.8475811733744"/>
      <point x="422.95495663188206" y="461.20167863615563" type="curve" smooth="yes"/>
      <point x="143.0" y="522.6225081868918" type="line" smooth="yes"/>
      <point x="119.0" y="527.0926894515935"/>
      <point x="90.0" y="536.7780821917808"/>
      <point x="63.0" y="536.7780821917808" type="curve" smooth="yes"/>
      <point x="33.0" y="536.7780821917808"/>
      <point x="4.0" y="519.6423873437572"/>
      <point x="4.0" y="495.0563903878972" type="curve" smooth="yes"/>
      <point x="4.0" y="475.6856049075227"/>
      <point x="23.0" y="460.03997048106635"/>
      <point x="49.0" y="452.58966837323" type="curve" smooth="yes"/>
      <point x="125.0" y="430.9837922605046"/>
      <point x="203.0" y="413.10306720169734"/>
      <point x="279.0" y="391.0" type="curve" smooth="yes"/>
      <point x="328.0" y="375.0"/>
      <point x="377.0" y="352.0"/>
      <point x="405.42" y="345.04" type="curve" smooth="yes"/>
      <point x="416.3274" y="342.3688"/>
      <point x="420.8621793231491" y="331.4692788761721"/>
      <point x="415.0684666449981" y="321.84952952377046" type="curve" smooth="yes"/>
      <point x="373.0" y="252.0"/>
      <point x="307.0" y="170.0"/>
      <point x="252.0" y="84.0" type="curve" smooth="yes"/>
      <point x="229.0" y="47.0"/>
      <point x="186.0" y="8.0"/>
      <point x="186.0" y="-35.0" type="curve"/>
      <point x="188.0" y="-66.0"/>
      <point x="215.0" y="-86.0"/>
      <point x="244.0" y="-86.0" type="curve" smooth="yes"/>
      <point x="270.0" y="-86.0"/>
      <point x="287.0" y="-70.0"/>
      <point x="303.0" y="-49.0" type="curve" smooth="yes"/>
      <point x="518.0" y="229.0" type="line"/>
      <point x="522.0" y="236.0"/>
      <point x="530.0" y="250.0"/>
      <point x="539.0" y="250.0" type="curve" smooth="yes"/>
      <point x="547.0" y="250.0"/>
      <point x="555.0" y="236.0"/>
      <point x="559.0" y="229.0" type="curve"/>
      <point x="774.0" y="-49.0" type="line" smooth="yes"/>
      <point x="791.0" y="-70.0"/>
      <point x="807.0" y="-86.0"/>
      <point x="834.0" y="-86.0" type="curve" smooth="yes"/>
      <point x="862.0" y="-86.0"/>
      <point x="889.0" y="-66.0"/>
      <point x="891.0" y="-35.0" type="curve"/>
      <point x="891.0" y="8.0"/>
      <point x="848.0" y="47.0"/>
      <point x="825.0" y="84.0" type="curve" smooth="yes"/>
      <point x="770.0" y="170.0"/>
      <point x="705.0" y="252.0"/>
      <point x="662.0817498161106" y="321.94085215152353" type="curve" smooth="yes"/>
      <point x="656.208422413572" y="331.51220051121607"/>
      <point x="660.6726" y="342.3688"/>
      <point x="671.58" y="345.04" type="curve" smooth="yes"/>
      <point x="700.0" y="352.0"/>
      <point x="750.0" y="375.0"/>
      <point x="799.0" y="391.0" type="curve"/>
      <point x="874.0" y="413.10306720169734"/>
      <point x="952.0" y="430.9837922605046"/>
      <point x="1028.0" y="452.58966837323" type="curve" smooth="yes"/>
      <point x="1055.0" y="460.03997048106635"/>
      <point x="1071.0" y="474.19554448595545"/>
    </contour>
  </outline>
</glyph>
<glyph name="uni066E" format="2">
  <advance width="1228"/>
  <unicode hex="066E"/>
  <outline>
    <contour>
      <point x="229.0" y="707.5762580139292" type="curve" smooth="yes"/>
      <point x="119.0" y="707.5762580139292"/>
      <point x="57.0" y="583.9012430238457"/>
      <point x="57.0" y="451.28586550435864" type="curve" smooth="yes"/>
      <point x="57.0" y="327.25"/>
      <point x="78.0" y="157.25"/>
      <point x="219.0" y="157.25" type="curve" smooth="yes"/>
      <point x="954.0" y="225.0" type="line" smooth="yes"/>
      <point x="1012.0" y="225.0"/>
      <point x="1026.0" y="246.0"/>
      <point x="1026.0" y="309.0" type="curve" smooth="yes"/>
      <point x="1026.0" y="695.469517088695" type="line" smooth="yes"/>
      <point x="1026.0" y="742.4064203680641"/>
      <point x="1014.0" y="758.0520547945205"/>
      <point x="956.0" y="758.0520547945205" type="curve" smooth="yes"/>
      <point x="899.0" y="756.2594654292557"/>
      <point x="885.0" y="739.6044835599579"/>
      <point x="885.0" y="692.6675802805889" type="curve" smooth="yes"/>
      <point x="885.0" y="408.06603976124023" type="line" smooth="yes"/>
      <point x="885.0" y="387.79916350296844"/>
      <point x="862.44" y="362.4726833871077"/>
      <point x="837.0" y="358.56511269626816" type="curve" smooth="yes"/>
      <point x="234.90447410008736" y="301.25" type="line" smooth="yes"/>
      <point x="227.53510282704104" y="301.25"/>
      <point x="218.2364" y="307.172"/>
      <point x="215.12" y="313.85" type="curve" smooth="yes"/>
      <point x="207.0" y="331.25"/>
      <point x="199.0" y="366.25"/>
      <point x="199.0" y="451.28586550435864" type="curve" smooth="yes"/>
      <point x="199.0" y="600.2919076610857"/>
      <point x="317.0" y="568.2556085973894"/>
      <point x="317.0" y="643.5036598865365" type="curve" smooth="yes"/>
      <point x="317.0" y="677.0300193718001"/>
      <point x="285.0" y="707.5762580139292"/>
    </contour>
  </outline>
</glyph>
<glyph name="uni066F" format="2">
  <advance width="1228"/>
  <unicode hex="066F"/>
  <outline>
    <contour>
      <point x="432.7140449438202" y="12.0" type="curve" smooth="yes"/>
      <point x="172.71404494382023" y="12.0"/>
      <point x="163.05224719101125" y="166.0"/>
      <point x="190.0" y="336.0" type="curve" smooth="yes"/>
      <point x="190.0" y="405.652765093861"/>
      <point x="203.0" y="475.6856049075227"/>
      <point x="240.0" y="527.0926894515935" type="curve" smooth="yes"/>
      <point x="270.0" y="571.7945020986117"/>
      <point x="344.0" y="565.8342604123426"/>
      <point x="344.0" y="623.2015866426825" type="curve" smooth="yes"/>
      <point x="344.0" y="657.4729763387297"/>
      <point x="311.0" y="687.2741847700752"/>
      <point x="256.0" y="687.2741847700752" type="curve" smooth="yes"/>
      <point x="100.0" y="687.2741847700752"/>
      <point x="49.0" y="454.0797287947973"/>
      <point x="49.0" y="336.0" type="curve" smooth="yes"/>
      <point x="-43.26179775280899" y="23.0"/>
      <point x="77.4" y="-131.0"/>
      <point x="367.4" y="-131.0" type="curve" smooth="yes"/>
      <point x="1163.6" y="-131.0"/>
      <point x="1044.726404494382" y="184.0"/>
      <point x="1026.0" y="425.0235505742355" type="curve" smooth="yes"/>
      <point x="1026.0" y="778.9129006964622" type="line" smooth="yes"/>
      <point x="1026.0" y="869.0615562012822"/>
      <point x="995.0" y="919.7236105345694"/>
      <point x="856.0" y="919.7236105345694" type="curve" smooth="yes"/>
      <point x="614.0" y="919.7236105345694"/>
      <point x="516.0" y="775.9327798533277"/>
      <point x="516.0" y="650.7677044416771" type="curve" smooth="yes"/>
      <point x="516.0" y="524.112568608459"/>
      <point x="586.0" y="464.5101517457682"/>
      <point x="780.0" y="464.5101517457682" type="curve" smooth="yes"/>
      <point x="819.0" y="464.5101517457682"/>
      <point x="856.0" y="468.23530279968634"/>
      <point x="872.82" y="470.8280079332134" type="curve" smooth="yes"/>
      <point x="879.2754" y="471.823070282736"/>
      <point x="885.0" y="468.35015645214924"/>
      <point x="885.0" y="463.4388295702627" type="curve" smooth="yes"/>
      <point x="885.0" y="425.0235505742355" type="line" smooth="yes"/>
      <point x="896.8752808988764" y="199.0"/>
      <point x="969.2859550561798" y="12.0"/>
    </contour>
    <contour>
      <point x="885.0" y="778.9129006964622" type="curve" smooth="yes"/>
      <point x="885.0" y="608.3009824270098" type="line"/>
      <point x="879.0" y="573.284562520179"/>
      <point x="825.0" y="571.7945020986117"/>
      <point x="780.0" y="571.7945020986117" type="curve" smooth="yes"/>
      <point x="662.0" y="571.7945020986117"/>
      <point x="641.0" y="585.2050458927172"/>
      <point x="641.0" y="650.7677044416771" type="curve" smooth="yes"/>
      <point x="641.0" y="714.8403025690696"/>
      <point x="678.0" y="826.5948341866149"/>
      <point x="856.0" y="826.5948341866149" type="curve" smooth="yes"/>
      <point x="883.0" y="826.5948341866149"/>
      <point x="885.0" y="817.6544716572114"/>
    </contour>
  </outline>
</glyph>
<glyph name="uni0676" format="2">
  <advance width="1228"/>
  <unicode hex="0676"/>
  <outline>
    <contour>
      <point x="372.86284379459346" y="271.2924211995299" type="curve" smooth="yes"/>
      <point x="377.17553658345895" y="271.66743796377904"/>
      <point x="380.9616139892578" y="268.16129651489257"/>
      <point x="380.91832763671874" y="263.83254577636717" type="curve" smooth="yes"/>
      <point x="380.8055419921875" y="252.55368041992188"/>
      <point x="380.7623291015625" y="233.65570068359375"/>
      <point x="380.7205810546875" y="215.38327026367188" type="curve" smooth="yes"/>
      <point x="380.332763671875" y="45.72869873046875"/>
      <point x="380.0682067871094" y="-70.0"/>
      <point x="260.0" y="-70.0" type="curve" smooth="yes"/>
      <point x="143.0" y="-70.0"/>
      <point x="186.0" y="47.0"/>
      <point x="86.0" y="47.0" type="curve" smooth="yes"/>
      <point x="41.0" y="47.0"/>
      <point x="0.0" y="14.0"/>
      <point x="0.0" y="-41.0" type="curve" smooth="yes"/>
      <point x="0.0" y="-127.0"/>
      <point x="125.0" y="-213.0"/>
      <point x="260.0" y="-213.0" type="curve" smooth="yes"/>
      <point x="532.0" y="-213.0"/>
      <point x="532.0" y="135.0"/>
      <point x="532.0" y="449.6095475300955" type="curve" smooth="yes"/>
      <point x="532.0" y="568.8143812554771" type="line" smooth="yes"/>
      <point x="532.0" y="701.4297587749642"/>
      <point x="444.0" y="740.9163599464969"/>
      <point x="348.0" y="740.9163599464969" type="curve" smooth="yes"/>
      <point x="76.0" y="740.9163599464969"/>
      <point x="0.0" y="571.7945020986116"/>
      <point x="0.0" y="472.70548406438814" type="curve" smooth="yes"/>
      <point x="0.0" y="301.0"/>
      <point x="102.0" y="266.0"/>
      <point x="250.0" y="266.0" type="curve" smooth="yes"/>
      <point x="272.0" y="266.0"/>
      <point x="358.0" y="270.0"/>
    </contour>
    <contour>
      <point x="790.0" y="1181.9742447304088" type="curve" smooth="yes"/>
      <point x="653.0" y="1181.9742447304088"/>
      <point x="530.0" y="1062.7694110050272"/>
      <point x="530.0" y="953.2499700198327" type="curve" smooth="yes"/>
      <point x="530.0" y="876.5118583091185"/>
      <point x="647.0" y="804.9889580738893"/>
      <point x="689.8956460891199" y="798.7020297629103" type="curve" smooth="yes"/>
      <point x="699.4909536618864" y="797.2957096271454"/>
      <point x="701.4858" y="791.7835955998337"/>
      <point x="694.14" y="786.9741275771412" type="curve" smooth="yes"/>
      <point x="675.0" y="774.4427194317603"/>
      <point x="614.0" y="768.4824777454913"/>
      <point x="600.0" y="713.3502421475023" type="curve" smooth="yes"/>
      <point x="591.0" y="678.3338222406715"/>
      <point x="628.0" y="661.9431576034315"/>
      <point x="661.0" y="661.9431576034315" type="curve" smooth="yes"/>
      <point x="729.0" y="661.9431576034315"/>
      <point x="733.0" y="701.4297587749642"/>
      <point x="845.0" y="759.5421152160877" type="curve" smooth="yes"/>
      <point x="997.0" y="837.0252571375856"/>
      <point x="1067.0" y="852.670891564042"/>
      <point x="1067.0" y="866.0814353581475" type="curve" smooth="yes"/>
      <point x="1067.0" y="889.1773718924402"/>
      <point x="1034.0" y="933.1341543286746"/>
      <point x="1009.0" y="933.1341543286746" type="curve" smooth="yes"/>
      <point x="985.0" y="933.1341543286746"/>
      <point x="954.0" y="921.2136709561364"/>
      <point x="909.0" y="902.5879156865456" type="curve" smooth="yes"/>
      <point x="884.0" y="892.1574927355747"/>
      <point x="829.0" y="886.1972510493056"/>
      <point x="788.0" y="886.1972510493056" type="curve" smooth="yes"/>
      <point x="733.0" y="886.1972510493056"/>
      <point x="645.0" y="925.6838522208384"/>
      <point x="645.0" y="974.8558461325583" type="curve" smooth="yes"/>
      <point x="645.0" y="1035.2032932060326"/>
      <point x="725.0" y="1088.8454683824543"/>
      <point x="790.0" y="1088.8454683824543" type="curve" smooth="yes"/>
      <point x="876.0" y="1088.8454683824543"/>
      <point x="817.0" y="1000.1868732992018"/>
      <point x="917.0" y="1000.1868732992018" type="curve" smooth="yes"/>
      <point x="962.0" y="1000.1868732992018"/>
      <point x="1003.0" y="1024.7728702550617"/>
      <point x="1003.0" y="1065.7495318481617" type="curve" smooth="yes"/>
      <point x="1003.0" y="1158.878308196116"/>
      <point x="870.0" y="1181.9742447304088"/>
    </contour>
    <contour>
      <point x="391.0" y="568.8143812554771" type="curve" smooth="yes"/>
      <point x="391.0" y="436.19900373599" type="line" smooth="yes"/>
      <point x="391.0" y="420.5533693095337"/>
      <point x="367.0" y="410.1229463585628"/>
      <point x="332.0" y="407.1428255154282" type="curve" smooth="yes"/>
      <point x="315.0" y="405.652765093861"/>
      <point x="287.0" y="405.652765093861"/>
      <point x="274.0" y="405.652765093861" type="curve" smooth="yes"/>
      <point x="188.0" y="405.652765093861"/>
      <point x="135.0" y="414.5931276232646"/>
      <point x="135.0" y="472.70548406438814" type="curve" smooth="yes"/>
      <point x="135.0" y="541.2482634564826"/>
      <point x="168.0" y="647.7875835985424"/>
      <point x="348.0" y="647.7875835985424" type="curve" smooth="yes"/>
      <point x="381.0" y="647.7875835985424"/>
      <point x="391.0" y="618.7314053779806"/>
    </contour>
  </outline>
</glyph>
<glyph name="uni0689" format="2">
  <advance width="1228"/>
  <unicode hex="0689"/>
  <outline>
    <contour>
      <point x="729.0" y="0.0" type="curve" smooth="yes"/>
      <point x="729.0" y="65.9708023071289"/>
      <point x="713.0194702148438" y="124.2913589477539"/>
      <point x="698.1410754394532" y="150.83421340942382" type="curve" smooth="yes"/>
      <point x="692.4308501342774" y="161.02117789764404"/>
      <point x="697.2823625048594" y="173.04437511669636"/>
      <point x="708.4634421853725" y="176.41548408825852" type="curve" smooth="yes"/>
      <point x="834.6346435546875" y="214.4562530517578"/>
      <point x="882.3807983398438" y="300.4163513183594"/>
      <point x="897.0" y="326.0" type="curve" smooth="yes"/>
      <point x="918.0" y="360.0"/>
      <point x="946.0" y="411.61300678013004"/>
      <point x="946.0" y="492.0762695447627" type="curve" smooth="yes"/>
      <point x="946.0" y="637.3571606475716"/>
      <point x="842.0" y="784.1281121719477"/>
      <point x="754.0" y="855.6510124071767" type="curve" smooth="yes"/>
      <point x="715.0" y="887.687311470873"/>
      <point x="672.0" y="904.0779761081129"/>
      <point x="633.0" y="904.0779761081129" type="curve" smooth="yes"/>
      <point x="578.0" y="904.0779761081129"/>
      <point x="545.0" y="873.531737465984"/>
      <point x="545.0" y="840.0053779807204" type="curve" smooth="yes"/>
      <point x="545.0" y="813.929320603293"/>
      <point x="563.0" y="796.0485955444858"/>
      <point x="596.0" y="775.9327798533277" type="curve" smooth="yes"/>
      <point x="700.0" y="713.3502421475023"/>
      <point x="805.0" y="629.9068585397351"/>
      <point x="805.0" y="492.0762695447627" type="curve" smooth="yes"/>
      <point x="805.0" y="413.10306720169734"/>
      <point x="788.0" y="287.0"/>
      <point x="481.0" y="287.0" type="curve" smooth="yes"/>
      <point x="395.0" y="287.0"/>
      <point x="340.0" y="293.0"/>
      <point x="285.0" y="326.0" type="curve" smooth="yes"/>
      <point x="229.0" y="358.0"/>
      <point x="221.0" y="408.63288593699554"/>
      <point x="172.0" y="408.63288593699554" type="curve" smooth="yes"/>
      <point x="127.0" y="408.63288593699554"/>
      <point x="86.0" y="381.0"/>
      <point x="86.0" y="326.0" type="curve" smooth="yes"/>
      <point x="86.0" y="216.9476776123047"/>
      <point x="235.8728485107422" y="165.9710693359375"/>
      <point x="355.8503884348341" y="151.6908903394068" type="curve" smooth="yes"/>
      <point x="366.125971626872" y="150.4678516992673"/>
      <point x="371.3737822692871" y="141.06004065093992"/>
      <point x="367.01594299316406" y="131.67427108764647" type="curve" smooth="yes"/>
      <point x="355.6612854003906" y="107.21898651123047"/>
      <point x="344.0" y="56.827667236328125"/>
      <point x="344.0" y="2.0" type="curve" smooth="yes"/>
      <point x="344.0" y="-157.0"/>
      <point x="438.0" y="-272.0"/>
      <point x="537.0" y="-272.0" type="curve" smooth="yes"/>
      <point x="637.0" y="-272.0"/>
      <point x="729.0" y="-153.0"/>
    </contour>
    <contour>
      <point x="614.0" y="2.0" type="curve" smooth="yes"/>
      <point x="614.0" y="-88.0"/>
      <point x="575.0" y="-145.0"/>
      <point x="537.0" y="-145.0" type="curve" smooth="yes"/>
      <point x="498.0" y="-145.0"/>
      <point x="459.0" y="-88.0"/>
      <point x="459.0" y="2.0" type="curve" smooth="yes"/>
      <point x="459.0" y="73.05294036865234"/>
      <point x="485.4732360839844" y="128.36502075195312"/>
      <point x="514.2121944059179" y="141.75442931990514" type="curve" smooth="yes"/>
      <point x="516.4570085924611" y="142.80028261653706"/>
      <point x="520.6421052001953" y="143.8146330657959"/>
      <point x="523.1166552734375" y="143.91262176513672" type="curve" smooth="yes"/>
      <point x="529.5642700195312" y="144.16793823242188"/>
      <point x="540.3619384765625" y="144.80276489257812"/>
      <point x="546.4448229980469" y="145.27576721191406" type="curve" smooth="yes"/>
      <point x="548.7793921264648" y="145.45730223999024"/>
      <point x="552.8115310431807" y="144.93779304522"/>
      <point x="555.0238419697828" y="144.17042849963693" type="curve" smooth="yes"/>
      <point x="585.7770385742188" y="133.5033416748047"/>
      <point x="614.0" y="76.37533569335938"/>
    </contour>
  </outline>
</glyph>
<glyph name="uni068F" format="2">
  <advance width="1228"/>
  <unicode hex="068F"/>
  <outline>
    <contour>
      <point x="172.0" y="408.63288593699554" type="curve" smooth="yes"/>
      <point x="127.0" y="408.63288593699554"/>
      <point x="86.0" y="381.0"/>
      <point x="86.0" y="326.0" type="curve" smooth="yes"/>
      <point x="86.0" y="188.0"/>
      <point x="326.0" y="143.0"/>
      <point x="481.0" y="143.0" type="curve" smooth="yes"/>
      <point x="795.0" y="143.0"/>
      <point x="877.0" y="291.0"/>
      <point x="897.0" y="326.0" type="curve" smooth="yes"/>
      <point x="918.0" y="360.0"/>
      <point x="946.0" y="411.61300678013004"/>
      <point x="946.0" y="492.0762695447627" type="curve" smooth="yes"/>
      <point x="946.0" y="637.3571606475716"/>
      <point x="842.0" y="784.1281121719477"/>
      <point x="754.0" y="855.6510124071767" type="curve" smooth="yes"/>
      <point x="715.0" y="887.687311470873"/>
      <point x="672.0" y="904.0779761081129"/>
      <point x="633.0" y="904.0779761081129" type="curve" smooth="yes"/>
      <point x="578.0" y="904.0779761081129"/>
      <point x="545.0" y="873.531737465984"/>
      <point x="545.0" y="840.0053779807204" type="curve" smooth="yes"/>
      <point x="545.0" y="813.929320603293"/>
      <point x="563.0" y="796.0485955444858"/>
      <point x="596.0" y="775.9327798533277" type="curve" smooth="yes"/>
      <point x="700.0" y="713.3502421475023"/>
      <point x="805.0" y="629.9068585397351"/>
      <point x="805.0" y="492.0762695447627" type="curve" smooth="yes"/>
      <point x="805.0" y="413.10306720169734"/>
      <point x="788.0" y="287.0"/>
      <point x="481.0" y="287.0" type="curve" smooth="yes"/>
      <point x="395.0" y="287.0"/>
      <point x="340.0" y="293.0"/>
      <point x="285.0" y="326.0" type="curve" smooth="yes"/>
      <point x="229.0" y="358.0"/>
      <point x="221.0" y="408.63288593699554"/>
    </contour>
    <contour>
      <point x="438.0" y="1125.3519487108526" type="curve" smooth="yes"/>
      <point x="438.0" y="1094.8057100687236"/>
      <point x="537.0" y="1018.8126285687929"/>
      <point x="574.0" y="1018.8126285687929" type="curve" smooth="yes"/>
      <point x="606.0" y="1018.8126285687929"/>
      <point x="709.0" y="1091.825589225589"/>
      <point x="709.0" y="1125.3519487108526" type="curve" smooth="yes"/>
      <point x="709.0" y="1154.4081269314145"/>
      <point x="608.0" y="1234.1263594852635"/>
      <point x="574.0" y="1234.1263594852635" type="curve" smooth="yes"/>
      <point x="539.0" y="1234.1263594852635"/>
      <point x="438.0" y="1157.388247774549"/>
    </contour>
    <contour>
      <point x="249.0" y="1330.980286887136" type="curve" smooth="yes"/>
      <point x="249.0" y="1300.434048245007"/>
      <point x="348.0" y="1224.4409667450761"/>
      <point x="385.0" y="1224.4409667450761" type="curve" smooth="yes"/>
      <point x="417.0" y="1224.4409667450761"/>
      <point x="520.0" y="1297.4539274018723"/>
      <point x="520.0" y="1330.980286887136" type="curve" smooth="yes"/>
      <point x="520.0" y="1360.0364651076977"/>
      <point x="419.0" y="1439.7546976615467"/>
      <point x="385.0" y="1439.7546976615467" type="curve" smooth="yes"/>
      <point x="350.0" y="1439.7546976615467"/>
      <point x="249.0" y="1363.0165859508322"/>
    </contour>
    <contour>
      <point x="571.0" y="1364.5066463723995" type="curve" smooth="yes"/>
      <point x="571.0" y="1333.9604077302706"/>
      <point x="670.0" y="1257.9673262303397"/>
      <point x="707.0" y="1257.9673262303397" type="curve" smooth="yes"/>
      <point x="739.0" y="1257.9673262303397"/>
      <point x="842.0" y="1330.980286887136"/>
      <point x="842.0" y="1364.5066463723995" type="curve" smooth="yes"/>
      <point x="842.0" y="1393.5628245929613"/>
      <point x="741.0" y="1473.2810571468103"/>
      <point x="707.0" y="1473.2810571468103" type="curve" smooth="yes"/>
      <point x="672.0" y="1473.2810571468103"/>
      <point x="571.0" y="1396.5429454360958"/>
    </contour>
  </outline>
</glyph>
<glyph name="uni0696" format="2">
  <advance width="1228"/>
  <unicode hex="0696"/>
  <outline>
    <contour>
      <point x="805.0" y="416.0831880448319" type="curve" smooth="yes"/>
      <point x="805.0" y="197.0"/>
      <point x="692.0" y="-29.0"/>
      <point x="387.0" y="-29.0" type="curve" smooth="yes"/>
      <point x="201.0" y="-29.0"/>
      <point x="244.0" y="94.0"/>
      <point x="143.0" y="94.0" type="curve" smooth="yes"/>
      <point x="98.0" y="94.0"/>
      <point x="57.0" y="61.0"/>
      <point x="57.0" y="6.0" type="curve" smooth="yes"/>
      <point x="57.0" y="-80.0"/>
      <point x="182.0" y="-170.0"/>
      <point x="387.0" y="-170.0" type="curve" smooth="yes"/>
      <point x="707.0" y="-170.0"/>
      <point x="952.0" y="74.0"/>
      <point x="952.0" y="416.0831880448319" type="curve" smooth="yes"/>
      <point x="952.0" y="548.698565564319"/>
      <point x="893.0" y="672.3735805544025"/>
      <point x="758.0" y="672.3735805544025" type="curve" smooth="yes"/>
      <point x="702.0" y="672.3735805544025"/>
      <point x="670.0" y="641.8273419122734"/>
      <point x="670.0" y="608.3009824270098" type="curve" smooth="yes"/>
      <point x="670.0" y="522.6225081868918"/>
      <point x="805.0" y="580.7348646280152"/>
    </contour>
    <contour>
      <point x="462.0" y="-537.0" type="curve" smooth="yes"/>
      <point x="462.0" y="-578.0"/>
      <point x="561.0" y="-680.0"/>
      <point x="598.0" y="-680.0" type="curve" smooth="yes"/>
      <point x="630.0" y="-680.0"/>
      <point x="733.0" y="-582.0"/>
      <point x="733.0" y="-537.0" type="curve" smooth="yes"/>
      <point x="733.0" y="-498.0"/>
      <point x="632.0" y="-391.0"/>
      <point x="598.0" y="-391.0" type="curve" smooth="yes"/>
      <point x="563.0" y="-391.0"/>
      <point x="462.0" y="-494.0"/>
    </contour>
    <contour>
      <point x="344.0" y="946.5446981227801" type="curve" smooth="yes"/>
      <point x="344.0" y="915.998459480651"/>
      <point x="443.0" y="840.0053779807204"/>
      <point x="480.0" y="840.0053779807204" type="curve" smooth="yes"/>
      <point x="512.0" y="840.0053779807204"/>
      <point x="615.0" y="913.0183386375165"/>
      <point x="615.0" y="946.5446981227801" type="curve" smooth="yes"/>
      <point x="615.0" y="975.600876343342"/>
      <point x="514.0" y="1055.319108897191"/>
      <point x="480.0" y="1055.319108897191" type="curve" smooth="yes"/>
      <point x="445.0" y="1055.319108897191"/>
      <point x="344.0" y="978.5809971864765"/>
    </contour>
  </outline>
</glyph>
<glyph name="uni069A" format="2">
  <advance width="1775"/>
  <unicode hex="069A"/>
  <outline>
    <contour>
      <point x="577.0228875819816" y="369.0" type="curve" smooth="yes"/>
      <point x="254.0" y="369.0"/>
      <point x="238.6015833944855" y="424.66075540940795"/>
      <point x="238.6015833944855" y="458.18711489467154" type="curve" smooth="yes"/>
      <point x="238.6015833944855" y="771.0998034237983" type="line" smooth="yes"/>
      <point x="238.6015833944855" y="776.908574429396"/>
      <point x="238.776574587227" y="782.2415174260084"/>
      <point x="238.9364794700791" y="787.1192694522009" type="curve" smooth="yes"/>
      <point x="240.0847934814921" y="822.276913420746"/>
      <point x="240.4591744688926" y="833.7881214835547"/>
      <point x="155.4465220207584" y="817.1504787715531" type="curve" smooth="yes"/>
      <point x="45.14017978311164" y="777.9321440114251"/>
      <point x="46.25182233684456" y="767.0134829795459"/>
      <point x="49.63197930491676" y="733.7278149704214" type="curve" smooth="yes"/>
      <point x="50.121756090990004" y="728.8938634767704"/>
      <point x="50.659026766744056" y="723.5881079641401"/>
      <point x="50.88328756811223" y="717.631364814891" type="curve" smooth="yes"/>
      <point x="50.88328756811223" y="152.74624036102605" type="line" smooth="yes"/>
      <point x="49.11298711723716" y="-104.19523796782126"/>
      <point x="23.99563811247613" y="-272.7831089736403"/>
      <point x="-290.8609559161821" y="-446.1633905642226" type="curve" smooth="yes"/>
      <point x="-445.9" y="-484.1"/>
      <point x="-558.9" y="-382.1"/>
      <point x="-559.9" y="-124.10000000000002" type="curve" smooth="yes"/>
      <point x="-556.8185485839844" y="51.54251708984373"/>
      <point x="-492.5872406005859" y="92.35150756835935"/>
      <point x="-449.36627807617185" y="119.81168212890623" type="curve" smooth="yes"/>
      <point x="-422.4563049316406" y="136.90875854492185"/>
      <point x="-402.69233918246925" y="150.0517433212529"/>
      <point x="-412.67806703491306" y="185.17125140177296" type="curve"/>
      <point x="-408.40911699174546" y="230.49996812119997"/>
      <point x="-441.9" y="270.9"/>
      <point x="-515.9" y="270.9" type="curve" smooth="yes"/>
      <point x="-712.9" y="270.9"/>
      <point x="-714.9" y="14.899999999999977"/>
      <point x="-714.9" y="-124.10000000000002" type="curve" smooth="yes"/>
      <point x="-715.9" y="-437.1"/>
      <point x="-568.9" y="-628.1"/>
      <point x="-290.8609559161821" y="-590.1633905642226" type="curve" smooth="yes"/>
      <point x="253.088623046875" y="-330.0"/>
      <point x="253.0471954345703" y="-72.1288070678711"/>
      <point x="253.00108337402344" y="214.8184814453125" type="curve" smooth="yes"/>
      <point x="253.00054931640625" y="218.20838928222656"/>
      <point x="253.0" y="221.60235595703125"/>
      <point x="253.0" y="225.0" type="curve"/>
      <point x="577.0228875819816" y="225.0" type="line" smooth="yes"/>
      <point x="1005.4993959478061" y="225.0"/>
      <point x="1071.499395947806" y="268.0"/>
      <point x="1098.179395947806" y="292.94" type="curve" smooth="yes"/>
      <point x="1108.418995947806" y="302.5118"/>
      <point x="1127.0784640888876" y="303.0788474987211"/>
      <point x="1137.8803919926604" y="294.14648403983205" type="curve" smooth="yes"/>
      <point x="1169.499395947806" y="268.0"/>
      <point x="1206.499395947806" y="225.0"/>
      <point x="1328.499395947806" y="225.0" type="curve" smooth="yes"/>
      <point x="1534.499395947806" y="225.0"/>
      <point x="1560.499395947806" y="394.47731193210643"/>
      <point x="1560.499395947806" y="458.5499100594991" type="curve" smooth="yes"/>
      <point x="1560.499395947806" y="771.4625985886258" type="line" smooth="yes"/>
      <point x="1560.499395947806" y="778.4782239517795"/>
      <point x="1560.8024965337436" y="784.7842425986687"/>
      <point x="1561.0741640142123" y="790.437495823451" type="curve" smooth="yes"/>
      <point x="1562.6491151860873" y="823.2067292705341"/>
      <point x="1563.170050244681" y="834.0451362944511"/>
      <point x="1497.499395947806" y="834.0451362944511" type="curve" smooth="yes"/>
      <point x="1443.6836000493686" y="834.0451362944511"/>
      <point x="1444.3864809087436" y="824.1382898722256"/>
      <point x="1446.480108838431" y="794.6310191412283" type="curve" smooth="yes"/>
      <point x="1446.9541078618686" y="787.9504391023578"/>
      <point x="1447.499395947806" y="780.2651323479558"/>
      <point x="1447.499395947806" y="771.4625985886258" type="curve" smooth="yes"/>
      <point x="1447.499395947806" y="458.5499100594991" type="line" smooth="yes"/>
      <point x="1447.499395947806" y="425.0235505742355"/>
      <point x="1432.499395947806" y="369.0"/>
      <point x="1328.499395947806" y="369.0" type="curve" smooth="yes"/>
      <point x="1226.499395947806" y="369.0"/>
      <point x="1169.499395947806" y="414.5931276232646"/>
      <point x="1167.499395947806" y="458.5499100594991" type="curve" smooth="yes"/>
      <point x="1167.499395947806" y="695.469517088695" type="line" smooth="yes"/>
      <point x="1167.499395947806" y="704.9730176875778"/>
      <point x="1168.2783266118686" y="713.1937239599097"/>
      <point x="1168.9480043462436" y="720.2614614215472" type="curve" smooth="yes"/>
      <point x="1171.5857606938998" y="748.1006902707105"/>
      <point x="1172.528692822806" y="758.0520547945205"/>
      <point x="1117.499395947806" y="758.0520547945205" type="curve" smooth="yes"/>
      <point x="1061.5222230962436" y="758.0520547945205"/>
      <point x="1062.458624463431" y="748.0470320890256"/>
      <point x="1065.080206494681" y="720.0361880045414" type="curve" smooth="yes"/>
      <point x="1065.7368837407748" y="713.0191529772926"/>
      <point x="1066.499395947806" y="704.8722039682597"/>
      <point x="1066.499395947806" y="695.469517088695" type="curve" smooth="yes"/>
      <point x="1066.499395947806" y="458.5499100594991" type="line" smooth="yes"/>
      <point x="1064.499395947806" y="414.5931276232646"/>
      <point x="1007.4993959478061" y="369.0"/>
    </contour>
    <contour>
      <point x="1076.499395947806" y="-146.0" type="curve" smooth="yes"/>
      <point x="1076.499395947806" y="-187.0"/>
      <point x="1175.499395947806" y="-289.0"/>
      <point x="1212.499395947806" y="-289.0" type="curve" smooth="yes"/>
      <point x="1244.499395947806" y="-289.0"/>
      <point x="1347.499395947806" y="-191.0"/>
      <point x="1347.499395947806" y="-146.0" type="curve" smooth="yes"/>
      <point x="1347.499395947806" y="-107.0"/>
      <point x="1246.499395947806" y="0.0"/>
      <point x="1212.499395947806" y="0.0" type="curve" smooth="yes"/>
      <point x="1177.499395947806" y="0.0"/>
      <point x="1076.499395947806" y="-103.0"/>
    </contour>
    <contour>
      <point x="980.4993959478061" y="1108.2162538628288" type="curve" smooth="yes"/>
      <point x="980.4993959478061" y="1077.6700152207"/>
      <point x="1079.499395947806" y="1001.6769337207691"/>
      <point x="1116.499395947806" y="1001.6769337207691" type="curve" smooth="yes"/>
      <point x="1148.499395947806" y="1001.6769337207691"/>
      <point x="1251.499395947806" y="1074.6898943775652"/>
      <point x="1251.499395947806" y="1108.2162538628288" type="curve" smooth="yes"/>
      <point x="1251.499395947806" y="1137.2724320833906"/>
      <point x="1150.499395947806" y="1216.9906646372397"/>
      <point x="1116.499395947806" y="1216.9906646372397" type="curve" smooth="yes"/>
      <point x="1081.499395947806" y="1216.9906646372397"/>
      <point x="980.4993959478061" y="1140.2525529265251"/>
    </contour>
  </outline>
</glyph>
